<svg xmlns:svg="http://www.w3.org/2000/svg" xmlns="http://www.w3.org/2000/svg" xmlns:xlink="http://www.w3.org/1999/xlink" version="1.0" width="220" height="220" id="svg2">
	<g>
		<g id="g10078" style="fill:#000000;fill-opacity:1;stroke:#313131;stroke-width:13.83636189;stroke-miterlimit:4;stroke-dasharray:none;stroke-opacity:1" transform="matrix(0.21682,0,0,0.21682,383.7133,8.950689)">
			<path d="M -1614.9375,325.34375 C -1641.764,338.99511 -1663.1762,357.46528 -1678.6875,379.96875 C -1696.8711,405.52921 -1703.2461,441.57005 -1708.656,462.625 C -1714.269,461.25597 -1746.5203,440.20104 -1753.9372,438.9375 C -1754.2443,444.01518 -1711.0683,484.40734 -1708.5935,486.71875 C -1698.7079,536.74747 -1672.9285,584.089 -1637.906,610.34375 C -1637.863,610.37375 -1637.824,610.40755 -1637.781,610.43745 C -1617.4506,624.91487 -1592.493,634.7081 -1572.6247,640.18745 C -1539.202,648.65962 -1508.4422,656.9377 -1483.3747,676.6562 C -1465.3606,691.14621 -1448.7233,711.04041 -1439.781,728.81245 C -1428.5057,755.29732 -1426.414,768.65576 -1419.656,793.4062 C -1406.9653,789.65864 -1395.6471,784.12425 -1377.9997,773.6562 C -1384.5847,749.85661 -1391.4195,722.83681 -1401.8122,703.74995 C -1408.0042,692.54068 -1416.1405,681.09518 -1425.4372,670.31245 C -1418.9643,666.43499 -1362.9651,662.65444 -1366.5935,658.99995 C -1370.1975,655.36989 -1432.6547,651.83752 -1446.906,648.4687 C -1476.3276,621.65645 -1518.4178,607.64082 -1553.031,598.6562 C -1575.6961,593.21572 -1594.2802,585.42333 -1611.906,573.49995 C -1628.4414,561.71042 -1642.2145,546.07144 -1650.3435,529.74995 C -1661.0309,505.27362 -1665.8779,477.62763 -1660.7497,451.24995 C -1652.3032,413.70752 -1626.5131,383.52121 -1596.3435,366.62495 C -1604.5683,351.82391 -1610.469,339.04239 -1614.9372,325.3437 L -1614.9375,325.34375 z" id="path7358" style="fill:#000000;fill-opacity:1;stroke:#313131;stroke-width:13.83636189;stroke-miterlimit:4;stroke-dasharray:none;stroke-opacity:1"/>
			<path d="M -1615.0313,624.1875 C -1624.3424,652.80331 -1626.4119,681.00027 -1621.4688,707.875 C -1618.0588,737.76088 -1592.0377,772.25128 -1584.2191,787.5 C -1589.156,790.50095 -1626.8622,798.43015 -1633.0003,802.78125 C -1629.627,806.58883 -1570.5409,804.61557 -1567.1566,804.5 C -1524.1219,826.91164 -1471.6569,847.7795 -1429.7503,841.93745 C -1429.6983,841.92845 -1429.6456,841.91545 -1429.5941,841.90625 C -1381.3414,836.47609 -1340.8572,799.01224 -1302.4378,785.4375 C -1271.5841,776.67418 -1235.1738,776.30079 -1205.8753,785.62505 C -1179.1799,796.38484 -1168.2512,804.31094 -1145.9691,817.0313 C -1139.6397,805.4045 -1135.5534,793.57095 -1130.4691,773.6563 C -1164.6731,751.48519 -1199.6445,736.99778 -1237.0941,734.0938 C -1235.2589,726.77502 -1198.3506,684.51854 -1203.5003,684.50005 C -1208.6156,684.48165 -1255.2599,726.14885 -1267.7191,733.8438 C -1308.6234,734.9992 -1346.7367,755.3561 -1378.0003,773.6563 C -1423.8491,802.95311 -1486.4238,802.92943 -1525.1566,778.8438 C -1546.8049,762.59028 -1564.4509,741.5837 -1573.3128,715.9688 C -1579.5959,689.66874 -1579.5873,664.06519 -1572.6253,640.18755 C -1588.9523,635.5657 -1602.1226,630.65995 -1615.0316,624.18755 L -1615.0313,624.1875 z" id="path7363" style="fill:#000000;fill-opacity:1;stroke:#313131;stroke-width:13.83636189;stroke-miterlimit:4;stroke-dasharray:none;stroke-opacity:1"/>
			<path d="M -1582.1875,96.125 C -1582.2485,96.17923 -1582.3168,96.260677 -1582.375,96.34375 C -1585.9417,101.43036 -1584.0179,158.72964 -1583.9063,162 C -1622.1263,216.7271 -1632.3583,272.8086 -1613.219,330.5313 C -1602.3877,364.90059 -1576.4379,392.07806 -1564.8127,426.6563 C -1556.0547,457.51456 -1555.6778,493.92662 -1565.0005,523.2188 C -1569.0789,535.55815 -1573.8713,545.01958 -1588.7193,569.9688 C -1591.6931,574.96577 -1594.1644,579.22981 -1596.4068,583.1563 C -1584.7915,589.47196 -1572.8978,593.58346 -1553.0318,598.6563 C -1552.3539,597.5124 -1551.6905,596.35648 -1550.9693,595.1563 C -1532.6597,564.6883 -1525.4906,550.0075 -1520.4068,532.37505 C -1516.8557,520.05928 -1514.5499,506.21196 -1513.5005,492.00005 C -1506.2567,493.75354 -1463.894,530.78095 -1463.8755,525.62505 C -1463.8575,520.51369 -1505.4782,473.93949 -1513.2193,461.43755 C -1514.0701,445.77814 -1516.8922,431.25446 -1520.5946,417.18755 C -1530.9729,388.49081 -1541.0993,371.2618 -1553.0946,351.12505 C -1563.5392,333.51084 -1569.0417,322.17201 -1572.7821,309.50005 C -1579.0765,285.3414 -1579.9387,255.71618 -1573.1255,233.5938 C -1563.5856,208.32544 -1544.7174,184.14685 -1524.9693,170.75005 C -1511.7235,162.1906 -1496.2226,155.30637 -1481.7818,152.31255 C -1481.7308,152.30255 -1481.6769,152.29095 -1481.6255,152.28135 C -1458.9401,149.4325 -1439.5676,150.68893 -1419.6255,156.5001 C -1415.0237,140.18256 -1410.0496,127.03896 -1403.6255,114.1251 C -1434.1766,108.48723 -1464.1477,103.1928 -1491.5318,108.43755 C -1521.4368,116.17895 -1545.8528,130.57466 -1566.9071,144.9063 C -1569.9109,139.94331 -1577.8391,102.26044 -1582.1883,96.12505 L -1582.1875,96.125 z" id="path8255" style="fill:#000000;fill-opacity:1;stroke:#313131;stroke-width:13.83636189;stroke-miterlimit:4;stroke-dasharray:none;stroke-opacity:1"/>
			<path d="M -1218.625,-24.8125 C -1224.7438,-23.737781 -1263.8915,18.139747 -1266.125,20.53125 C -1329.6321,30.041863 -1362.4679,51.559555 -1389.7188,91.21875 C -1403.7093,111.04041 -1413.1842,133.43824 -1419.625,156.5 C -1425.7152,177.88869 -1430.6669,202.84402 -1439.7813,221.1875 C -1455.4025,249.19992 -1480.8815,275.22183 -1508.1875,289.34375 C -1534.6757,300.6318 -1548.0116,302.74847 -1572.7813,309.5 C -1569.041,322.17196 -1563.5384,333.51079 -1553.0938,351.125 C -1529.2806,344.56765 -1502.2182,337.73862 -1483.125,327.34375 C -1471.9056,321.14611 -1460.4789,312.96355 -1449.6875,303.65625 C -1445.8052,310.01836 -1442.0339,366.16393 -1438.375,362.53125 C -1434.7478,358.92996 -1431.2415,296.56396 -1427.875,282.25 C -1419.9413,273.259 -1413.71,264.78741 -1407.7813,255.6875 C -1393.2676,230.71628 -1384.8049,202.31812 -1378.0625,176.09375 C -1371.4314,154.09218 -1364.2755,133.71123 -1352.938,117.28125 C -1348.3955,108.70661 -1352.92,117.23765 -1352.907,117.21875 C -1332.5679,90.761734 -1308.9448,75.166643 -1277.6257,68.40625 C -1245.0143,64.049248 -1213.6119,68.820544 -1187.0632,85.90625 C -1169.9394,100.11607 -1155.9311,114.85105 -1146.0632,132.84375 C -1131.2682,124.54316 -1118.4605,118.75229 -1104.782,114.15625 C -1117.8872,88.407445 -1135.3968,67.65335 -1156.6882,52.3125 C -1181.598,35.570786 -1213.1773,24.702852 -1238.0945,21.75 C -1239.9842,21.203145 -1238.1115,21.72664 -1242.0323,20.46875 C -1240.647,14.835322 -1219.6077,-17.39874 -1218.3448,-24.8125 C -1218.4268,-24.8174 -1218.5261,-24.83005 -1218.626,-24.8125 L -1218.625,-24.8125 z" id="path9143" style="fill:#000000;fill-opacity:1;stroke:#313131;stroke-width:13.83636189;stroke-miterlimit:4;stroke-dasharray:none;stroke-opacity:1"/>
			<path d="M -1069.8125,587.03125 C -1078.3387,612.59891 -1075.0705,641.2086 -1080.6563,667.53125 C -1108.6666,697.30386 -1121.4414,738.57469 -1130.4688,773.65625 C -1135.5531,793.5709 -1139.6393,805.40445 -1145.9688,817.03125 C -1158.6311,838.32892 -1178.9867,860.16583 -1199.375,870.96875 C -1234.1536,886.77651 -1279.727,884.8709 -1309.375,870.96875 C -1327.6663,861.40912 -1344.3887,844.88234 -1354.6563,829.71875 C -1357.6578,825.21661 -1360.2257,821.0732 -1362.5,816.90625 C -1377.2917,825.1421 -1390.0622,831.03268 -1403.75,835.53125 C -1387.8361,862.55043 -1368.1715,886.01238 -1346.1563,901.34375 C -1324.0368,914.78244 -1281.0278,926.43936 -1266.5,929.28125 C -1267.9411,934.98474 -1288.9264,967.15967 -1290.1875,974.5625 C -1285.1074,974.86972 -1244.6498,931.65447 -1242.375,929.21875 C -1144.8853,897.92754 -1110.3524,876.43237 -1085,778.375 C -1077.8573,750.23421 -1074.5601,740.14033 -1068.7188,728.53125 C -1053.096,700.52029 -1027.6177,674.52601 -1000.3125,660.40625 C -973.82317,649.14349 -960.50754,646.98497 -935.75,640.21875 C -939.49581,627.52485 -944.95277,616.26758 -955.4375,598.59375 C -994.84105,608.06557 -1030.3263,621.69754 -1058.8125,646.09375 C -1062.5768,640.00548 -1064.9498,602.71434 -1069.8125,587.03125 z" id="path9145" style="fill:#000000;fill-opacity:1;stroke:#313131;stroke-width:13.83636189;stroke-miterlimit:4;stroke-dasharray:none;stroke-opacity:1"/>
			<path d="M -1088.875,156.375 C -1101.5736,160.1151 -1112.8607,165.55112 -1130.5313,176.03125 C -1123.9797,199.86004 -1117.1184,226.90025 -1106.7188,246 C -1100.5205,257.22062 -1092.3397,268.64516 -1083.0313,279.4375 C -1089.3489,283.32176 -1145.5406,287.0894 -1141.9063,290.75 C -1138.2968,294.3855 -1075.6898,297.90781 -1061.5625,301.28125 C -1054.7954,307.31928 -1047.8027,312.84888 -1040.7813,317.59375 C -1016.3506,333.66992 -986.27222,343.28144 -959.125,350.125 C -942.96783,354.46462 -925.04386,359.63428 -912.09375,366.59375 C -890.99054,379.5205 -868.83545,399.90544 -858.15625,420 C -854.61584,427.1087 -849.86337,441.56212 -847.78125,451.5 C -845.3352,463.17515 -845.33518,486.82487 -847.78125,498.5 C -849.86339,508.4379 -854.61584,522.89132 -858.15625,530 C -859.78205,533.26428 -861.63269,536.50219 -863.6875,539.6875 C -864.03692,540.21846 -864.38979,540.75369 -864.75,541.28125 C -864.95469,541.58665 -865.16666,541.88316 -865.375,542.1875 C -874.13747,554.75688 -885.93171,566.26671 -899.40625,575.25 C -903.90394,578.24853 -908.05596,580.78993 -912.21875,583.0625 C -903.68266,598.03158 -899.73235,606.67664 -895.3125,619.1875 C -894.70312,620.91243 -894.11812,622.64928 -893.5625,624.375 C -867.76252,611.24362 -846.97597,593.66272 -831.625,572.3125 C -830.86642,571.25741 -830.10689,570.19844 -829.375,569.125 C -829.27394,568.97672 -829.16308,568.83611 -829.0625,568.6875 C -828.49556,567.86423 -827.95707,567.02138 -827.40625,566.1875 C -813.07005,544.48392 -804.19421,519.20068 -801.09375,490.8125 C -801.01485,490.50111 -800.90945,489.81198 -800.8125,488.65625 C -800.7182,489.86721 -800.62622,490.65104 -800.53125,490.625 C -800.34754,492.52825 -800.13726,491.32729 -799.84375,487.09375 C -794.14381,488.53207 -761.96587,509.52004 -754.5625,510.78125 C -754.25511,505.69815 -797.54902,465.23059 -799.9375,463 C -800.0024,462.12098 -800.0373,461.45951 -800.09375,460.9375 C -800.21926,456.11655 -800.32293,456.1624 -800.875,460.1875 L -800.9062,460.40625 C -800.9505,459.99427 -800.991,459.449 -801.0312,459.25 C -813.04242,407.52824 -833.4814,367.46579 -868.12495,341.18755 C -878.63447,333.75204 -888.11941,328.10926 -898.37495,323.0938 C -930.91161,306.40767 -968.40307,304.87242 -1000.5937,289.3438 C -1028.6073,273.73712 -1054.6034,248.23398 -1068.7188,220.93755 C -1080.004,194.45757 -1082.1159,181.12753 -1088.875,156.37505 L -1088.875,156.375 z" id="path9149" style="fill:#000000;fill-opacity:1;stroke:#313131;stroke-width:13.83636189;stroke-miterlimit:4;stroke-dasharray:none;stroke-opacity:1"/>
			<path d="M -1048.125,105.09375 C -1069.4028,105.30873 -1090.6311,109.47876 -1109.937,115.9062 C -1122.4479,120.32603 -1131.0987,124.30183 -1146.062,132.8437 C -1165.5025,143.63351 -1186.6373,157.78312 -1206.062,164.31245 C -1236.9208,173.05724 -1273.3333,173.44736 -1302.6245,164.1249 C -1314.9639,160.04656 -1324.394,155.25399 -1349.3433,140.40615 C -1354.3472,137.42817 -1358.6297,134.93045 -1362.562,132.6874 C -1368.885,144.30248 -1372.9871,156.22877 -1378.062,176.09365 C -1376.9181,176.77154 -1375.7622,177.43491 -1374.562,178.15615 C -1344.094,196.46574 -1329.382,203.6035 -1311.7495,208.6874 C -1299.4325,212.23871 -1285.588,214.54441 -1271.3745,215.59365 C -1273.0952,222.80747 -1310.1578,265.20013 -1304.9995,265.21865 C -1299.8765,265.23705 -1253.1244,223.47903 -1240.7495,215.8749 C -1231.695,215.35932 -1222.8508,214.29727 -1214.5308,212.6874 C -1183.1748,206.98145 -1153.6441,189.86163 -1133.7808,177.96865 C -1119.2649,169.64832 -1102.9583,160.61417 -1088.8745,156.3749 C -1064.8219,150.54922 -1034.726,149.31208 -1012.9683,155.96865 C -988.10504,165.73335 -965.15031,181.87505 -950.1245,204.15615 C -941.5048,217.43114 -934.65719,232.98865 -931.687,247.46865 C -928.99509,262.55254 -929.16746,279.05731 -932.34325,294.9374 C -933.40344,300.23871 -934.53768,304.98012 -935.8745,309.53115 C -919.55785,314.12247 -906.40422,319.08012 -893.4995,325.4999 C -885.55689,294.42426 -882.47932,265.10589 -887.8432,237.59365 C -892.97859,210.59224 -916.22034,174.11689 -924.2807,162.1874 C -919.23319,159.17395 -881.65749,151.24932 -875.5307,146.90615 C -878.90761,143.09446 -938.13952,145.107 -941.4057,145.21865 C -980.37067,132.61337 -1013.4633,107.67691 -1048.125,105.09375 L -1048.125,105.09375 z" id="path9157" style="fill:#000000;fill-opacity:1;stroke:#313131;stroke-width:13.83636189;stroke-miterlimit:4;stroke-dasharray:none;stroke-opacity:1"/>
			<path d="M -955.46875,351.03125 C -956.15223,352.18474 -956.83491,353.3205 -957.5625,354.53125 C -975.87207,384.99925 -983.00985,399.71131 -988.09375,417.34375 C -991.64317,429.65413 -993.91871,443.54462 -994.96875,457.75 C -1002.1603,456.05367 -1044.6065,418.96482 -1044.625,424.125 C -1044.643,429.24343 -1002.939,475.9191 -995.28125,488.34375 C -994.19152,503.97341 -991.9612,518.27387 -987.90625,532.5625 C -982.82235,550.19496 -975.68458,564.87575 -957.375,595.34375 C -945.10642,615.99966 -935.8474,636.36414 -931.625,658 C -928.26916,678.02871 -929.58194,698.83597 -935.375,716.125 C -937.89812,723.65504 -944.75764,737.25057 -950.3125,745.75 C -956.83843,755.73518 -973.54605,772.44282 -983.53125,778.96875 C -992.03069,784.52362 -1005.6262,791.38309 -1013.1563,793.90625 C -1032.8333,800.11029 -1056.3693,800.24112 -1074.3438,796.78125 C -1079.6338,795.7233 -1084.3639,794.58308 -1088.9063,793.25 C -1093.4485,809.84038 -1096.7841,818.78941 -1102.5,830.75 C -1103.2882,832.39924 -1104.1108,834.01315 -1104.9375,835.625 C -1076.1464,844.99476 -1047.7732,847.05879 -1020.75,842 C -992.64186,833.85003 -960.69149,816.10886 -941.59375,804.84375 C -938.57978,809.89579 -930.65534,847.4674 -926.3125,853.59375 C -922.50304,850.21879 -924.47996,791.04959 -924.59375,787.71875 C -891.6042,738.89515 -879.51222,697.6361 -887.18745,650.34375 C -887.21915,650.16598 -887.24915,649.98983 -887.28115,649.8125 C -888.74228,641.34631 -890.83292,632.85261 -893.5624,624.375 C -900.13552,604.8271 -910.38276,585.90015 -919.96865,569.78125 C -933.31317,547.77276 -944.27385,527.23035 -948.2499,504.25 C -949.18002,477.50529 -950.41644,449.23987 -943.4999,426.5 C -939.42156,414.16066 -934.62901,404.69923 -919.78115,379.75 C -916.81115,374.75942 -914.33241,370.51784 -912.09365,366.59375 C -923.72462,360.25371 -935.54649,356.11927 -955.46865,351.03125 L -955.46875,351.03125 z" id="path9165" style="fill:#000000;fill-opacity:1;stroke:#313131;stroke-width:13.83636189;stroke-miterlimit:4;stroke-dasharray:none;stroke-opacity:1"/>
		</g>
	</g>
</svg>