<svg xmlns="http://www.w3.org/2000/svg" xmlns:xlink="http://www.w3.org/1999/xlink" version="1.1" width="331.39px" height="506.71px" viewBox="0 0 331.39 506.71">
	<defs>
		<radialGradient id="a" cx="622.85" cy="788.36" r="164.67" gradientTransform="matrix(1 0 0 1.0694 7.116e-7 -44.198)" gradientUnits="userSpaceOnUse">
			<stop stop-color="#fff" offset="0"/>
			<stop stop-color="#fff" stop-opacity="0" offset="1"/>
		</radialGradient>
		<g id="fdl">
			<g transform="translate(-20.418 559.64)" fill="#ffe24b">
				<path d="m502.05 263.92c0.574-5.3965 0.2684-15.575-2.5708-20.2-0.9594-1.5628-3.3097-3.3828-5.1418-3.3054-1.8055 0.0762-4.29 0.60986-5.1418 2.2036-0.7808 1.4608-1.2877 4.5977-1.1018 6.2436 0.2582 2.2861 2.9382 6.9781 2.9382 6.9781s-9.6038-1.9274-12.854-4.4072c-3.2162-2.4536-6.6875-7.1048-7.7126-11.018-0.3517-1.3425-1.7247-5.6844 9e-3 -10.893 1.0064-3.0232 4.0336-7.0688 6.3762-9.085 6.1173-5.2652 17.996-3.7346 20.426-2.4258 3.2127 1.7309 7.1281 5.4119 8.4472 8.8145 1.024 2.6412 3.1525 10.437 3.6727 13.222 1.0616 5.6828 1.3699 7.8267 1.8364 13.589 0.3202 3.9551 1.2029 7.5063 0.3672 11.385-0.4502 2.0899-1.0125 6.8862-2.2337 10.045-1.2278 3.1752-3.1176 4.7106-4.7444 6.1153-3.3233 2.8695-13.956 4.4072-13.956 4.4072s5.8421-7.3697 7.3454-10.651c1.7852-3.8962 3.5866-6.7564 4.0399-11.018z"/>
				<path d="m528.09 263.92c-0.574-5.3965-0.2684-15.575 2.5708-20.2 0.9594-1.5628 3.3097-3.3828 5.1418-3.3054 1.8055 0.0762 4.29 0.60986 5.1418 2.2036 0.7808 1.4608 1.2877 4.5977 1.1018 6.2436-0.2582 2.2861-2.9382 6.9781-2.9382 6.9781s9.6038-1.9274 12.854-4.4072c3.2162-2.4536 6.6875-7.1048 7.7126-11.018 0.3517-1.3425 1.7247-5.6844-9e-3 -10.893-1.0064-3.0232-4.0336-7.0688-6.3762-9.085-6.1173-5.2652-17.996-3.7346-20.426-2.4258-3.2127 1.7309-7.1281 5.4119-8.4472 8.8145-1.024 2.6412-3.1525 10.437-3.6727 13.222-1.0616 5.6828-1.3699 7.8267-1.8364 13.589-0.3202 3.9551-1.2029 7.5063-0.3672 11.385 0.4502 2.0899 1.0125 6.8862 2.2337 10.045 1.2278 3.1752 3.1176 4.7106 4.7444 6.1153 3.3233 2.8695 13.956 4.4072 13.956 4.4072s-5.8421-7.3697-7.3454-10.651c-1.7852-3.8962-3.5866-6.7564-4.0399-11.018z"/>
			</g>
			<path d="m517.55 844.62-2.8014-0.0446-8.9722-2.8198-10.767-9.4848-7.9468 7.5622-5.3833 2.5635-6.1523 2.0508-4.0841 0.27769s7.2321-4.8681 9.728-7.6055c1.785-1.9578 3.6052-5.0518 4.7756-7.4286 2.0168-4.0955 5.1293-14.327 5.2376-14.397l2.2924-0.3439 4.4218 0.35374s3.1125 10.231 5.1293 14.327c1.1704 2.3768 2.9905 5.4709 4.7756 7.4286 2.4959 2.7374 9.7464 7.561 9.7464 7.561z" fill="#ddad00"/>
			<path d="m518.98 815.22s5.462-2.3038 7.0893-4.1558c1.7352-1.9749 2.8985-5.4909 3.4224-8.0671 0.39458-1.9404-0.56822-6.0582-1.4668-7.8226-1.3579-2.6666-3.0212-4.2082-5.867-5.1336-1.9528-0.63501-4.9202-0.71602-6.8448 0-1.998 0.74336-4.794 2.4797-6.1114 4.1558-1.9863 2.5271-3.1569 5.4315-3.9113 8.556-0.46476 1.9248-1.508 7.7986-1.4668 9.7783 0.0367 1.7612 0.24446 7.3337 0.24446 7.3337l3.6669 6.1114 0.0913-0.27832-0.27391-10.135v-4.2456l1.9174-6.5738 3.15-4.2456 3.6978-0.54782 3.5608 1.7804 1.5065 3.8347-0.27391 4.6565-2.1309 4.9981z" fill="#ddad00"/>
			<path d="m470.33 815.21s-5.462-2.3038-7.0893-4.1558c-1.7352-1.9749-2.8985-5.4909-3.4224-8.0671-0.39458-1.9404 0.56822-6.0582 1.4668-7.8226 1.3579-2.6666 3.0212-4.2082 5.867-5.1336 1.9528-0.63501 4.9202-0.71602 6.8448 0 1.998 0.74336 4.794 2.4797 6.1114 4.1558 1.9863 2.5271 3.1569 5.4315 3.9113 8.556 0.46476 1.9248 1.508 7.7986 1.4668 9.7783-0.0367 1.7612-0.24446 7.3337-0.24446 7.3337l-3.6669 6.1114-0.0913-0.27832 0.27391-10.135v-4.2456l-1.9174-6.5738-3.15-4.2456-3.6978-0.54782-3.5608 1.7804-1.5065 3.8347 0.27391 4.6565 2.1309 4.9981z" fill="#ddad00"/>
			<g transform="translate(-20.418 559.64)" fill="none" stroke="#806600" stroke-width="2.2008">
				<path d="m502.05 263.92c0.574-5.3965 0.2684-15.575-2.5708-20.2-0.9594-1.5628-3.3097-3.3828-5.1418-3.3054-1.8055 0.0762-4.29 0.60986-5.1418 2.2036-0.7808 1.4608-1.2877 4.5977-1.1018 6.2436 0.2582 2.2861 2.9382 6.9781 2.9382 6.9781s-9.6038-1.9274-12.854-4.4072c-3.2162-2.4536-6.6875-7.1048-7.7126-11.018-0.3517-1.3425-1.7247-5.6844 9e-3 -10.893 1.0064-3.0232 4.0336-7.0688 6.3762-9.085 6.1173-5.2652 17.996-3.7346 20.426-2.4258 3.2127 1.7309 7.1281 5.4119 8.4472 8.8145 1.024 2.6412 3.1525 10.437 3.6727 13.222 1.0616 5.6828 1.3699 7.8267 1.8364 13.589 0.3202 3.9551 1.2029 7.5063 0.3672 11.385-0.4502 2.0899-1.0125 6.8862-2.2337 10.045-1.2278 3.1752-3.1176 4.7106-4.7444 6.1153-3.3233 2.8695-13.956 4.4072-13.956 4.4072s5.8421-7.3697 7.3454-10.651c1.7852-3.8962 3.5866-6.7564 4.0399-11.018z"/>
				<path d="m528.09 263.92c-0.574-5.3965-0.2684-15.575 2.5708-20.2 0.9594-1.5628 3.3097-3.3828 5.1418-3.3054 1.8055 0.0762 4.29 0.60986 5.1418 2.2036 0.7808 1.4608 1.2877 4.5977 1.1018 6.2436-0.2582 2.2861-2.9382 6.9781-2.9382 6.9781s9.6038-1.9274 12.854-4.4072c3.2162-2.4536 6.6875-7.1048 7.7126-11.018 0.3517-1.3425 1.7247-5.6844-9e-3 -10.893-1.0064-3.0232-4.0336-7.0688-6.3762-9.085-6.1173-5.2652-17.996-3.7346-20.426-2.4258-3.2127 1.7309-7.1281 5.4119-8.4472 8.8145-1.024 2.6412-3.1525 10.437-3.6727 13.222-1.0616 5.6828-1.3699 7.8267-1.8364 13.589-0.3202 3.9551-1.2029 7.5063-0.3672 11.385 0.4502 2.0899 1.0125 6.8862 2.2337 10.045 1.2278 3.1752 3.1176 4.7106 4.7444 6.1153 3.3233 2.8695 13.956 4.4072 13.956 4.4072s-5.8421-7.3697-7.3454-10.651c-1.7852-3.8962-3.5866-6.7564-4.0399-11.018z"/>
			</g>
			<path d="m455.61 801.25s0.47536-3.7641 0.89556-5.5972c0.51681-2.2546 1.6543-5.3763 3.3583-6.9406 1.8011-1.6534 4.5296-2.952 6.9405-3.3583 2.1205-0.35741 5.0796-0.30279 7.1644 0.22389 1.6018 0.40464 3.5156 1.6018 4.9255 2.4628 1.0663 0.65111 3.3583 2.4628 3.3583 2.4628s-4.166-6.6066-6.9405-8.2839c-2.7058-1.6357-7.1381-2.3214-10.299-2.2389-2.2967 0.06-4.8037 1.1904-6.7166 2.4628-2.271 1.5105-4.7093 4.5855-5.5972 7.1644-0.63413 1.8417-0.55613 4.626 0 6.4928 0.59571 1.9996 2.9105 5.1494 2.9105 5.1494z" fill="#fff2ac"/>
			<path d="m513.82 785.13s5.6885-0.93856 8.06-0.44777c2.9414 0.60875 6.807 2.3786 8.9555 4.4778 1.8482 1.8058 4.03 7.6122 4.03 7.6122s0.18074-6.0936-0.67167-8.5078c-0.51482-1.4581-1.7324-3.2524-2.9106-4.2539-1.8086-1.5374-4.7909-3.3248-7.1644-3.3583-1.2464-0.0176-4.0996-0.0809-5.7897 0.69266-2.8779 1.3172-4.5092 3.7851-4.5092 3.7851z" fill="#fff2ac"/>
			<g transform="translate(5e-6)">
				<g transform="translate(-15.418 9.6386)">
					<path d="m510 854s8.5808-7.0378 10-15c1.2766-7.1623-4.4103-15.552-4.8413-18.925-1.7237-13.492 1.9294-31.467 2.2586-32.936 1.308-5.8361 2.954-8.3331 3.8303-10.244 0.63083-1.3757 2.4333-4.1112 4.2357-6.7632 1.0343-1.5218 3.3378-4.3551 4.5112-7.2369 1.2437-3.0544 1.329-6.1633 1.347-7.823 0.0307-2.8265-0.50296-5.2308-1.2532-7.5322-0.71305-2.1876-3.0366-5.7678-6.4037-7.8256-3.63-2.2184-6.5648-4.0018-7.6816-4.7081-3.689-2.333-5.9595-10.006-6.003-10.006-0.0434 0-2.3141 7.6732-6.003 10.006-1.1168 0.70627-3.9176 2.4898-7.5476 4.7081-3.3671 2.0578-5.6907 5.6379-6.4037 7.8256-0.75028 2.3014-1.284 4.7057-1.2532 7.5322 0.018 1.6597 0.10326 4.7686 1.347 7.823 1.1734 2.8818 3.4769 5.7151 4.5112 7.2369 1.8024 2.652 3.6049 5.3875 4.2357 6.7632 0.87634 1.9111 2.5224 4.4081 3.8303 10.244 0.32927 1.4692 3.9823 19.444 2.2586 32.936-0.43102 3.3735-6.2519 11.763-4.9752 18.925 1.4192 7.9622 10 15 10 15z" fill="#ffe24b"/>
					<path d="m510 854-0.0108-127.96" fill="none" stroke="#a80" stroke-width="2.2008"/>
				</g>
				<path d="m494.84 863.38 6.9961-7.8034 2.6908-5.1126-0.53817-6.9961-1.8836-7.2652-2.9599-6.458v-10.494l1.0763-10.494 1.3454-11.571 2.9599-9.1488 4.8435-6.7271 4.0362-6.9961 1.6145-3.7672 0.80725-6.7271-1.0763-6.458-3.4068-5.4593-6.5492-4.4967s3.8802 4.3622 6.4255 8.4648c1.3666 2.2027 1.3496 4.9051 1.3779 5.5275 0.12071 2.6612-0.0818 3.8948-0.80725 6.458-0.67117 2.3713-2.0937 4.971-3.4981 6.9961-1.5735 2.269-4.3872 4.81-5.6507 7.2652-1.8115 3.52-3.0338 8.7566-3.7672 12.647-0.90035 4.7762-1.0242 11.295-1.3454 16.145-0.32585 4.9194-1.1972 11.499-0.80725 16.414 0.24795 3.125 1.5999 7.5066 2.1527 10.225 0.38233 1.8803 1.3703 4.2857 1.6145 6.1889 0.23625 1.8416 0.25266 4.3495 0 6.1889-0.28519 2.0762-1.0834 4.7901-1.8836 6.727-0.88312 2.1378-3.7672 6.7271-3.7672 6.7271z" fill="#ddad00"/>
				<path d="m485.42 851.54s0.16406-4.1762 0.53817-5.9198c0.5195-2.4212 1.8197-5.4854 2.6908-7.8034 0.82791-2.2031 2.4715-4.963 2.9599-7.2652 1.0727-5.0564 0.83937-12.061 0.53817-17.221-0.22353-3.8294-1.3442-8.8491-1.8836-12.647-0.42382-2.984-1.2165-7.6293-2.1527-10.494-0.99855-3.0558-2.6338-6.957-4.3053-9.7032-1.4202-2.3333-3.3439-4.6292-5.1126-6.7108-1.368-1.61-5.1126-4.8435-5.1126-4.8435l0.52033 0.19614 0.61759 2.8821 2.4704 4.1173 2.4704 4.529 4.1173 6.3818 2.6762 6.7935 1.441 7.2052 1.2352 9.8815 0.61759 9.8815v9.2639l-2.2645 4.7349-2.6762 7.2052-0.82345 5.9701 1.4378 3.5662z" fill="#ddad00"/>
				<path d="m494.58 863.64s8.5808-7.0378 10-15c1.2766-7.1623-4.4103-15.552-4.8413-18.925-1.7237-13.492 1.9294-31.467 2.2586-32.936 1.308-5.8361 2.954-8.3331 3.8303-10.244 0.63083-1.3757 2.4333-4.1112 4.2357-6.7632 1.0343-1.5218 3.3378-4.3551 4.5112-7.2369 1.2437-3.0544 1.329-6.1633 1.347-7.823 0.0307-2.8265-0.50296-5.2308-1.2532-7.5322-0.71305-2.1876-3.0366-5.7678-6.4037-7.8256-3.63-2.2184-6.5648-4.0018-7.6816-4.7081-3.689-2.333-5.9595-10.006-6.003-10.006-0.0434 0-2.3141 7.6732-6.003 10.006-1.1168 0.70627-3.9176 2.4898-7.5476 4.7081-3.3671 2.0578-5.6907 5.6379-6.4037 7.8256-0.75028 2.3014-1.284 4.7057-1.2532 7.5322 0.018 1.6597 0.10326 4.7686 1.347 7.823 1.1734 2.8818 3.4769 5.7151 4.5112 7.2369 1.8024 2.652 3.6049 5.3875 4.2357 6.7632 0.87634 1.9111 2.5224 4.4081 3.8303 10.244 0.32927 1.4692 3.9823 19.444 2.2586 32.936-0.43102 3.3735-6.2519 11.763-4.9752 18.925 1.4192 7.9622 10 15 10 15z" fill="none" stroke="#806600" stroke-width="2.2008"/>
				<path d="m489.82 781.88 0.73547-33.096s-4.1186 3.089-5.8838 4.4128c-1.3238 0.99289-3.5874 1.8754-4.4128 3.3096-1.8838 3.2734-2.7108 6.8791-1.1032 10.297 0.95085 2.0214 4.3669 4.6117 5.8838 6.2515 2.0447 2.2105 4.7806 8.8257 4.7806 8.8257z" fill="#fff2ac"/>
				<path d="m498.28 776.74v-23.903s1.3118 2.5199 2.2064 3.3096c0.73974 0.65303 2.2091 0.81009 2.9419 1.471 1.0682 0.96336 2.294 2.6342 2.5742 4.0451 0.37094 1.868-0.18379 4.5837-1.1032 6.2515-0.79178 1.4362-3.0548 2.3701-4.0451 3.6774-1.0427 1.3764-2.5742 5.1483-2.5742 5.1483z" fill="#fff2ac"/>
				<path d="m492.27 853.22c-0.30737-3.1864-0.23704-10.664-0.23704-10.664s-2.7196 4.0222-3.1745 5.8417c-0.24081 0.96324-0.48167 3.0463-0.23261 4.0074 0.56982 2.199 4.2821 6.7123 4.2821 6.7123s-0.49668-4.432-0.638-5.8971z" fill="#fff2ac"/>
			</g>
			<g transform="translate(3.5e-5)">
				<path d="m513.86 820.36-4.1277-5.7183h-30.15l-4.1434 5.7183 4.1434 5.6925h30.15l4.1277-5.6925z" fill="#ffe24b"/>
				<path d="m477.7 817.99 34.196 0.18484-2.5262-3.5736-29.883-0.0616-1.7868 3.4504z" fill="#fff2ac"/>
				<path d="m511.75 822.8-34.196-0.18484 2.5262 3.5736 29.883 0.0616 1.7868-3.4504z" fill="#ddad00"/>
				<path transform="translate(-590.36 443.37)" d="m1104.2 376.98-4.1277-5.7183h-30.15l-4.1434 5.7183 4.1434 5.6925h30.15l4.1277-5.6925z" fill="none" stroke="#806600" stroke-width="2.2008"/>
			</g>
		</g>
		<clipPath id="m">
			<path id="shield" d="m622.85 974.98c-162.61-66.793-165.26-171.31-164.61-352.19l164.61 1e-5 164.61-1e-5c0.6511 180.88-2.0029 285.4-164.61 352.19z"/>
		</clipPath>
	</defs>
	<g transform="translate(-457.15 -469.3)">


		<use xlink:href="#shield" fill="#0036b6"/>
		<path transform="matrix(1.4706 0 0 1.4134 -117.78 -163.28)" d="m592.77 680.72a89.157 109.64 0 1 1-178.31 0 89.157 109.64 0 1 1 178.31 0z" fill="#0034c0"/>
		<path transform="matrix(.86924 0 0 .94497 185.09 155.62)" d="m592.77 680.72a89.157 109.64 0 1 1-178.31 0 89.157 109.64 0 1 1 178.31 0z" fill="#003ac8"/>
		<use xlink:href="#shield" fill="url(#a)" opacity=".25"/>
		<g clip-path="url(#m)" transform="translate(.093488)">
			<g id="row">
				<use xlink:href="#fdl" transform="matrix(.45438 0 0 .45438 237.93 346.45)"/>
				<use xlink:href="#fdl" transform="matrix(.45438 0 0 .45438 291.3 346.45)"/>
				<use xlink:href="#fdl" transform="matrix(.45438 0 0 .45438 344.92 346.45)"/>
				<use xlink:href="#fdl" transform="matrix(.45438 0 0 .45438 397.89 346.45)"/>
				<use xlink:href="#fdl" transform="matrix(.45438 0 0 .45438 451.3 346.45)"/>
				<use xlink:href="#fdl" transform="matrix(.45438 0 0 .45438 504.72 346.45)"/>
				<use xlink:href="#fdl" transform="matrix(.45438 0 0 .45438 558.25 346.45)"/>
			</g>
			<use xlink:href="#row" transform="translate(26.75 -53.9)"/>
			<use xlink:href="#row" transform="translate(26.75 57.3)"/>
			<use xlink:href="#row" transform="translate(0 108.8)"/>
			<use xlink:href="#row" transform="translate(26.75 168.3)"/>
			<use xlink:href="#row" transform="translate(0 222.2)"/>
		</g>
		<use xlink:href="#shield" fill="none" stroke="#01234f" stroke-width="2.063"/>
	</g>
</svg>