<svg xmlns:dc="http://purl.org/dc/elements/1.1/" xmlns:cc="http://creativecommons.org/ns#" xmlns:rdf="http://www.w3.org/1999/02/22-rdf-syntax-ns#" xmlns:svg="http://www.w3.org/2000/svg" xmlns="http://www.w3.org/2000/svg" xmlns:xlink="http://www.w3.org/1999/xlink" xmlns:sodipodi="http://sodipodi.sourceforge.net/DTD/sodipodi-0.dtd" xmlns:inkscape="http://www.inkscape.org/namespaces/inkscape" id="svg2868" sodipodi:version="0.32" inkscape:version="0.92.4 (5da689c313, 2019-01-14)" width="330.81165" height="649.57385" version="1.0" sodipodi:docname="Arms_of_the_Kingdom_of_France.svg" inkscape:output_extension="org.inkscape.output.svg.inkscape" inkscape:export-filename="/Users/Soda/Desktop/Royal_Coat_of_Arms_of_Denmark.png" inkscape:export-xdpi="101.48267" inkscape:export-ydpi="101.48267">

	<defs id="defs2871">
		<linearGradient id="linearGradient20777">
			<stop style="stop-color:#ffffff;stop-opacity:1;" offset="0" id="stop20779"/>
			<stop style="stop-color:#ffffff;stop-opacity:0;" offset="1" id="stop20781"/>
		</linearGradient>
		<linearGradient inkscape:collect="always" id="linearGradient17967">
			<stop style="stop-color:#ffffff;stop-opacity:1;" offset="0" id="stop17969"/>
			<stop style="stop-color:#ffffff;stop-opacity:0;" offset="1" id="stop17971"/>
		</linearGradient>
		<linearGradient inkscape:collect="always" id="linearGradient17374">
			<stop style="stop-color:#ffffff;stop-opacity:1;" offset="0" id="stop17376"/>
			<stop style="stop-color:#ffffff;stop-opacity:0;" offset="1" id="stop17378"/>
		</linearGradient>
		<linearGradient inkscape:collect="always" id="linearGradient7361">
			<stop style="stop-color:#ffffff;stop-opacity:0.39919355" offset="0" id="stop7363"/>
			<stop style="stop-color:#ffffff;stop-opacity:0;" offset="1" id="stop7365"/>
		</linearGradient>
		<linearGradient id="linearGradient6170">
			<stop style="stop-color:#040911;stop-opacity:1;" offset="0" id="stop6172"/>
			<stop style="stop-color:#214478;stop-opacity:1;" offset="1" id="stop6174"/>
		</linearGradient>
		<inkscape:perspective id="perspective7908" inkscape:persp3d-origin="372.04724 : 350.78739 : 1" inkscape:vp_z="744.09448 : 526.18109 : 1" inkscape:vp_y="6.123234e-14 : 1000 : 0" inkscape:vp_x="0 : 526.18109 : 1" sodipodi:type="inkscape:persp3d"/>
		<inkscape:perspective id="perspective6678" inkscape:persp3d-origin="372.04724 : 350.78739 : 1" inkscape:vp_z="744.09448 : 526.18109 : 1" inkscape:vp_y="0 : 1000 : 0" inkscape:vp_x="0 : 526.18109 : 1" sodipodi:type="inkscape:persp3d"/>
		<inkscape:perspective id="perspective6173" inkscape:persp3d-origin="372.04724 : 350.78739 : 1" inkscape:vp_z="744.09448 : 526.18109 : 1" inkscape:vp_y="0 : 1000 : 0" inkscape:vp_x="0 : 526.18109 : 1" sodipodi:type="inkscape:persp3d"/>
		<radialGradient inkscape:collect="always" xlink:href="#linearGradient7361" id="radialGradient7367" cx="981.26038" cy="1239.6333" fx="981.26038" fy="1239.6333" r="341.65381" gradientTransform="matrix(1,0,0,1.2190702,0,-275.71718)" gradientUnits="userSpaceOnUse"/>
		<inkscape:perspective id="perspective7683" inkscape:persp3d-origin="372.04724 : 350.78739 : 1" inkscape:vp_z="744.09448 : 526.18109 : 1" inkscape:vp_y="0 : 1000 : 0" inkscape:vp_x="0 : 526.18109 : 1" sodipodi:type="inkscape:persp3d"/>
		<inkscape:perspective id="perspective9256" inkscape:persp3d-origin="372.04724 : 350.78739 : 1" inkscape:vp_z="744.09448 : 526.18109 : 1" inkscape:vp_y="0 : 1000 : 0" inkscape:vp_x="0 : 526.18109 : 1" sodipodi:type="inkscape:persp3d"/>
		<inkscape:perspective id="perspective12112" inkscape:persp3d-origin="372.04724 : 350.78739 : 1" inkscape:vp_z="744.09448 : 526.18109 : 1" inkscape:vp_y="0 : 1000 : 0" inkscape:vp_x="0 : 526.18109 : 1" sodipodi:type="inkscape:persp3d"/>
		<inkscape:perspective id="perspective8299" inkscape:persp3d-origin="372.04724 : 350.78739 : 1" inkscape:vp_z="744.09448 : 526.18109 : 1" inkscape:vp_y="0 : 1000 : 0" inkscape:vp_x="0 : 526.18109 : 1" sodipodi:type="inkscape:persp3d"/>
		<inkscape:perspective id="perspective11874" inkscape:persp3d-origin="372.04724 : 350.78739 : 1" inkscape:vp_z="744.09448 : 526.18109 : 1" inkscape:vp_y="0 : 1000 : 0" inkscape:vp_x="0 : 526.18109 : 1" sodipodi:type="inkscape:persp3d"/>
		<inkscape:perspective id="perspective5217" inkscape:persp3d-origin="372.04724 : 350.78739 : 1" inkscape:vp_z="744.09448 : 526.18109 : 1" inkscape:vp_y="0 : 1000 : 0" inkscape:vp_x="0 : 526.18109 : 1" sodipodi:type="inkscape:persp3d"/>
		<inkscape:perspective id="perspective10157" inkscape:persp3d-origin="372.04724 : 350.78739 : 1" inkscape:vp_z="744.09448 : 526.18109 : 1" inkscape:vp_y="0 : 1000 : 0" inkscape:vp_x="0 : 526.18109 : 1" sodipodi:type="inkscape:persp3d"/>
		<inkscape:perspective id="perspective10275" inkscape:persp3d-origin="372.04724 : 350.78739 : 1" inkscape:vp_z="744.09448 : 526.18109 : 1" inkscape:vp_y="0 : 1000 : 0" inkscape:vp_x="0 : 526.18109 : 1" sodipodi:type="inkscape:persp3d"/>
		<inkscape:perspective id="perspective33461" inkscape:persp3d-origin="372.04724 : 350.78739 : 1" inkscape:vp_z="744.09448 : 526.18109 : 1" inkscape:vp_y="0 : 1000 : 0" inkscape:vp_x="0 : 526.18109 : 1" sodipodi:type="inkscape:persp3d"/>
		<inkscape:perspective id="perspective33471" inkscape:persp3d-origin="372.04724 : 350.78739 : 1" inkscape:vp_z="744.09448 : 526.18109 : 1" inkscape:vp_y="0 : 1000 : 0" inkscape:vp_x="0 : 526.18109 : 1" sodipodi:type="inkscape:persp3d"/>
		<inkscape:perspective id="perspective33797" inkscape:persp3d-origin="372.04724 : 350.78739 : 1" inkscape:vp_z="744.09448 : 526.18109 : 1" inkscape:vp_y="0 : 1000 : 0" inkscape:vp_x="0 : 526.18109 : 1" sodipodi:type="inkscape:persp3d"/>
		<inkscape:perspective id="perspective10262" inkscape:persp3d-origin="372.04724 : 350.78739 : 1" inkscape:vp_z="744.09448 : 526.18109 : 1" inkscape:vp_y="0 : 1000 : 0" inkscape:vp_x="0 : 526.18109 : 1" sodipodi:type="inkscape:persp3d"/>
		<inkscape:perspective id="perspective33480" inkscape:persp3d-origin="372.04724 : 350.78739 : 1" inkscape:vp_z="744.09448 : 526.18109 : 1" inkscape:vp_y="0 : 1000 : 0" inkscape:vp_x="0 : 526.18109 : 1" sodipodi:type="inkscape:persp3d"/>
		<inkscape:perspective id="perspective7204" inkscape:persp3d-origin="372.04724 : 350.78739 : 1" inkscape:vp_z="744.09448 : 526.18109 : 1" inkscape:vp_y="0 : 1000 : 0" inkscape:vp_x="0 : 526.18109 : 1" sodipodi:type="inkscape:persp3d"/>
		<inkscape:perspective id="perspective8367" inkscape:persp3d-origin="372.04724 : 350.78739 : 1" inkscape:vp_z="744.09448 : 526.18109 : 1" inkscape:vp_y="0 : 1000 : 0" inkscape:vp_x="0 : 526.18109 : 1" sodipodi:type="inkscape:persp3d"/>
		<inkscape:perspective id="perspective8417" inkscape:persp3d-origin="372.04724 : 350.78739 : 1" inkscape:vp_z="744.09448 : 526.18109 : 1" inkscape:vp_y="0 : 1000 : 0" inkscape:vp_x="0 : 526.18109 : 1" sodipodi:type="inkscape:persp3d"/>
		<inkscape:perspective id="perspective17821" inkscape:persp3d-origin="372.04724 : 350.78739 : 1" inkscape:vp_z="744.09448 : 526.18109 : 1" inkscape:vp_y="0 : 1000 : 0" inkscape:vp_x="0 : 526.18109 : 1" sodipodi:type="inkscape:persp3d"/>
		<inkscape:perspective id="perspective41980" inkscape:persp3d-origin="372.04724 : 350.78739 : 1" inkscape:vp_z="744.09448 : 526.18109 : 1" inkscape:vp_y="0 : 1000 : 0" inkscape:vp_x="0 : 526.18109 : 1" sodipodi:type="inkscape:persp3d"/>
		<inkscape:perspective id="perspective42068" inkscape:persp3d-origin="372.04724 : 350.78739 : 1" inkscape:vp_z="744.09448 : 526.18109 : 1" inkscape:vp_y="0 : 1000 : 0" inkscape:vp_x="0 : 526.18109 : 1" sodipodi:type="inkscape:persp3d"/>
		<inkscape:perspective id="perspective14393" inkscape:persp3d-origin="372.04724 : 350.78739 : 1" inkscape:vp_z="744.09448 : 526.18109 : 1" inkscape:vp_y="0 : 1000 : 0" inkscape:vp_x="0 : 526.18109 : 1" sodipodi:type="inkscape:persp3d"/>
		<inkscape:perspective sodipodi:type="inkscape:persp3d" inkscape:vp_x="0 : 526.18109 : 1" inkscape:vp_y="0 : 1000 : 0" inkscape:vp_z="744.09448 : 526.18109 : 1" inkscape:persp3d-origin="372.04724 : 350.78739 : 1" id="perspective13824"/>
		<inkscape:perspective sodipodi:type="inkscape:persp3d" inkscape:vp_x="0 : 526.18109 : 1" inkscape:vp_y="0 : 1000 : 0" inkscape:vp_z="744.09448 : 526.18109 : 1" inkscape:persp3d-origin="372.04724 : 350.78739 : 1" id="perspective13822"/>
		<inkscape:perspective sodipodi:type="inkscape:persp3d" inkscape:vp_x="0 : 526.18109 : 1" inkscape:vp_y="0 : 1000 : 0" inkscape:vp_z="744.09448 : 526.18109 : 1" inkscape:persp3d-origin="372.04724 : 350.78739 : 1" id="perspective13820"/>
		<inkscape:perspective sodipodi:type="inkscape:persp3d" inkscape:vp_x="0 : 526.18109 : 1" inkscape:vp_y="0 : 1000 : 0" inkscape:vp_z="744.09448 : 526.18109 : 1" inkscape:persp3d-origin="372.04724 : 350.78739 : 1" id="perspective13817"/>
		<inkscape:perspective sodipodi:type="inkscape:persp3d" inkscape:vp_x="0 : 526.18109 : 1" inkscape:vp_y="0 : 1000 : 0" inkscape:vp_z="744.09448 : 526.18109 : 1" inkscape:persp3d-origin="372.04724 : 350.78739 : 1" id="perspective13815"/>
		<inkscape:perspective sodipodi:type="inkscape:persp3d" inkscape:vp_x="0 : 526.18109 : 1" inkscape:vp_y="0 : 1000 : 0" inkscape:vp_z="744.09448 : 526.18109 : 1" inkscape:persp3d-origin="372.04724 : 350.78739 : 1" id="perspective13813"/>
		<inkscape:perspective sodipodi:type="inkscape:persp3d" inkscape:vp_x="0 : 526.18109 : 1" inkscape:vp_y="0 : 1000 : 0" inkscape:vp_z="744.09448 : 526.18109 : 1" inkscape:persp3d-origin="372.04724 : 350.78739 : 1" id="perspective13811"/>
		<inkscape:perspective sodipodi:type="inkscape:persp3d" inkscape:vp_x="0 : 526.18109 : 1" inkscape:vp_y="0 : 1000 : 0" inkscape:vp_z="744.09448 : 526.18109 : 1" inkscape:persp3d-origin="372.04724 : 350.78739 : 1" id="perspective13809"/>
		<inkscape:perspective sodipodi:type="inkscape:persp3d" inkscape:vp_x="0 : 526.18109 : 1" inkscape:vp_y="0 : 1000 : 0" inkscape:vp_z="744.09448 : 526.18109 : 1" inkscape:persp3d-origin="372.04724 : 350.78739 : 1" id="perspective13807"/>
		<inkscape:perspective sodipodi:type="inkscape:persp3d" inkscape:vp_x="0 : 526.18109 : 1" inkscape:vp_y="0 : 1000 : 0" inkscape:vp_z="744.09448 : 526.18109 : 1" inkscape:persp3d-origin="372.04724 : 350.78739 : 1" id="perspective13805"/>
		<inkscape:perspective sodipodi:type="inkscape:persp3d" inkscape:vp_x="0 : 526.18109 : 1" inkscape:vp_y="0 : 1000 : 0" inkscape:vp_z="744.09448 : 526.18109 : 1" inkscape:persp3d-origin="372.04724 : 350.78739 : 1" id="perspective13803"/>
		<radialGradient gradientUnits="userSpaceOnUse" gradientTransform="matrix(1,0,0,1.2190702,0,-275.71718)" r="341.65381" fy="1239.6333" fx="981.26038" cy="1239.6333" cx="981.26038" id="radialGradient13801" xlink:href="#linearGradient7361" inkscape:collect="always"/>
		<inkscape:perspective sodipodi:type="inkscape:persp3d" inkscape:vp_x="0 : 526.18109 : 1" inkscape:vp_y="0 : 1000 : 0" inkscape:vp_z="744.09448 : 526.18109 : 1" inkscape:persp3d-origin="372.04724 : 350.78739 : 1" id="perspective13799"/>
		<inkscape:perspective sodipodi:type="inkscape:persp3d" inkscape:vp_x="0 : 526.18109 : 1" inkscape:vp_y="0 : 1000 : 0" inkscape:vp_z="744.09448 : 526.18109 : 1" inkscape:persp3d-origin="372.04724 : 350.78739 : 1" id="perspective13797"/>
		<inkscape:perspective sodipodi:type="inkscape:persp3d" inkscape:vp_x="0 : 526.18109 : 1" inkscape:vp_y="6.123234e-14 : 1000 : 0" inkscape:vp_z="744.09448 : 526.18109 : 1" inkscape:persp3d-origin="372.04724 : 350.78739 : 1" id="perspective13795"/>
		<linearGradient id="linearGradient13789">
			<stop id="stop13791" offset="0" style="stop-color:#040911;stop-opacity:1;"/>
			<stop id="stop13793" offset="1" style="stop-color:#214478;stop-opacity:1;"/>
		</linearGradient>
		<inkscape:perspective id="perspective46899" inkscape:persp3d-origin="372.04724 : 350.78739 : 1" inkscape:vp_z="744.09448 : 526.18109 : 1" inkscape:vp_y="0 : 1000 : 0" inkscape:vp_x="0 : 526.18109 : 1" sodipodi:type="inkscape:persp3d"/>
		<inkscape:perspective id="perspective11170" inkscape:persp3d-origin="372.04724 : 350.78739 : 1" inkscape:vp_z="744.09448 : 526.18109 : 1" inkscape:vp_y="0 : 1000 : 0" inkscape:vp_x="0 : 526.18109 : 1" sodipodi:type="inkscape:persp3d"/>
		<inkscape:perspective sodipodi:type="inkscape:persp3d" inkscape:vp_x="0 : 526.18109 : 1" inkscape:vp_y="0 : 1000 : 0" inkscape:vp_z="744.09448 : 526.18109 : 1" inkscape:persp3d-origin="372.04724 : 350.78739 : 1" id="perspective13634"/>
		<inkscape:perspective id="perspective9786" inkscape:persp3d-origin="372.04724 : 350.78739 : 1" inkscape:vp_z="744.09448 : 526.18109 : 1" inkscape:vp_y="0 : 1000 : 0" inkscape:vp_x="0 : 526.18109 : 1" sodipodi:type="inkscape:persp3d"/>
		<inkscape:perspective id="perspective381" inkscape:persp3d-origin="790.5 : 312.33333 : 1" inkscape:vp_z="1581 : 468.5 : 1" inkscape:vp_y="0 : 1000 : 0" inkscape:vp_x="0 : 468.5 : 1" sodipodi:type="inkscape:persp3d"/>
		<radialGradient inkscape:collect="always" xlink:href="#linearGradient17374" id="radialGradient28485" gradientUnits="userSpaceOnUse" gradientTransform="matrix(1,0,0,1.2034488,0,-142.84628)" cx="499.4678" cy="702.12396" fx="499.4678" fy="702.12396" r="150.48407"/>
		<radialGradient inkscape:collect="always" xlink:href="#linearGradient17967" id="radialGradient29083" gradientUnits="userSpaceOnUse" gradientTransform="matrix(0.8149032,0,0,1.2043349,339.18349,-43.43524)" cx="499.4678" cy="702.12396" fx="499.4678" fy="702.12396" r="149.83147"/>
		<radialGradient inkscape:collect="always" xlink:href="#linearGradient17374" id="radialGradient30899" gradientUnits="userSpaceOnUse" gradientTransform="matrix(1,0,0,1.2034488,0,-142.84628)" cx="499.4678" cy="702.12396" fx="499.4678" fy="702.12396" r="150.48407"/>
		<radialGradient inkscape:collect="always" xlink:href="#linearGradient17967" id="radialGradient31341" gradientUnits="userSpaceOnUse" gradientTransform="matrix(0.8149032,0,0,1.2043349,339.18349,-43.43524)" cx="499.4678" cy="702.12396" fx="499.4678" fy="702.12396" r="149.83147"/>
		<radialGradient inkscape:collect="always" xlink:href="#linearGradient20777" id="radialGradient12698" gradientUnits="userSpaceOnUse" gradientTransform="matrix(0.8083831,0,0,1.2035793,219.08727,-40.13143)" cx="499.4678" cy="702.12396" fx="499.4678" fy="702.12396" r="150.38757"/>
		<radialGradient inkscape:collect="always" xlink:href="#linearGradient20777" id="radialGradient11268" gradientUnits="userSpaceOnUse" gradientTransform="matrix(0.8083831,0,0,1.2035793,219.08727,-40.13143)" cx="499.4678" cy="702.12396" fx="499.4678" fy="702.12396" r="150.38757"/>
		<radialGradient inkscape:collect="always" xlink:href="#linearGradient20777" id="radialGradient11810" gradientUnits="userSpaceOnUse" gradientTransform="matrix(0.8083831,0,0,1.2035793,219.08727,-40.13143)" cx="499.4678" cy="702.12396" fx="499.4678" fy="702.12396" r="150.38757"/>
		<radialGradient inkscape:collect="always" xlink:href="#linearGradient20777" id="radialGradient12354" gradientUnits="userSpaceOnUse" gradientTransform="matrix(0.8083831,0,0,1.2035793,219.08727,-40.13143)" cx="499.4678" cy="702.12396" fx="499.4678" fy="702.12396" r="150.38757"/>
		<radialGradient inkscape:collect="always" xlink:href="#linearGradient20777" id="radialGradient12896" gradientUnits="userSpaceOnUse" gradientTransform="matrix(0.8083831,0,0,1.2035793,219.08727,-40.13143)" cx="499.4678" cy="702.12396" fx="499.4678" fy="702.12396" r="150.38757"/>
	</defs>

	<g inkscape:groupmode="layer" id="layer4" inkscape:label="Supporters" style="display:inline" transform="translate(-457.44278,-336.37862)">










		<g id="g12588" transform="translate(-2.8671277e-6)">

			<g transform="matrix(1.3212169,0,0,1,-200.0695,0)" id="g12847">
				<g transform="matrix(0.8083831,0,0,1,219.08727,102.80651)" id="g6460">
					<path inkscape:connector-curvature="0" sodipodi:nodetypes="ccccssscsssscc" id="path5776" d="m 349.7245,521.67673 h 149.75939 149.75952 v 231.67353 c 0,0 0.12569,6.632 0,16.84904 -0.15879,12.92634 -1.96482,31.64661 -18.71982,50.547 -21.72448,24.50621 -81.41028,37.81362 -83.0838,37.88625 -10.75224,0.46623 -47.9559,23.9387 -47.9559,23.9387 0,0 -36.53336,-23.44529 -47.90606,-23.9387 -32.74585,-1.42079 -60.58536,-12.11183 -83.1333,-37.88625 -10.08192,-11.5246 -14.74487,-23.05382 -16.90118,-33.24099 -1.35729,-6.41252 -1.72144,-12.29319 -1.81885,-17.30601 -0.19832,-10.20937 0,-16.84904 0,-16.84904 z" style="display:inline;overflow:visible;visibility:visible;fill:#0036b6;fill-opacity:1;fill-rule:evenodd;stroke:#01234f;stroke-width:1.11222172;stroke-linecap:butt;stroke-linejoin:miter;stroke-miterlimit:4;stroke-dasharray:none;stroke-dashoffset:0;stroke-opacity:1;marker:none;enable-background:accumulate"/>
					<ellipse ry="109.63856" rx="89.156624" cy="680.7229" cx="503.61447" style="display:inline;overflow:visible;visibility:visible;fill:#0035c2;fill-opacity:1;fill-rule:evenodd;stroke:none;stroke-width:1.29999995;marker:none;enable-background:accumulate" id="path6456" transform="matrix(1.3769196,0,0,1.3284839,-193.96882,-202.20542)"/>
					<ellipse ry="109.63856" rx="89.156624" cy="680.7229" cx="503.61447" style="display:inline;overflow:visible;visibility:visible;fill:#0038c4;fill-opacity:1;fill-rule:evenodd;stroke:none;stroke-width:1.29999995;marker:none;enable-background:accumulate" id="path6458" transform="matrix(0.8138559,0,0,0.8881736,89.598206,97.523881)"/>
				</g>
				<path inkscape:connector-curvature="0" sodipodi:nodetypes="ccccssscsssscc" id="path20775" d="m 501.79865,624.48324 h 121.06296 121.06306 v 231.67353 c 0,0 0.10161,6.632 0,16.84904 -0.12836,12.92634 -1.58833,31.64661 -15.13279,50.547 -17.5617,24.50621 -65.81069,37.81362 -67.16354,37.88625 -8.69192,0.46623 -38.76673,23.9387 -38.76673,23.9387 0,0 -29.53296,-23.44529 -38.72645,-23.9387 -26.4712,-1.42079 -48.97619,-12.11183 -67.20356,-37.88625 -8.15005,-11.5246 -11.9195,-23.05382 -13.66263,-33.24099 -1.09721,-6.41252 -1.39158,-12.29319 -1.47032,-17.30601 -0.16032,-10.20937 0,-16.84904 0,-16.84904 z" style="display:inline;overflow:visible;visibility:visible;opacity:0.20967742;fill:url(#radialGradient12896);fill-opacity:1;fill-rule:evenodd;stroke:none;stroke-width:1.11222172;marker:none;enable-background:accumulate"/>
			</g>
			<g id="g12486">
				<g id="g12418" transform="translate(6.7447595)">
					<g style="display:inline" id="g5552" transform="translate(39.64598,-67.207528)">
						<g id="g5555">
							<g id="g5557" transform="translate(-20.41842,559.63855)" style="stroke-width:1.29999995;stroke-miterlimit:4;stroke-dasharray:none">
								<path inkscape:connector-curvature="0" sodipodi:nodetypes="csssscssssssssssscss" id="path5559" d="m 502.0459,263.91545 c 0.574,-5.39646 0.2684,-15.5749 -2.5708,-20.19983 -0.9594,-1.56279 -3.3097,-3.38275 -5.1418,-3.30542 -1.8055,0.0762 -4.29,0.60986 -5.1418,2.20361 -0.7808,1.46083 -1.2877,4.59767 -1.1018,6.24359 0.2582,2.28612 2.9382,6.97812 2.9382,6.97812 0,0 -9.6038,-1.92736 -12.8545,-4.40724 -3.2162,-2.45361 -6.6875,-7.10482 -7.7126,-11.01809 -0.3517,-1.34254 -1.7247,-5.68443 0.009,-10.89262 1.0064,-3.02315 4.0336,-7.06875 6.3762,-9.08505 6.1173,-5.2652 17.9963,-3.73456 20.4255,-2.42577 3.2127,1.73091 7.1281,5.41194 8.4472,8.81447 1.024,2.64119 3.1525,10.43714 3.6727,13.22171 1.0616,5.68278 1.3699,7.82674 1.8364,13.58897 0.3202,3.9551 1.2029,7.50631 0.3672,11.38536 -0.4502,2.08989 -1.0125,6.88623 -2.2337,10.04454 -1.2278,3.17525 -3.1176,4.71065 -4.7444,6.11532 -3.3233,2.86953 -13.9563,4.40725 -13.9563,4.40725 0,0 5.8421,-7.36967 7.3454,-10.65082 1.7852,-3.89624 3.5866,-6.7564 4.0399,-11.0181 z" style="fill:#ffe24b;fill-opacity:1;fill-rule:evenodd;stroke:none"/>
								<path inkscape:connector-curvature="0" sodipodi:nodetypes="csssscssssssssssscss" id="path5561" d="m 528.08801,263.91545 c -0.574,-5.39646 -0.2684,-15.5749 2.5708,-20.19983 0.9594,-1.56279 3.3097,-3.38275 5.1418,-3.30542 1.8055,0.0762 4.29,0.60986 5.1418,2.20361 0.7808,1.46083 1.2877,4.59767 1.1018,6.24359 -0.2582,2.28612 -2.9382,6.97812 -2.9382,6.97812 0,0 9.6038,-1.92736 12.8545,-4.40724 3.2162,-2.45361 6.6875,-7.10482 7.7126,-11.01809 0.3517,-1.34254 1.7247,-5.68443 -0.009,-10.89262 -1.0064,-3.02315 -4.0336,-7.06875 -6.3762,-9.08505 -6.1173,-5.2652 -17.9963,-3.73456 -20.4255,-2.42577 -3.2127,1.73091 -7.1281,5.41194 -8.4472,8.81447 -1.024,2.64119 -3.1525,10.43714 -3.6727,13.22171 -1.0616,5.68278 -1.3699,7.82674 -1.8364,13.58897 -0.3202,3.9551 -1.2029,7.50631 -0.3672,11.38536 0.4502,2.08989 1.0125,6.88623 2.2337,10.04454 1.2278,3.17525 3.1176,4.71065 4.7444,6.11532 3.3233,2.86953 13.9563,4.40725 13.9563,4.40725 0,0 -5.8421,-7.36967 -7.3454,-10.65082 -1.7852,-3.89624 -3.5866,-6.7564 -4.0399,-11.0181 z" style="display:inline;fill:#ffe24b;fill-opacity:1;fill-rule:evenodd;stroke:none"/>
							</g>
							<path inkscape:connector-curvature="0" id="path5563" style="fill:#ddad00;fill-opacity:1;fill-rule:evenodd;stroke:none" d="m 517.54706,844.61882 -2.80137,-0.0446 -8.97216,-2.81983 -10.7666,-9.48485 -7.94677,7.56225 -5.3833,2.56347 -6.15233,2.05078 -4.08412,0.27769 c 0,0 7.23206,-4.86811 9.72798,-7.60551 1.78505,-1.95775 3.60515,-5.05182 4.77556,-7.42864 2.01675,-4.09553 5.12929,-14.32667 5.23761,-14.39691 l 2.29241,-0.3439 4.42181,0.35374 c 0,0 3.11254,10.23114 5.12929,14.32667 1.17041,2.37682 2.99051,5.47089 4.77556,7.42864 2.49592,2.7374 9.74643,7.56096 9.74643,7.56096 z" sodipodi:nodetypes="ccccccccsscccssc"/>
							<path inkscape:connector-curvature="0" style="fill:#ddad00;fill-opacity:1;fill-rule:evenodd;stroke:none" d="m 518.98386,815.22346 c 0,0 5.46203,-2.30385 7.08927,-4.15578 1.73525,-1.97487 2.89854,-5.49092 3.42241,-8.06711 0.39458,-1.9404 -0.56822,-6.05815 -1.46675,-7.82265 -1.35792,-2.66665 -3.02118,-4.2082 -5.86699,-5.13361 -1.95279,-0.63501 -4.92025,-0.71602 -6.84481,0 -1.99803,0.74336 -4.79405,2.47971 -6.11144,4.15578 -1.98632,2.52713 -3.15688,5.4315 -3.91133,8.55603 -0.46476,1.92479 -1.50797,7.79863 -1.46675,9.77831 0.0367,1.76124 0.24446,7.33373 0.24446,7.33373 l 3.66687,6.11144 0.0913,-0.27832 -0.27391,-10.13469 v -4.24562 l 1.91738,-6.57385 3.14997,-4.24561 3.69779,-0.54782 3.56083,1.78042 1.50651,3.83474 -0.27391,4.65648 z" id="path5565" sodipodi:nodetypes="csssssssscc"/>
							<path inkscape:connector-curvature="0" style="display:inline;fill:#ddad00;fill-opacity:1;fill-rule:evenodd;stroke:none" d="m 470.32717,815.21194 c 0,0 -5.46203,-2.30385 -7.08927,-4.15578 -1.73525,-1.97487 -2.89854,-5.49092 -3.42241,-8.06711 -0.39458,-1.9404 0.56822,-6.05815 1.46675,-7.82265 1.35792,-2.66665 3.02118,-4.2082 5.86699,-5.13361 1.95279,-0.63501 4.92025,-0.71602 6.84481,0 1.99803,0.74336 4.79405,2.47971 6.11144,4.15578 1.98632,2.52713 3.15688,5.4315 3.91133,8.55603 0.46476,1.92479 1.50797,7.79863 1.46675,9.77831 -0.0367,1.76124 -0.24446,7.33373 -0.24446,7.33373 l -3.66687,6.11144 -0.0913,-0.27832 0.27391,-10.13469 v -4.24562 l -1.91738,-6.57385 -3.14997,-4.24561 -3.69779,-0.54782 -3.56083,1.78042 -1.50651,3.83474 0.27391,4.65648 z" id="path5567" sodipodi:nodetypes="csssssssscc"/>
							<g id="g5569" transform="translate(-20.41842,559.63855)" style="display:inline;fill:none;stroke-width:1.29999995;stroke-miterlimit:4;stroke-dasharray:none">
								<path inkscape:connector-curvature="0" sodipodi:nodetypes="csssscssssssssssscss" id="path5571" d="m 502.0459,263.91545 c 0.574,-5.39646 0.2684,-15.5749 -2.5708,-20.19983 -0.9594,-1.56279 -3.3097,-3.38275 -5.1418,-3.30542 -1.8055,0.0762 -4.29,0.60986 -5.1418,2.20361 -0.7808,1.46083 -1.2877,4.59767 -1.1018,6.24359 0.2582,2.28612 2.9382,6.97812 2.9382,6.97812 0,0 -9.6038,-1.92736 -12.8545,-4.40724 -3.2162,-2.45361 -6.6875,-7.10482 -7.7126,-11.01809 -0.3517,-1.34254 -1.7247,-5.68443 0.009,-10.89262 1.0064,-3.02315 4.0336,-7.06875 6.3762,-9.08505 6.1173,-5.2652 17.9963,-3.73456 20.4255,-2.42577 3.2127,1.73091 7.1281,5.41194 8.4472,8.81447 1.024,2.64119 3.1525,10.43714 3.6727,13.22171 1.0616,5.68278 1.3699,7.82674 1.8364,13.58897 0.3202,3.9551 1.2029,7.50631 0.3672,11.38536 -0.4502,2.08989 -1.0125,6.88623 -2.2337,10.04454 -1.2278,3.17525 -3.1176,4.71065 -4.7444,6.11532 -3.3233,2.86953 -13.9563,4.40725 -13.9563,4.40725 0,0 5.8421,-7.36967 7.3454,-10.65082 1.7852,-3.89624 3.5866,-6.7564 4.0399,-11.0181 z" style="fill:none;stroke:#554400;stroke-width:1.29999995;stroke-linecap:butt;stroke-linejoin:miter;stroke-miterlimit:4;stroke-dasharray:none;stroke-opacity:1"/>
								<path inkscape:connector-curvature="0" sodipodi:nodetypes="csssscssssssssssscss" id="path5573" d="m 528.08801,263.91545 c -0.574,-5.39646 -0.2684,-15.5749 2.5708,-20.19983 0.9594,-1.56279 3.3097,-3.38275 5.1418,-3.30542 1.8055,0.0762 4.29,0.60986 5.1418,2.20361 0.7808,1.46083 1.2877,4.59767 1.1018,6.24359 -0.2582,2.28612 -2.9382,6.97812 -2.9382,6.97812 0,0 9.6038,-1.92736 12.8545,-4.40724 3.2162,-2.45361 6.6875,-7.10482 7.7126,-11.01809 0.3517,-1.34254 1.7247,-5.68443 -0.009,-10.89262 -1.0064,-3.02315 -4.0336,-7.06875 -6.3762,-9.08505 -6.1173,-5.2652 -17.9963,-3.73456 -20.4255,-2.42577 -3.2127,1.73091 -7.1281,5.41194 -8.4472,8.81447 -1.024,2.64119 -3.1525,10.43714 -3.6727,13.22171 -1.0616,5.68278 -1.3699,7.82674 -1.8364,13.58897 -0.3202,3.9551 -1.2029,7.50631 -0.3672,11.38536 0.4502,2.08989 1.0125,6.88623 2.2337,10.04454 1.2278,3.17525 3.1176,4.71065 4.7444,6.11532 3.3233,2.86953 13.9563,4.40725 13.9563,4.40725 0,0 -5.8421,-7.36967 -7.3454,-10.65082 -1.7852,-3.89624 -3.5866,-6.7564 -4.0399,-11.0181 z" style="display:inline;fill:none;stroke:#554400;stroke-width:1.29999995;stroke-linecap:butt;stroke-linejoin:miter;stroke-miterlimit:4;stroke-dasharray:none;stroke-opacity:1"/>
							</g>
							<path inkscape:connector-curvature="0" style="fill:#fff2ac;fill-opacity:1;fill-rule:evenodd;stroke:none" d="m 455.61301,801.25465 c 0,0 0.47536,-3.76408 0.89556,-5.5972 0.51681,-2.25464 1.65434,-5.3763 3.35833,-6.94055 1.80107,-1.65338 4.52965,-2.95197 6.94054,-3.35833 2.12047,-0.35741 5.07955,-0.30279 7.16443,0.22389 1.60176,0.40464 3.51555,1.60179 4.92554,2.46277 1.06629,0.65111 3.35833,2.46278 3.35833,2.46278 0,0 -4.16597,-6.60661 -6.94054,-8.28388 -2.70584,-1.63572 -7.13812,-2.32138 -10.29887,-2.23888 -2.29667,0.06 -4.80369,1.19045 -6.71665,2.46278 -2.27105,1.51049 -4.70926,4.58552 -5.59721,7.16443 -0.63413,1.84171 -0.55613,4.626 0,6.49276 0.59571,1.99964 2.91054,5.14943 2.91054,5.14943 z" id="path5575" sodipodi:nodetypes="cssssscsssssc"/>
							<path inkscape:connector-curvature="0" style="fill:#fff2ac;fill-opacity:1;fill-rule:evenodd;stroke:none" d="m 513.82401,785.13468 c 0,0 5.68852,-0.93856 8.05999,-0.44777 2.94145,0.60875 6.807,2.37861 8.95554,4.47777 1.84824,1.80576 4.02999,7.6122 4.02999,7.6122 0,0 0.18074,-6.09356 -0.67167,-8.50776 -0.51482,-1.45807 -1.73242,-3.25237 -2.91055,-4.25388 -1.80858,-1.53744 -4.79092,-3.32484 -7.16443,-3.35832 -1.24635,-0.0176 -4.09965,-0.0809 -5.78967,0.69266 -2.87788,1.31723 -4.5092,3.7851 -4.5092,3.7851 z" id="path5577" sodipodi:nodetypes="csscssssc"/>
						</g>
						<g transform="translate(5e-6)" id="g5579">
							<g id="g5581" transform="translate(-15.41843,9.63855)" style="stroke-width:1.29999995;stroke-miterlimit:4;stroke-dasharray:none">
								<path inkscape:connector-curvature="0" sodipodi:nodetypes="csssssssssscssssssssssc" d="m 510,854 c 0,0 8.58079,-7.03775 10,-15 1.27665,-7.16228 -4.4103,-15.5515 -4.84132,-18.92499 -1.72367,-13.49216 1.92936,-31.46657 2.25863,-32.93573 1.30797,-5.83607 2.95399,-8.33308 3.83033,-10.24414 0.63083,-1.37567 2.43333,-4.1112 4.23574,-6.76319 1.03432,-1.52175 3.33777,-4.35506 4.51118,-7.23688 1.24372,-3.0544 1.32896,-6.16333 1.34698,-7.82303 0.0307,-2.8265 -0.50296,-5.23079 -1.25324,-7.53217 -0.71305,-2.18762 -3.03665,-5.76776 -6.40372,-7.82555 -3.63004,-2.21837 -6.56481,-4.00185 -7.68157,-4.70812 C 512.31404,732.67317 510.04353,725 510,725 c -0.0434,0 -2.31409,7.67317 -6.00305,10.0062 -1.11676,0.70627 -3.91757,2.48975 -7.54761,4.70812 -3.36709,2.05779 -5.69067,5.63793 -6.40372,7.82555 -0.75028,2.30138 -1.28395,4.70567 -1.25324,7.53217 0.018,1.6597 0.10326,4.76863 1.34698,7.82303 1.1734,2.88182 3.47686,5.71513 4.51118,7.23688 1.80241,2.65199 3.60491,5.38752 4.23574,6.76319 0.87634,1.91106 2.52236,4.40807 3.83033,10.24414 0.32927,1.46916 3.9823,19.44357 2.25863,32.93573 C 504.54422,823.4485 498.72335,831.83772 500,839 c 1.41921,7.96225 10,15 10,15 z" style="display:inline;fill:#ffe24b;fill-opacity:1;fill-rule:evenodd;stroke:none" id="path5583"/>
								<path inkscape:connector-curvature="0" id="path5585" d="M 510,854 509.9892,726.04466" style="fill:none;stroke:#9e7500;stroke-width:1.29999995;stroke-linecap:butt;stroke-linejoin:miter;stroke-miterlimit:4;stroke-dasharray:none;stroke-opacity:1" sodipodi:nodetypes="cc"/>
							</g>
							<path inkscape:connector-curvature="0" style="fill:#ddad00;fill-opacity:1;fill-rule:evenodd;stroke:none" d="m 494.84211,863.37821 6.99614,-7.80339 2.69082,-5.11256 -0.53817,-6.99613 -1.88357,-7.26522 -2.95991,-6.45797 v -10.49421 l 1.07633,-10.4942 1.34541,-11.57054 2.95991,-9.14879 4.84348,-6.72706 4.03623,-6.99613 1.61449,-3.76715 0.80725,-6.72706 -1.07633,-6.45797 -3.40685,-5.45931 -6.54919,-4.49673 c 0,0 3.88019,4.36223 6.4255,8.4648 1.36661,2.20273 1.34965,4.90514 1.37788,5.52747 0.12071,2.66118 -0.0818,3.89476 -0.80725,6.45798 -0.67117,2.37126 -2.09366,4.97104 -3.49806,6.99613 -1.57353,2.26898 -4.38725,4.81004 -5.65073,7.26522 -1.81147,3.52004 -3.0338,8.75658 -3.76715,12.64686 -0.90035,4.77615 -1.02418,11.29529 -1.34541,16.14493 -0.32585,4.91938 -1.1972,11.4993 -0.80725,16.41401 0.24795,3.12496 1.5999,7.5066 2.15266,10.22513 0.38233,1.88033 1.37033,4.28568 1.61449,6.18889 0.23625,1.84157 0.25266,4.34949 0,6.18889 -0.28519,2.07624 -1.08341,4.79008 -1.88357,6.72705 -0.88312,2.13779 -3.76715,6.72706 -3.76715,6.72706 z" id="path5587" sodipodi:nodetypes="cccccccccccccccccssssssssssssc"/>
							<path inkscape:connector-curvature="0" style="fill:#ddad00;fill-opacity:1;fill-rule:evenodd;stroke:none" d="m 485.42423,851.53859 c 0,0 0.16406,-4.17623 0.53817,-5.91981 0.5195,-2.42118 1.81972,-5.48537 2.69082,-7.80338 0.82791,-2.20308 2.47146,-4.96296 2.9599,-7.26522 1.07274,-5.05636 0.83937,-12.06114 0.53817,-17.22126 -0.22353,-3.82939 -1.34418,-8.84907 -1.88358,-12.64686 -0.42382,-2.98401 -1.2165,-7.62932 -2.15266,-10.4942 -0.99855,-3.05582 -2.63382,-6.95705 -4.30531,-9.70318 -1.42022,-2.33331 -3.34386,-4.62924 -5.11256,-6.71084 -1.36803,-1.61005 -5.11256,-4.84348 -5.11256,-4.84348 l 0.52033,0.19614 0.61759,2.8821 2.47037,4.11728 2.47037,4.52901 4.11728,6.38179 2.67624,6.79351 1.44104,7.20524 1.23519,9.88148 0.61759,9.88147 v 9.26389 l -2.2645,4.73487 -2.67624,7.20524 -0.82345,5.97006 z" id="path5589" sodipodi:nodetypes="csssssssss"/>
							<path inkscape:connector-curvature="0" id="path5591" style="display:inline;fill:none;stroke:#554400;stroke-width:1.29999995;stroke-linecap:butt;stroke-linejoin:miter;stroke-miterlimit:4;stroke-dasharray:none;stroke-opacity:1" d="m 494.58157,863.63855 c 0,0 8.58079,-7.03775 10,-15 1.27665,-7.16228 -4.4103,-15.5515 -4.84132,-18.92499 -1.72367,-13.49216 1.92936,-31.46657 2.25863,-32.93573 1.30797,-5.83607 2.95399,-8.33308 3.83033,-10.24414 0.63083,-1.37567 2.43333,-4.1112 4.23574,-6.76319 1.03432,-1.52175 3.33777,-4.35506 4.51118,-7.23688 1.24372,-3.0544 1.32896,-6.16333 1.34698,-7.82303 0.0307,-2.8265 -0.50296,-5.23079 -1.25324,-7.53217 -0.71305,-2.18762 -3.03665,-5.76776 -6.40372,-7.82555 -3.63004,-2.21837 -6.56481,-4.00185 -7.68157,-4.70812 -3.68897,-2.33303 -5.95948,-10.0062 -6.00301,-10.0062 -0.0434,0 -2.31409,7.67317 -6.00305,10.0062 -1.11676,0.70627 -3.91757,2.48975 -7.54761,4.70812 -3.36709,2.05779 -5.69067,5.63793 -6.40372,7.82555 -0.75028,2.30138 -1.28395,4.70567 -1.25324,7.53217 0.018,1.6597 0.10326,4.76863 1.34698,7.82303 1.1734,2.88182 3.47686,5.71513 4.51118,7.23688 1.80241,2.65199 3.60491,5.38752 4.23574,6.76319 0.87634,1.91106 2.52236,4.40807 3.83033,10.24414 0.32927,1.46916 3.9823,19.44357 2.25863,32.93573 -0.43102,3.37349 -6.25189,11.76271 -4.97524,18.92499 1.41921,7.96225 10,15 10,15 z" sodipodi:nodetypes="csssssssssscssssssssssc"/>
							<path inkscape:connector-curvature="0" style="fill:#fff2ac;fill-opacity:1;fill-rule:evenodd;stroke:none" d="m 489.82436,781.88416 0.73547,-33.09624 c 0,0 -4.11865,3.08898 -5.88378,4.41283 -1.32385,0.99289 -3.58743,1.87537 -4.41283,3.30963 -1.88381,3.27342 -2.71082,6.87906 -1.1032,10.2966 0.95085,2.02135 4.36691,4.61167 5.88377,6.25152 2.04471,2.2105 4.78057,8.82566 4.78057,8.82566 z" id="path5593" sodipodi:nodetypes="ccssssc"/>
							<path inkscape:connector-curvature="0" style="fill:#fff2ac;fill-opacity:1;fill-rule:evenodd;stroke:none" d="m 498.28229,776.73586 v -23.90284 c 0,0 1.31182,2.51989 2.20641,3.30962 0.73974,0.65303 2.20914,0.81009 2.94189,1.47095 1.06815,0.96336 2.29399,2.63423 2.57415,4.04509 0.37094,1.86796 -0.18379,4.58372 -1.10321,6.25151 -0.79178,1.43625 -3.05477,2.37009 -4.04509,3.67737 -1.04271,1.37643 -2.57415,5.1483 -2.57415,5.1483 z" id="path5595" sodipodi:nodetypes="ccsssssc"/>
							<path inkscape:connector-curvature="0" style="fill:#fff2ac;fill-opacity:1;fill-rule:evenodd;stroke:none" d="m 492.26781,853.22495 c -0.30737,-3.18642 -0.23704,-10.66435 -0.23704,-10.66435 0,0 -2.71962,4.02223 -3.17448,5.84169 -0.24081,0.96324 -0.48167,3.0463 -0.23261,4.00744 0.56982,2.19902 4.28213,6.71229 4.28213,6.71229 0,0 -0.49668,-4.43201 -0.638,-5.89707 z" id="path5597" sodipodi:nodetypes="ccsscs"/>
						</g>
						<g transform="translate(3.5e-5)" id="g5599">
							<g id="g5601">
								<g id="g5603">
									<path inkscape:connector-curvature="0" style="display:inline;fill:#ffe24b;fill-opacity:1;fill-rule:evenodd;stroke:none" d="m 513.85885,820.35686 -4.1277,-5.71831 h -30.1496 l -4.1434,5.71831 4.1434,5.6925 h 30.1496 z" id="path5605" sodipodi:nodetypes="ccccccc"/>
									<g id="g5607">
										<g id="g5609">
											<g id="g5611">
												<path inkscape:connector-curvature="0" id="path5613" d="m 477.69652,817.99066 34.196,0.18484 -2.52619,-3.57363 -29.88299,-0.0616 -1.78682,3.45041 z" style="fill:#fff2ac;fill-opacity:1;fill-rule:evenodd;stroke:none"/>
												<path inkscape:connector-curvature="0" id="path5615" d="m 511.75052,822.80242 -34.196,-0.18484 2.52619,3.57363 29.88299,0.0616 1.78682,-3.45041 z" style="display:inline;fill:#ddad00;fill-opacity:1;fill-rule:evenodd;stroke:none"/>
												<path inkscape:connector-curvature="0" style="display:inline;fill:none;stroke:#554400;stroke-width:1.29999995;stroke-linecap:butt;stroke-linejoin:miter;stroke-miterlimit:4;stroke-dasharray:none;stroke-opacity:1" d="m 1104.2203,376.98337 -4.1277,-5.71831 h -30.1496 l -4.1434,5.71831 4.1434,5.6925 h 30.1496 z" id="path5617" sodipodi:nodetypes="ccccccc" transform="translate(-590.36145,443.37349)"/>
											</g>
										</g>
									</g>
								</g>
							</g>
						</g>
					</g>
					<g style="display:inline" id="g5619" transform="translate(203.26465,-67.207528)">
						<g id="g5621">
							<g id="g5623" transform="translate(-20.41842,559.63855)" style="stroke-width:1.29999995;stroke-miterlimit:4;stroke-dasharray:none">
								<path inkscape:connector-curvature="0" sodipodi:nodetypes="csssscssssssssssscss" id="path5625" d="m 502.0459,263.91545 c 0.574,-5.39646 0.2684,-15.5749 -2.5708,-20.19983 -0.9594,-1.56279 -3.3097,-3.38275 -5.1418,-3.30542 -1.8055,0.0762 -4.29,0.60986 -5.1418,2.20361 -0.7808,1.46083 -1.2877,4.59767 -1.1018,6.24359 0.2582,2.28612 2.9382,6.97812 2.9382,6.97812 0,0 -9.6038,-1.92736 -12.8545,-4.40724 -3.2162,-2.45361 -6.6875,-7.10482 -7.7126,-11.01809 -0.3517,-1.34254 -1.7247,-5.68443 0.009,-10.89262 1.0064,-3.02315 4.0336,-7.06875 6.3762,-9.08505 6.1173,-5.2652 17.9963,-3.73456 20.4255,-2.42577 3.2127,1.73091 7.1281,5.41194 8.4472,8.81447 1.024,2.64119 3.1525,10.43714 3.6727,13.22171 1.0616,5.68278 1.3699,7.82674 1.8364,13.58897 0.3202,3.9551 1.2029,7.50631 0.3672,11.38536 -0.4502,2.08989 -1.0125,6.88623 -2.2337,10.04454 -1.2278,3.17525 -3.1176,4.71065 -4.7444,6.11532 -3.3233,2.86953 -13.9563,4.40725 -13.9563,4.40725 0,0 5.8421,-7.36967 7.3454,-10.65082 1.7852,-3.89624 3.5866,-6.7564 4.0399,-11.0181 z" style="fill:#ffe24b;fill-opacity:1;fill-rule:evenodd;stroke:none"/>
								<path inkscape:connector-curvature="0" sodipodi:nodetypes="csssscssssssssssscss" id="path5627" d="m 528.08801,263.91545 c -0.574,-5.39646 -0.2684,-15.5749 2.5708,-20.19983 0.9594,-1.56279 3.3097,-3.38275 5.1418,-3.30542 1.8055,0.0762 4.29,0.60986 5.1418,2.20361 0.7808,1.46083 1.2877,4.59767 1.1018,6.24359 -0.2582,2.28612 -2.9382,6.97812 -2.9382,6.97812 0,0 9.6038,-1.92736 12.8545,-4.40724 3.2162,-2.45361 6.6875,-7.10482 7.7126,-11.01809 0.3517,-1.34254 1.7247,-5.68443 -0.009,-10.89262 -1.0064,-3.02315 -4.0336,-7.06875 -6.3762,-9.08505 -6.1173,-5.2652 -17.9963,-3.73456 -20.4255,-2.42577 -3.2127,1.73091 -7.1281,5.41194 -8.4472,8.81447 -1.024,2.64119 -3.1525,10.43714 -3.6727,13.22171 -1.0616,5.68278 -1.3699,7.82674 -1.8364,13.58897 -0.3202,3.9551 -1.2029,7.50631 -0.3672,11.38536 0.4502,2.08989 1.0125,6.88623 2.2337,10.04454 1.2278,3.17525 3.1176,4.71065 4.7444,6.11532 3.3233,2.86953 13.9563,4.40725 13.9563,4.40725 0,0 -5.8421,-7.36967 -7.3454,-10.65082 -1.7852,-3.89624 -3.5866,-6.7564 -4.0399,-11.0181 z" style="display:inline;fill:#ffe24b;fill-opacity:1;fill-rule:evenodd;stroke:none"/>
							</g>
							<path inkscape:connector-curvature="0" id="path5629" style="fill:#ddad00;fill-opacity:1;fill-rule:evenodd;stroke:none" d="m 517.54706,844.61882 -2.80137,-0.0446 -8.97216,-2.81983 -10.7666,-9.48485 -7.94677,7.56225 -5.3833,2.56347 -6.15233,2.05078 -4.08412,0.27769 c 0,0 7.23206,-4.86811 9.72798,-7.60551 1.78505,-1.95775 3.60515,-5.05182 4.77556,-7.42864 2.01675,-4.09553 5.12929,-14.32667 5.23761,-14.39691 l 2.29241,-0.3439 4.42181,0.35374 c 0,0 3.11254,10.23114 5.12929,14.32667 1.17041,2.37682 2.99051,5.47089 4.77556,7.42864 2.49592,2.7374 9.74643,7.56096 9.74643,7.56096 z" sodipodi:nodetypes="ccccccccsscccssc"/>
							<path inkscape:connector-curvature="0" style="fill:#ddad00;fill-opacity:1;fill-rule:evenodd;stroke:none" d="m 518.98386,815.22346 c 0,0 5.46203,-2.30385 7.08927,-4.15578 1.73525,-1.97487 2.89854,-5.49092 3.42241,-8.06711 0.39458,-1.9404 -0.56822,-6.05815 -1.46675,-7.82265 -1.35792,-2.66665 -3.02118,-4.2082 -5.86699,-5.13361 -1.95279,-0.63501 -4.92025,-0.71602 -6.84481,0 -1.99803,0.74336 -4.79405,2.47971 -6.11144,4.15578 -1.98632,2.52713 -3.15688,5.4315 -3.91133,8.55603 -0.46476,1.92479 -1.50797,7.79863 -1.46675,9.77831 0.0367,1.76124 0.24446,7.33373 0.24446,7.33373 l 3.66687,6.11144 0.0913,-0.27832 -0.27391,-10.13469 v -4.24562 l 1.91738,-6.57385 3.14997,-4.24561 3.69779,-0.54782 3.56083,1.78042 1.50651,3.83474 -0.27391,4.65648 z" id="path5631" sodipodi:nodetypes="csssssssscc"/>
							<path inkscape:connector-curvature="0" style="display:inline;fill:#ddad00;fill-opacity:1;fill-rule:evenodd;stroke:none" d="m 470.32717,815.21194 c 0,0 -5.46203,-2.30385 -7.08927,-4.15578 -1.73525,-1.97487 -2.89854,-5.49092 -3.42241,-8.06711 -0.39458,-1.9404 0.56822,-6.05815 1.46675,-7.82265 1.35792,-2.66665 3.02118,-4.2082 5.86699,-5.13361 1.95279,-0.63501 4.92025,-0.71602 6.84481,0 1.99803,0.74336 4.79405,2.47971 6.11144,4.15578 1.98632,2.52713 3.15688,5.4315 3.91133,8.55603 0.46476,1.92479 1.50797,7.79863 1.46675,9.77831 -0.0367,1.76124 -0.24446,7.33373 -0.24446,7.33373 l -3.66687,6.11144 -0.0913,-0.27832 0.27391,-10.13469 v -4.24562 l -1.91738,-6.57385 -3.14997,-4.24561 -3.69779,-0.54782 -3.56083,1.78042 -1.50651,3.83474 0.27391,4.65648 z" id="path5633" sodipodi:nodetypes="csssssssscc"/>
							<g id="g5635" transform="translate(-20.41842,559.63855)" style="display:inline;fill:none;stroke-width:1.29999995;stroke-miterlimit:4;stroke-dasharray:none">
								<path inkscape:connector-curvature="0" sodipodi:nodetypes="csssscssssssssssscss" id="path5637" d="m 502.0459,263.91545 c 0.574,-5.39646 0.2684,-15.5749 -2.5708,-20.19983 -0.9594,-1.56279 -3.3097,-3.38275 -5.1418,-3.30542 -1.8055,0.0762 -4.29,0.60986 -5.1418,2.20361 -0.7808,1.46083 -1.2877,4.59767 -1.1018,6.24359 0.2582,2.28612 2.9382,6.97812 2.9382,6.97812 0,0 -9.6038,-1.92736 -12.8545,-4.40724 -3.2162,-2.45361 -6.6875,-7.10482 -7.7126,-11.01809 -0.3517,-1.34254 -1.7247,-5.68443 0.009,-10.89262 1.0064,-3.02315 4.0336,-7.06875 6.3762,-9.08505 6.1173,-5.2652 17.9963,-3.73456 20.4255,-2.42577 3.2127,1.73091 7.1281,5.41194 8.4472,8.81447 1.024,2.64119 3.1525,10.43714 3.6727,13.22171 1.0616,5.68278 1.3699,7.82674 1.8364,13.58897 0.3202,3.9551 1.2029,7.50631 0.3672,11.38536 -0.4502,2.08989 -1.0125,6.88623 -2.2337,10.04454 -1.2278,3.17525 -3.1176,4.71065 -4.7444,6.11532 -3.3233,2.86953 -13.9563,4.40725 -13.9563,4.40725 0,0 5.8421,-7.36967 7.3454,-10.65082 1.7852,-3.89624 3.5866,-6.7564 4.0399,-11.0181 z" style="fill:none;stroke:#554400;stroke-width:1.29999995;stroke-linecap:butt;stroke-linejoin:miter;stroke-miterlimit:4;stroke-dasharray:none;stroke-opacity:1"/>
								<path inkscape:connector-curvature="0" sodipodi:nodetypes="csssscssssssssssscss" id="path5639" d="m 528.08801,263.91545 c -0.574,-5.39646 -0.2684,-15.5749 2.5708,-20.19983 0.9594,-1.56279 3.3097,-3.38275 5.1418,-3.30542 1.8055,0.0762 4.29,0.60986 5.1418,2.20361 0.7808,1.46083 1.2877,4.59767 1.1018,6.24359 -0.2582,2.28612 -2.9382,6.97812 -2.9382,6.97812 0,0 9.6038,-1.92736 12.8545,-4.40724 3.2162,-2.45361 6.6875,-7.10482 7.7126,-11.01809 0.3517,-1.34254 1.7247,-5.68443 -0.009,-10.89262 -1.0064,-3.02315 -4.0336,-7.06875 -6.3762,-9.08505 -6.1173,-5.2652 -17.9963,-3.73456 -20.4255,-2.42577 -3.2127,1.73091 -7.1281,5.41194 -8.4472,8.81447 -1.024,2.64119 -3.1525,10.43714 -3.6727,13.22171 -1.0616,5.68278 -1.3699,7.82674 -1.8364,13.58897 -0.3202,3.9551 -1.2029,7.50631 -0.3672,11.38536 0.4502,2.08989 1.0125,6.88623 2.2337,10.04454 1.2278,3.17525 3.1176,4.71065 4.7444,6.11532 3.3233,2.86953 13.9563,4.40725 13.9563,4.40725 0,0 -5.8421,-7.36967 -7.3454,-10.65082 -1.7852,-3.89624 -3.5866,-6.7564 -4.0399,-11.0181 z" style="display:inline;fill:none;stroke:#554400;stroke-width:1.29999995;stroke-linecap:butt;stroke-linejoin:miter;stroke-miterlimit:4;stroke-dasharray:none;stroke-opacity:1"/>
							</g>
							<path inkscape:connector-curvature="0" style="fill:#fff2ac;fill-opacity:1;fill-rule:evenodd;stroke:none" d="m 455.61301,801.25465 c 0,0 0.47536,-3.76408 0.89556,-5.5972 0.51681,-2.25464 1.65434,-5.3763 3.35833,-6.94055 1.80107,-1.65338 4.52965,-2.95197 6.94054,-3.35833 2.12047,-0.35741 5.07955,-0.30279 7.16443,0.22389 1.60176,0.40464 3.51555,1.60179 4.92554,2.46277 1.06629,0.65111 3.35833,2.46278 3.35833,2.46278 0,0 -4.16597,-6.60661 -6.94054,-8.28388 -2.70584,-1.63572 -7.13812,-2.32138 -10.29887,-2.23888 -2.29667,0.06 -4.80369,1.19045 -6.71665,2.46278 -2.27105,1.51049 -4.70926,4.58552 -5.59721,7.16443 -0.63413,1.84171 -0.55613,4.626 0,6.49276 0.59571,1.99964 2.91054,5.14943 2.91054,5.14943 z" id="path5641" sodipodi:nodetypes="cssssscsssssc"/>
							<path inkscape:connector-curvature="0" style="fill:#fff2ac;fill-opacity:1;fill-rule:evenodd;stroke:none" d="m 513.82401,785.13468 c 0,0 5.68852,-0.93856 8.05999,-0.44777 2.94145,0.60875 6.807,2.37861 8.95554,4.47777 1.84824,1.80576 4.02999,7.6122 4.02999,7.6122 0,0 0.18074,-6.09356 -0.67167,-8.50776 -0.51482,-1.45807 -1.73242,-3.25237 -2.91055,-4.25388 -1.80858,-1.53744 -4.79092,-3.32484 -7.16443,-3.35832 -1.24635,-0.0176 -4.09965,-0.0809 -5.78967,0.69266 -2.87788,1.31723 -4.5092,3.7851 -4.5092,3.7851 z" id="path5643" sodipodi:nodetypes="csscssssc"/>
						</g>
						<g transform="translate(5e-6)" id="g5645">
							<g id="g5647" transform="translate(-15.41843,9.63855)" style="stroke-width:1.29999995;stroke-miterlimit:4;stroke-dasharray:none">
								<path inkscape:connector-curvature="0" sodipodi:nodetypes="csssssssssscssssssssssc" d="m 510,854 c 0,0 8.58079,-7.03775 10,-15 1.27665,-7.16228 -4.4103,-15.5515 -4.84132,-18.92499 -1.72367,-13.49216 1.92936,-31.46657 2.25863,-32.93573 1.30797,-5.83607 2.95399,-8.33308 3.83033,-10.24414 0.63083,-1.37567 2.43333,-4.1112 4.23574,-6.76319 1.03432,-1.52175 3.33777,-4.35506 4.51118,-7.23688 1.24372,-3.0544 1.32896,-6.16333 1.34698,-7.82303 0.0307,-2.8265 -0.50296,-5.23079 -1.25324,-7.53217 -0.71305,-2.18762 -3.03665,-5.76776 -6.40372,-7.82555 -3.63004,-2.21837 -6.56481,-4.00185 -7.68157,-4.70812 C 512.31404,732.67317 510.04353,725 510,725 c -0.0434,0 -2.31409,7.67317 -6.00305,10.0062 -1.11676,0.70627 -3.91757,2.48975 -7.54761,4.70812 -3.36709,2.05779 -5.69067,5.63793 -6.40372,7.82555 -0.75028,2.30138 -1.28395,4.70567 -1.25324,7.53217 0.018,1.6597 0.10326,4.76863 1.34698,7.82303 1.1734,2.88182 3.47686,5.71513 4.51118,7.23688 1.80241,2.65199 3.60491,5.38752 4.23574,6.76319 0.87634,1.91106 2.52236,4.40807 3.83033,10.24414 0.32927,1.46916 3.9823,19.44357 2.25863,32.93573 C 504.54422,823.4485 498.72335,831.83772 500,839 c 1.41921,7.96225 10,15 10,15 z" style="display:inline;fill:#ffe24b;fill-opacity:1;fill-rule:evenodd;stroke:none" id="path5649"/>
								<path inkscape:connector-curvature="0" id="path5651" d="M 510,854 509.9892,726.04466" style="fill:none;stroke:#9e7500;stroke-width:1.29999995;stroke-linecap:butt;stroke-linejoin:miter;stroke-miterlimit:4;stroke-dasharray:none;stroke-opacity:1" sodipodi:nodetypes="cc"/>
							</g>
							<path inkscape:connector-curvature="0" style="fill:#ddad00;fill-opacity:1;fill-rule:evenodd;stroke:none" d="m 494.84211,863.37821 6.99614,-7.80339 2.69082,-5.11256 -0.53817,-6.99613 -1.88357,-7.26522 -2.95991,-6.45797 v -10.49421 l 1.07633,-10.4942 1.34541,-11.57054 2.95991,-9.14879 4.84348,-6.72706 4.03623,-6.99613 1.61449,-3.76715 0.80725,-6.72706 -1.07633,-6.45797 -3.40685,-5.45931 -6.54919,-4.49673 c 0,0 3.88019,4.36223 6.4255,8.4648 1.36661,2.20273 1.34965,4.90514 1.37788,5.52747 0.12071,2.66118 -0.0818,3.89476 -0.80725,6.45798 -0.67117,2.37126 -2.09366,4.97104 -3.49806,6.99613 -1.57353,2.26898 -4.38725,4.81004 -5.65073,7.26522 -1.81147,3.52004 -3.0338,8.75658 -3.76715,12.64686 -0.90035,4.77615 -1.02418,11.29529 -1.34541,16.14493 -0.32585,4.91938 -1.1972,11.4993 -0.80725,16.41401 0.24795,3.12496 1.5999,7.5066 2.15266,10.22513 0.38233,1.88033 1.37033,4.28568 1.61449,6.18889 0.23625,1.84157 0.25266,4.34949 0,6.18889 -0.28519,2.07624 -1.08341,4.79008 -1.88357,6.72705 -0.88312,2.13779 -3.76715,6.72706 -3.76715,6.72706 z" id="path5653" sodipodi:nodetypes="cccccccccccccccccssssssssssssc"/>
							<path inkscape:connector-curvature="0" style="fill:#ddad00;fill-opacity:1;fill-rule:evenodd;stroke:none" d="m 485.42423,851.53859 c 0,0 0.16406,-4.17623 0.53817,-5.91981 0.5195,-2.42118 1.81972,-5.48537 2.69082,-7.80338 0.82791,-2.20308 2.47146,-4.96296 2.9599,-7.26522 1.07274,-5.05636 0.83937,-12.06114 0.53817,-17.22126 -0.22353,-3.82939 -1.34418,-8.84907 -1.88358,-12.64686 -0.42382,-2.98401 -1.2165,-7.62932 -2.15266,-10.4942 -0.99855,-3.05582 -2.63382,-6.95705 -4.30531,-9.70318 -1.42022,-2.33331 -3.34386,-4.62924 -5.11256,-6.71084 -1.36803,-1.61005 -5.11256,-4.84348 -5.11256,-4.84348 l 0.52033,0.19614 0.61759,2.8821 2.47037,4.11728 2.47037,4.52901 4.11728,6.38179 2.67624,6.79351 1.44104,7.20524 1.23519,9.88148 0.61759,9.88147 v 9.26389 l -2.2645,4.73487 -2.67624,7.20524 -0.82345,5.97006 z" id="path5655" sodipodi:nodetypes="csssssssss"/>
							<path inkscape:connector-curvature="0" id="path5657" style="display:inline;fill:none;stroke:#554400;stroke-width:1.29999995;stroke-linecap:butt;stroke-linejoin:miter;stroke-miterlimit:4;stroke-dasharray:none;stroke-opacity:1" d="m 494.58157,863.63855 c 0,0 8.58079,-7.03775 10,-15 1.27665,-7.16228 -4.4103,-15.5515 -4.84132,-18.92499 -1.72367,-13.49216 1.92936,-31.46657 2.25863,-32.93573 1.30797,-5.83607 2.95399,-8.33308 3.83033,-10.24414 0.63083,-1.37567 2.43333,-4.1112 4.23574,-6.76319 1.03432,-1.52175 3.33777,-4.35506 4.51118,-7.23688 1.24372,-3.0544 1.32896,-6.16333 1.34698,-7.82303 0.0307,-2.8265 -0.50296,-5.23079 -1.25324,-7.53217 -0.71305,-2.18762 -3.03665,-5.76776 -6.40372,-7.82555 -3.63004,-2.21837 -6.56481,-4.00185 -7.68157,-4.70812 -3.68897,-2.33303 -5.95948,-10.0062 -6.00301,-10.0062 -0.0434,0 -2.31409,7.67317 -6.00305,10.0062 -1.11676,0.70627 -3.91757,2.48975 -7.54761,4.70812 -3.36709,2.05779 -5.69067,5.63793 -6.40372,7.82555 -0.75028,2.30138 -1.28395,4.70567 -1.25324,7.53217 0.018,1.6597 0.10326,4.76863 1.34698,7.82303 1.1734,2.88182 3.47686,5.71513 4.51118,7.23688 1.80241,2.65199 3.60491,5.38752 4.23574,6.76319 0.87634,1.91106 2.52236,4.40807 3.83033,10.24414 0.32927,1.46916 3.9823,19.44357 2.25863,32.93573 -0.43102,3.37349 -6.25189,11.76271 -4.97524,18.92499 1.41921,7.96225 10,15 10,15 z" sodipodi:nodetypes="csssssssssscssssssssssc"/>
							<path inkscape:connector-curvature="0" style="fill:#fff2ac;fill-opacity:1;fill-rule:evenodd;stroke:none" d="m 489.82436,781.88416 0.73547,-33.09624 c 0,0 -4.11865,3.08898 -5.88378,4.41283 -1.32385,0.99289 -3.58743,1.87537 -4.41283,3.30963 -1.88381,3.27342 -2.71082,6.87906 -1.1032,10.2966 0.95085,2.02135 4.36691,4.61167 5.88377,6.25152 2.04471,2.2105 4.78057,8.82566 4.78057,8.82566 z" id="path5659" sodipodi:nodetypes="ccssssc"/>
							<path inkscape:connector-curvature="0" style="fill:#fff2ac;fill-opacity:1;fill-rule:evenodd;stroke:none" d="m 498.28229,776.73586 v -23.90284 c 0,0 1.31182,2.51989 2.20641,3.30962 0.73974,0.65303 2.20914,0.81009 2.94189,1.47095 1.06815,0.96336 2.29399,2.63423 2.57415,4.04509 0.37094,1.86796 -0.18379,4.58372 -1.10321,6.25151 -0.79178,1.43625 -3.05477,2.37009 -4.04509,3.67737 -1.04271,1.37643 -2.57415,5.1483 -2.57415,5.1483 z" id="path5661" sodipodi:nodetypes="ccsssssc"/>
							<path inkscape:connector-curvature="0" style="fill:#fff2ac;fill-opacity:1;fill-rule:evenodd;stroke:none" d="m 492.26781,853.22495 c -0.30737,-3.18642 -0.23704,-10.66435 -0.23704,-10.66435 0,0 -2.71962,4.02223 -3.17448,5.84169 -0.24081,0.96324 -0.48167,3.0463 -0.23261,4.00744 0.56982,2.19902 4.28213,6.71229 4.28213,6.71229 0,0 -0.49668,-4.43201 -0.638,-5.89707 z" id="path5663" sodipodi:nodetypes="ccsscs"/>
						</g>
						<g transform="translate(3.5e-5)" id="g5665">
							<g id="g5667">
								<g id="g5669">
									<path inkscape:connector-curvature="0" style="display:inline;fill:#ffe24b;fill-opacity:1;fill-rule:evenodd;stroke:none" d="m 513.85885,820.35686 -4.1277,-5.71831 h -30.1496 l -4.1434,5.71831 4.1434,5.6925 h 30.1496 z" id="path5671" sodipodi:nodetypes="ccccccc"/>
									<g id="g5673">
										<g id="g5675">
											<g id="g5677">
												<path inkscape:connector-curvature="0" id="path5679" d="m 477.69652,817.99066 34.196,0.18484 -2.52619,-3.57363 -29.88299,-0.0616 -1.78682,3.45041 z" style="fill:#fff2ac;fill-opacity:1;fill-rule:evenodd;stroke:none"/>
												<path inkscape:connector-curvature="0" id="path5681" d="m 511.75052,822.80242 -34.196,-0.18484 2.52619,3.57363 29.88299,0.0616 1.78682,-3.45041 z" style="display:inline;fill:#ddad00;fill-opacity:1;fill-rule:evenodd;stroke:none"/>
												<path inkscape:connector-curvature="0" style="display:inline;fill:none;stroke:#554400;stroke-width:1.29999995;stroke-linecap:butt;stroke-linejoin:miter;stroke-miterlimit:4;stroke-dasharray:none;stroke-opacity:1" d="m 1104.2203,376.98337 -4.1277,-5.71831 h -30.1496 l -4.1434,5.71831 4.1434,5.6925 h 30.1496 z" id="path5683" sodipodi:nodetypes="ccccccc" transform="translate(-590.36145,443.37349)"/>
											</g>
										</g>
									</g>
								</g>
							</g>
						</g>
					</g>
				</g>
				<g transform="translate(128.20007,70.062153)" id="g5518">
					<g id="g5465">
						<g style="stroke-width:1.29999995;stroke-miterlimit:4;stroke-dasharray:none" transform="translate(-20.41842,559.63855)" id="g4533">
							<path inkscape:connector-curvature="0" style="fill:#ffe24b;fill-opacity:1;fill-rule:evenodd;stroke:none" d="m 502.0459,263.91545 c 0.574,-5.39646 0.2684,-15.5749 -2.5708,-20.19983 -0.9594,-1.56279 -3.3097,-3.38275 -5.1418,-3.30542 -1.8055,0.0762 -4.29,0.60986 -5.1418,2.20361 -0.7808,1.46083 -1.2877,4.59767 -1.1018,6.24359 0.2582,2.28612 2.9382,6.97812 2.9382,6.97812 0,0 -9.6038,-1.92736 -12.8545,-4.40724 -3.2162,-2.45361 -6.6875,-7.10482 -7.7126,-11.01809 -0.3517,-1.34254 -1.7247,-5.68443 0.009,-10.89262 1.0064,-3.02315 4.0336,-7.06875 6.3762,-9.08505 6.1173,-5.2652 17.9963,-3.73456 20.4255,-2.42577 3.2127,1.73091 7.1281,5.41194 8.4472,8.81447 1.024,2.64119 3.1525,10.43714 3.6727,13.22171 1.0616,5.68278 1.3699,7.82674 1.8364,13.58897 0.3202,3.9551 1.2029,7.50631 0.3672,11.38536 -0.4502,2.08989 -1.0125,6.88623 -2.2337,10.04454 -1.2278,3.17525 -3.1176,4.71065 -4.7444,6.11532 -3.3233,2.86953 -13.9563,4.40725 -13.9563,4.40725 0,0 5.8421,-7.36967 7.3454,-10.65082 1.7852,-3.89624 3.5866,-6.7564 4.0399,-11.0181 z" id="path4516" sodipodi:nodetypes="csssscssssssssssscss"/>
							<path inkscape:connector-curvature="0" style="display:inline;fill:#ffe24b;fill-opacity:1;fill-rule:evenodd;stroke:none" d="m 528.08801,263.91545 c -0.574,-5.39646 -0.2684,-15.5749 2.5708,-20.19983 0.9594,-1.56279 3.3097,-3.38275 5.1418,-3.30542 1.8055,0.0762 4.29,0.60986 5.1418,2.20361 0.7808,1.46083 1.2877,4.59767 1.1018,6.24359 -0.2582,2.28612 -2.9382,6.97812 -2.9382,6.97812 0,0 9.6038,-1.92736 12.8545,-4.40724 3.2162,-2.45361 6.6875,-7.10482 7.7126,-11.01809 0.3517,-1.34254 1.7247,-5.68443 -0.009,-10.89262 -1.0064,-3.02315 -4.0336,-7.06875 -6.3762,-9.08505 -6.1173,-5.2652 -17.9963,-3.73456 -20.4255,-2.42577 -3.2127,1.73091 -7.1281,5.41194 -8.4472,8.81447 -1.024,2.64119 -3.1525,10.43714 -3.6727,13.22171 -1.0616,5.68278 -1.3699,7.82674 -1.8364,13.58897 -0.3202,3.9551 -1.2029,7.50631 -0.3672,11.38536 0.4502,2.08989 1.0125,6.88623 2.2337,10.04454 1.2278,3.17525 3.1176,4.71065 4.7444,6.11532 3.3233,2.86953 13.9563,4.40725 13.9563,4.40725 0,0 -5.8421,-7.36967 -7.3454,-10.65082 -1.7852,-3.89624 -3.5866,-6.7564 -4.0399,-11.0181 z" id="path4518" sodipodi:nodetypes="csssscssssssssssscss"/>
						</g>
						<path inkscape:connector-curvature="0" sodipodi:nodetypes="ccccccccsscccssc" d="m 517.54706,844.61882 -2.80137,-0.0446 -8.97216,-2.81983 -10.7666,-9.48485 -7.94677,7.56225 -5.3833,2.56347 -6.15233,2.05078 -4.08412,0.27769 c 0,0 7.23206,-4.86811 9.72798,-7.60551 1.78505,-1.95775 3.60515,-5.05182 4.77556,-7.42864 2.01675,-4.09553 5.12929,-14.32667 5.23761,-14.39691 l 2.29241,-0.3439 4.42181,0.35374 c 0,0 3.11254,10.23114 5.12929,14.32667 1.17041,2.37682 2.99051,5.47089 4.77556,7.42864 2.49592,2.7374 9.74643,7.56096 9.74643,7.56096 z" style="fill:#ddad00;fill-opacity:1;fill-rule:evenodd;stroke:none" id="path5446"/>
						<path inkscape:connector-curvature="0" sodipodi:nodetypes="csssssssscc" id="path5457" d="m 518.98386,815.22346 c 0,0 5.46203,-2.30385 7.08927,-4.15578 1.73525,-1.97487 2.89854,-5.49092 3.42241,-8.06711 0.39458,-1.9404 -0.56822,-6.05815 -1.46675,-7.82265 -1.35792,-2.66665 -3.02118,-4.2082 -5.86699,-5.13361 -1.95279,-0.63501 -4.92025,-0.71602 -6.84481,0 -1.99803,0.74336 -4.79405,2.47971 -6.11144,4.15578 -1.98632,2.52713 -3.15688,5.4315 -3.91133,8.55603 -0.46476,1.92479 -1.50797,7.79863 -1.46675,9.77831 0.0367,1.76124 0.24446,7.33373 0.24446,7.33373 l 3.66687,6.11144 0.0913,-0.27832 -0.27391,-10.13469 v -4.24562 l 1.91738,-6.57385 3.14997,-4.24561 3.69779,-0.54782 3.56083,1.78042 1.50651,3.83474 -0.27391,4.65648 z" style="fill:#ddad00;fill-opacity:1;fill-rule:evenodd;stroke:none"/>
						<path inkscape:connector-curvature="0" sodipodi:nodetypes="csssssssscc" id="path5459" d="m 470.32717,815.21194 c 0,0 -5.46203,-2.30385 -7.08927,-4.15578 -1.73525,-1.97487 -2.89854,-5.49092 -3.42241,-8.06711 -0.39458,-1.9404 0.56822,-6.05815 1.46675,-7.82265 1.35792,-2.66665 3.02118,-4.2082 5.86699,-5.13361 1.95279,-0.63501 4.92025,-0.71602 6.84481,0 1.99803,0.74336 4.79405,2.47971 6.11144,4.15578 1.98632,2.52713 3.15688,5.4315 3.91133,8.55603 0.46476,1.92479 1.50797,7.79863 1.46675,9.77831 -0.0367,1.76124 -0.24446,7.33373 -0.24446,7.33373 l -3.66687,6.11144 -0.0913,-0.27832 0.27391,-10.13469 v -4.24562 l -1.91738,-6.57385 -3.14997,-4.24561 -3.69779,-0.54782 -3.56083,1.78042 -1.50651,3.83474 0.27391,4.65648 z" style="display:inline;fill:#ddad00;fill-opacity:1;fill-rule:evenodd;stroke:none"/>
						<g style="display:inline;fill:none;stroke-width:1.29999995;stroke-miterlimit:4;stroke-dasharray:none" transform="translate(-20.41842,559.63855)" id="g5451">
							<path inkscape:connector-curvature="0" style="fill:none;stroke:#554400;stroke-width:1.29999995;stroke-linecap:butt;stroke-linejoin:miter;stroke-miterlimit:4;stroke-dasharray:none;stroke-opacity:1" d="m 502.0459,263.91545 c 0.574,-5.39646 0.2684,-15.5749 -2.5708,-20.19983 -0.9594,-1.56279 -3.3097,-3.38275 -5.1418,-3.30542 -1.8055,0.0762 -4.29,0.60986 -5.1418,2.20361 -0.7808,1.46083 -1.2877,4.59767 -1.1018,6.24359 0.2582,2.28612 2.9382,6.97812 2.9382,6.97812 0,0 -9.6038,-1.92736 -12.8545,-4.40724 -3.2162,-2.45361 -6.6875,-7.10482 -7.7126,-11.01809 -0.3517,-1.34254 -1.7247,-5.68443 0.009,-10.89262 1.0064,-3.02315 4.0336,-7.06875 6.3762,-9.08505 6.1173,-5.2652 17.9963,-3.73456 20.4255,-2.42577 3.2127,1.73091 7.1281,5.41194 8.4472,8.81447 1.024,2.64119 3.1525,10.43714 3.6727,13.22171 1.0616,5.68278 1.3699,7.82674 1.8364,13.58897 0.3202,3.9551 1.2029,7.50631 0.3672,11.38536 -0.4502,2.08989 -1.0125,6.88623 -2.2337,10.04454 -1.2278,3.17525 -3.1176,4.71065 -4.7444,6.11532 -3.3233,2.86953 -13.9563,4.40725 -13.9563,4.40725 0,0 5.8421,-7.36967 7.3454,-10.65082 1.7852,-3.89624 3.5866,-6.7564 4.0399,-11.0181 z" id="path5453" sodipodi:nodetypes="csssscssssssssssscss"/>
							<path inkscape:connector-curvature="0" style="display:inline;fill:none;stroke:#554400;stroke-width:1.29999995;stroke-linecap:butt;stroke-linejoin:miter;stroke-miterlimit:4;stroke-dasharray:none;stroke-opacity:1" d="m 528.08801,263.91545 c -0.574,-5.39646 -0.2684,-15.5749 2.5708,-20.19983 0.9594,-1.56279 3.3097,-3.38275 5.1418,-3.30542 1.8055,0.0762 4.29,0.60986 5.1418,2.20361 0.7808,1.46083 1.2877,4.59767 1.1018,6.24359 -0.2582,2.28612 -2.9382,6.97812 -2.9382,6.97812 0,0 9.6038,-1.92736 12.8545,-4.40724 3.2162,-2.45361 6.6875,-7.10482 7.7126,-11.01809 0.3517,-1.34254 1.7247,-5.68443 -0.009,-10.89262 -1.0064,-3.02315 -4.0336,-7.06875 -6.3762,-9.08505 -6.1173,-5.2652 -17.9963,-3.73456 -20.4255,-2.42577 -3.2127,1.73091 -7.1281,5.41194 -8.4472,8.81447 -1.024,2.64119 -3.1525,10.43714 -3.6727,13.22171 -1.0616,5.68278 -1.3699,7.82674 -1.8364,13.58897 -0.3202,3.9551 -1.2029,7.50631 -0.3672,11.38536 0.4502,2.08989 1.0125,6.88623 2.2337,10.04454 1.2278,3.17525 3.1176,4.71065 4.7444,6.11532 3.3233,2.86953 13.9563,4.40725 13.9563,4.40725 0,0 -5.8421,-7.36967 -7.3454,-10.65082 -1.7852,-3.89624 -3.5866,-6.7564 -4.0399,-11.0181 z" id="path5455" sodipodi:nodetypes="csssscssssssssssscss"/>
						</g>
						<path inkscape:connector-curvature="0" sodipodi:nodetypes="cssssscsssssc" id="path5461" d="m 455.61301,801.25465 c 0,0 0.47536,-3.76408 0.89556,-5.5972 0.51681,-2.25464 1.65434,-5.3763 3.35833,-6.94055 1.80107,-1.65338 4.52965,-2.95197 6.94054,-3.35833 2.12047,-0.35741 5.07955,-0.30279 7.16443,0.22389 1.60176,0.40464 3.51555,1.60179 4.92554,2.46277 1.06629,0.65111 3.35833,2.46278 3.35833,2.46278 0,0 -4.16597,-6.60661 -6.94054,-8.28388 -2.70584,-1.63572 -7.13812,-2.32138 -10.29887,-2.23888 -2.29667,0.06 -4.80369,1.19045 -6.71665,2.46278 -2.27105,1.51049 -4.70926,4.58552 -5.59721,7.16443 -0.63413,1.84171 -0.55613,4.626 0,6.49276 0.59571,1.99964 2.91054,5.14943 2.91054,5.14943 z" style="fill:#fff2ac;fill-opacity:1;fill-rule:evenodd;stroke:none"/>
						<path inkscape:connector-curvature="0" sodipodi:nodetypes="csscssssc" id="path5463" d="m 513.82401,785.13468 c 0,0 5.68852,-0.93856 8.05999,-0.44777 2.94145,0.60875 6.807,2.37861 8.95554,4.47777 1.84824,1.80576 4.02999,7.6122 4.02999,7.6122 0,0 0.18074,-6.09356 -0.67167,-8.50776 -0.51482,-1.45807 -1.73242,-3.25237 -2.91055,-4.25388 -1.80858,-1.53744 -4.79092,-3.32484 -7.16443,-3.35832 -1.24635,-0.0176 -4.09965,-0.0809 -5.78967,0.69266 -2.87788,1.31723 -4.5092,3.7851 -4.5092,3.7851 z" style="fill:#fff2ac;fill-opacity:1;fill-rule:evenodd;stroke:none"/>
					</g>
					<g id="g5507" transform="translate(5e-6)">
						<g style="stroke-width:1.29999995;stroke-miterlimit:4;stroke-dasharray:none" transform="translate(-15.41843,9.63855)" id="g4565">
							<path inkscape:connector-curvature="0" id="path4520" style="display:inline;fill:#ffe24b;fill-opacity:1;fill-rule:evenodd;stroke:none" d="m 510,854 c 0,0 8.58079,-7.03775 10,-15 1.27665,-7.16228 -4.4103,-15.5515 -4.84132,-18.92499 -1.72367,-13.49216 1.92936,-31.46657 2.25863,-32.93573 1.30797,-5.83607 2.95399,-8.33308 3.83033,-10.24414 0.63083,-1.37567 2.43333,-4.1112 4.23574,-6.76319 1.03432,-1.52175 3.33777,-4.35506 4.51118,-7.23688 1.24372,-3.0544 1.32896,-6.16333 1.34698,-7.82303 0.0307,-2.8265 -0.50296,-5.23079 -1.25324,-7.53217 -0.71305,-2.18762 -3.03665,-5.76776 -6.40372,-7.82555 -3.63004,-2.21837 -6.56481,-4.00185 -7.68157,-4.70812 C 512.31404,732.67317 510.04353,725 510,725 c -0.0434,0 -2.31409,7.67317 -6.00305,10.0062 -1.11676,0.70627 -3.91757,2.48975 -7.54761,4.70812 -3.36709,2.05779 -5.69067,5.63793 -6.40372,7.82555 -0.75028,2.30138 -1.28395,4.70567 -1.25324,7.53217 0.018,1.6597 0.10326,4.76863 1.34698,7.82303 1.1734,2.88182 3.47686,5.71513 4.51118,7.23688 1.80241,2.65199 3.60491,5.38752 4.23574,6.76319 0.87634,1.91106 2.52236,4.40807 3.83033,10.24414 0.32927,1.46916 3.9823,19.44357 2.25863,32.93573 C 504.54422,823.4485 498.72335,831.83772 500,839 c 1.41921,7.96225 10,15 10,15 z" sodipodi:nodetypes="csssssssssscssssssssssc"/>
							<path inkscape:connector-curvature="0" sodipodi:nodetypes="cc" style="fill:none;stroke:#9e7500;stroke-width:1.29999995;stroke-linecap:butt;stroke-linejoin:miter;stroke-miterlimit:4;stroke-dasharray:none;stroke-opacity:1" d="M 510,854 509.9892,726.04466" id="path4544"/>
						</g>
						<path inkscape:connector-curvature="0" sodipodi:nodetypes="cccccccccccccccccssssssssssssc" id="path5377" d="m 494.84211,863.37821 6.99614,-7.80339 2.69082,-5.11256 -0.53817,-6.99613 -1.88357,-7.26522 -2.95991,-6.45797 v -10.49421 l 1.07633,-10.4942 1.34541,-11.57054 2.95991,-9.14879 4.84348,-6.72706 4.03623,-6.99613 1.61449,-3.76715 0.80725,-6.72706 -1.07633,-6.45797 -3.40685,-5.45931 -6.54919,-4.49673 c 0,0 3.88019,4.36223 6.4255,8.4648 1.36661,2.20273 1.34965,4.90514 1.37788,5.52747 0.12071,2.66118 -0.0818,3.89476 -0.80725,6.45798 -0.67117,2.37126 -2.09366,4.97104 -3.49806,6.99613 -1.57353,2.26898 -4.38725,4.81004 -5.65073,7.26522 -1.81147,3.52004 -3.0338,8.75658 -3.76715,12.64686 -0.90035,4.77615 -1.02418,11.29529 -1.34541,16.14493 -0.32585,4.91938 -1.1972,11.4993 -0.80725,16.41401 0.24795,3.12496 1.5999,7.5066 2.15266,10.22513 0.38233,1.88033 1.37033,4.28568 1.61449,6.18889 0.23625,1.84157 0.25266,4.34949 0,6.18889 -0.28519,2.07624 -1.08341,4.79008 -1.88357,6.72705 -0.88312,2.13779 -3.76715,6.72706 -3.76715,6.72706 z" style="fill:#ddad00;fill-opacity:1;fill-rule:evenodd;stroke:none"/>
						<path inkscape:connector-curvature="0" sodipodi:nodetypes="csssssssss" id="path5379" d="m 485.42423,851.53859 c 0,0 0.16406,-4.17623 0.53817,-5.91981 0.5195,-2.42118 1.81972,-5.48537 2.69082,-7.80338 0.82791,-2.20308 2.47146,-4.96296 2.9599,-7.26522 1.07274,-5.05636 0.83937,-12.06114 0.53817,-17.22126 -0.22353,-3.82939 -1.34418,-8.84907 -1.88358,-12.64686 -0.42382,-2.98401 -1.2165,-7.62932 -2.15266,-10.4942 -0.99855,-3.05582 -2.63382,-6.95705 -4.30531,-9.70318 -1.42022,-2.33331 -3.34386,-4.62924 -5.11256,-6.71084 -1.36803,-1.61005 -5.11256,-4.84348 -5.11256,-4.84348 l 0.52033,0.19614 0.61759,2.8821 2.47037,4.11728 2.47037,4.52901 4.11728,6.38179 2.67624,6.79351 1.44104,7.20524 1.23519,9.88148 0.61759,9.88147 v 9.26389 l -2.2645,4.73487 -2.67624,7.20524 -0.82345,5.97006 z" style="fill:#ddad00;fill-opacity:1;fill-rule:evenodd;stroke:none"/>
						<path inkscape:connector-curvature="0" sodipodi:nodetypes="csssssssssscssssssssssc" d="m 494.58157,863.63855 c 0,0 8.58079,-7.03775 10,-15 1.27665,-7.16228 -4.4103,-15.5515 -4.84132,-18.92499 -1.72367,-13.49216 1.92936,-31.46657 2.25863,-32.93573 1.30797,-5.83607 2.95399,-8.33308 3.83033,-10.24414 0.63083,-1.37567 2.43333,-4.1112 4.23574,-6.76319 1.03432,-1.52175 3.33777,-4.35506 4.51118,-7.23688 1.24372,-3.0544 1.32896,-6.16333 1.34698,-7.82303 0.0307,-2.8265 -0.50296,-5.23079 -1.25324,-7.53217 -0.71305,-2.18762 -3.03665,-5.76776 -6.40372,-7.82555 -3.63004,-2.21837 -6.56481,-4.00185 -7.68157,-4.70812 -3.68897,-2.33303 -5.95948,-10.0062 -6.00301,-10.0062 -0.0434,0 -2.31409,7.67317 -6.00305,10.0062 -1.11676,0.70627 -3.91757,2.48975 -7.54761,4.70812 -3.36709,2.05779 -5.69067,5.63793 -6.40372,7.82555 -0.75028,2.30138 -1.28395,4.70567 -1.25324,7.53217 0.018,1.6597 0.10326,4.76863 1.34698,7.82303 1.1734,2.88182 3.47686,5.71513 4.51118,7.23688 1.80241,2.65199 3.60491,5.38752 4.23574,6.76319 0.87634,1.91106 2.52236,4.40807 3.83033,10.24414 0.32927,1.46916 3.9823,19.44357 2.25863,32.93573 -0.43102,3.37349 -6.25189,11.76271 -4.97524,18.92499 1.41921,7.96225 10,15 10,15 z" style="display:inline;fill:none;stroke:#554400;stroke-width:1.29999995;stroke-linecap:butt;stroke-linejoin:miter;stroke-miterlimit:4;stroke-dasharray:none;stroke-opacity:1" id="path5375"/>
						<path inkscape:connector-curvature="0" sodipodi:nodetypes="ccssssc" id="path5381" d="m 489.82436,781.88416 0.73547,-33.09624 c 0,0 -4.11865,3.08898 -5.88378,4.41283 -1.32385,0.99289 -3.58743,1.87537 -4.41283,3.30963 -1.88381,3.27342 -2.71082,6.87906 -1.1032,10.2966 0.95085,2.02135 4.36691,4.61167 5.88377,6.25152 2.04471,2.2105 4.78057,8.82566 4.78057,8.82566 z" style="fill:#fff2ac;fill-opacity:1;fill-rule:evenodd;stroke:none"/>
						<path inkscape:connector-curvature="0" sodipodi:nodetypes="ccsssssc" id="path5383" d="m 498.28229,776.73586 v -23.90284 c 0,0 1.31182,2.51989 2.20641,3.30962 0.73974,0.65303 2.20914,0.81009 2.94189,1.47095 1.06815,0.96336 2.29399,2.63423 2.57415,4.04509 0.37094,1.86796 -0.18379,4.58372 -1.10321,6.25151 -0.79178,1.43625 -3.05477,2.37009 -4.04509,3.67737 -1.04271,1.37643 -2.57415,5.1483 -2.57415,5.1483 z" style="fill:#fff2ac;fill-opacity:1;fill-rule:evenodd;stroke:none"/>
						<path inkscape:connector-curvature="0" sodipodi:nodetypes="ccsscs" id="path5385" d="m 492.26781,853.22495 c -0.30737,-3.18642 -0.23704,-10.66435 -0.23704,-10.66435 0,0 -2.71962,4.02223 -3.17448,5.84169 -0.24081,0.96324 -0.48167,3.0463 -0.23261,4.00744 0.56982,2.19902 4.28213,6.71229 4.28213,6.71229 0,0 -0.49668,-4.43201 -0.638,-5.89707 z" style="fill:#fff2ac;fill-opacity:1;fill-rule:evenodd;stroke:none"/>
					</g>
					<g id="g5496" transform="translate(3.5e-5)">
						<g id="g5416">
							<g id="g5407">
								<path inkscape:connector-curvature="0" sodipodi:nodetypes="ccccccc" id="path4522" d="m 513.85885,820.35686 -4.1277,-5.71831 h -30.1496 l -4.1434,5.71831 4.1434,5.6925 h 30.1496 z" style="display:inline;fill:#ffe24b;fill-opacity:1;fill-rule:evenodd;stroke:none"/>
								<g id="g5393">
									<g id="g5387">
										<g id="g5370">
											<path inkscape:connector-curvature="0" style="fill:#fff2ac;fill-opacity:1;fill-rule:evenodd;stroke:none" d="m 477.69652,817.99066 34.196,0.18484 -2.52619,-3.57363 -29.88299,-0.0616 -1.78682,3.45041 z" id="path5364"/>
											<path inkscape:connector-curvature="0" style="display:inline;fill:#ddad00;fill-opacity:1;fill-rule:evenodd;stroke:none" d="m 511.75052,822.80242 -34.196,-0.18484 2.52619,3.57363 29.88299,0.0616 1.78682,-3.45041 z" id="path5366"/>
											<path inkscape:connector-curvature="0" transform="translate(-590.36145,443.37349)" sodipodi:nodetypes="ccccccc" id="path5368" d="m 1104.2203,376.98337 -4.1277,-5.71831 h -30.1496 l -4.1434,5.71831 4.1434,5.6925 h 30.1496 z" style="display:inline;fill:none;stroke:#554400;stroke-width:1.29999995;stroke-linecap:butt;stroke-linejoin:miter;stroke-miterlimit:4;stroke-dasharray:none;stroke-opacity:1"/>
										</g>
									</g>
								</g>
							</g>
						</g>
					</g>
				</g>
			</g>
		</g>


	</g>
</svg>