<svg xmlns:dc="http://purl.org/dc/elements/1.1/" xmlns:cc="http://creativecommons.org/ns#" xmlns:rdf="http://www.w3.org/1999/02/22-rdf-syntax-ns#" xmlns:svg="http://www.w3.org/2000/svg" xmlns="http://www.w3.org/2000/svg" xmlns:xlink="http://www.w3.org/1999/xlink" xmlns:sodipodi="http://sodipodi.sourceforge.net/DTD/sodipodi-0.dtd" xmlns:inkscape="http://www.inkscape.org/namespaces/inkscape" height="660" width="600" version="1.0" id="svg2" sodipodi:version="0.32" inkscape:version="0.45+0.46pre0+devel" sodipodi:docname="Orn_ext_maréchal-marquis_et_pair_GCLH_(Monarchie_de_Juillet).svg" sodipodi:docbase="C:\Documents and Settings\Bruno Vallette\Mes documents\Perso\Wikipédia Blasons\Communes BVA" inkscape:export-filename="/Users/olivier/Desktop/Blason Rouge/Blason_Vide_3D.png" inkscape:export-xdpi="144" inkscape:export-ydpi="144" inkscape:output_extension="org.inkscape.output.svg.inkscape">
	<g inkscape:groupmode="layer" id="layer5" inkscape:label="bâtons" sodipodi:insensitive="true">
		<g id="g36219" transform="matrix(0.7071068,-0.7071068,0.7071068,0.7071068,-166.19804,322.9125)">
			<g id="g2523" transform="matrix(1.6624301,0,0,1.6624301,27.511974,143.70247)">
				<g transform="matrix(3.1504992,0,0,3.1406671,-348.35791,-182.70372)" id="g3344">
					<g id="g2544">
						<rect style="fill:#002395;stroke:#000050;stroke-width:0.45208997;stroke-miterlimit:4;stroke-dasharray:none;stroke-opacity:1" id="rect22" y="50" x="158.875" height="100" width="10"/>
						<g id="g3840">
							<path sodipodi:nodetypes="ccccccc" d="M 168.91644,144.61735 L 168.9045,151.01691 L 166.19619,152.98942 L 167.22786,149.78141 L 164.51498,147.81519 L 167.88479,147.80504 L 168.91644,144.61735 z" style="fill:#ffdd3a;fill-opacity:1;stroke:#9c6000;stroke-width:0.20546581;stroke-miterlimit:4;stroke-dasharray:none;stroke-dashoffset:0;stroke-opacity:1;overflow:visible" id="path2534"/>
							<path id="path8347" style="fill:#ffdd3a;fill-opacity:1;stroke:#9c6000;stroke-width:0.20546581;stroke-miterlimit:4;stroke-dasharray:none;stroke-dashoffset:0;stroke-opacity:1;overflow:visible" d="M 168.91644,54.017996 L 168.9045,60.417561 L 166.19619,62.390071 L 167.22786,59.182055 L 164.51498,57.215844 L 167.88479,57.205691 L 168.91644,54.017996 z" sodipodi:nodetypes="ccccccc"/>
							<path sodipodi:nodetypes="ccccccc" d="M 168.91644,72.129876 L 168.9045,78.529441 L 166.19619,80.501951 L 167.22786,77.293935 L 164.51498,75.327724 L 167.88479,75.317571 L 168.91644,72.129876 z" style="fill:#ffdd3a;fill-opacity:1;stroke:#9c6000;stroke-width:0.20546581;stroke-miterlimit:4;stroke-dasharray:none;stroke-dashoffset:0;stroke-opacity:1;overflow:visible" id="path3832"/>
							<path id="path3834" style="fill:#ffdd3a;fill-opacity:1;stroke:#9c6000;stroke-width:0.20546581;stroke-miterlimit:4;stroke-dasharray:none;stroke-dashoffset:0;stroke-opacity:1;overflow:visible" d="M 168.91644,90.241756 L 168.9045,96.641321 L 166.19619,98.613831 L 167.22786,95.405815 L 164.51498,93.439604 L 167.88479,93.429451 L 168.91644,90.241756 z" sodipodi:nodetypes="ccccccc"/>
							<path sodipodi:nodetypes="ccccccc" d="M 168.91644,108.35369 L 168.9045,114.7533 L 166.19619,116.72582 L 167.22786,113.51778 L 164.51498,111.55156 L 167.88479,111.54141 L 168.91644,108.35369 z" style="fill:#ffdd3a;fill-opacity:1;stroke:#9c6000;stroke-width:0.20546581;stroke-miterlimit:4;stroke-dasharray:none;stroke-dashoffset:0;stroke-opacity:1;overflow:visible" id="path3836"/>
							<path id="path3838" style="fill:#ffdd3a;fill-opacity:1;stroke:#9c6000;stroke-width:0.20546581;stroke-miterlimit:4;stroke-dasharray:none;stroke-dashoffset:0;stroke-opacity:1;overflow:visible" d="M 168.91644,126.58771 L 168.9045,132.98732 L 166.19619,134.95984 L 167.22786,131.7518 L 164.51498,129.78558 L 167.88479,129.77543 L 168.91644,126.58771 z" sodipodi:nodetypes="ccccccc"/>
							<path sodipodi:nodetypes="ccccccc" d="M 158.86027,136.03258 L 158.87221,142.43215 L 161.58052,144.40466 L 160.54885,141.19664 L 163.26173,139.23043 L 159.89192,139.22028 L 158.86027,136.03258 z" style="fill:#ffdd3a;fill-opacity:1;stroke:#9c6000;stroke-width:0.20546581;stroke-miterlimit:4;stroke-dasharray:none;stroke-dashoffset:0;stroke-opacity:1;overflow:visible" id="path2536"/>
						</g>
						<g transform="matrix(-1,0,0,1,327.77671,9.5271156)" id="g3847">
							<path sodipodi:nodetypes="ccccccc" d="M 168.91644,54.017996 L 168.9045,60.417561 L 166.19619,62.390071 L 167.22786,59.182055 L 164.51498,57.215844 L 167.88479,57.205691 L 168.91644,54.017996 z" style="fill:#ffdd3a;fill-opacity:1;stroke:#9c6000;stroke-width:0.20546581;stroke-miterlimit:4;stroke-dasharray:none;stroke-dashoffset:0;stroke-opacity:1;overflow:visible" id="path3849"/>
							<path id="path3851" style="fill:#ffdd3a;fill-opacity:1;stroke:#9c6000;stroke-width:0.20546581;stroke-miterlimit:4;stroke-dasharray:none;stroke-dashoffset:0;stroke-opacity:1;overflow:visible" d="M 168.91644,72.129876 L 168.9045,78.529441 L 166.19619,80.501951 L 167.22786,77.293935 L 164.51498,75.327724 L 167.88479,75.317571 L 168.91644,72.129876 z" sodipodi:nodetypes="ccccccc"/>
							<path sodipodi:nodetypes="ccccccc" d="M 168.91644,90.241756 L 168.9045,96.641321 L 166.19619,98.613831 L 167.22786,95.405815 L 164.51498,93.439604 L 167.88479,93.429451 L 168.91644,90.241756 z" style="fill:#ffdd3a;fill-opacity:1;stroke:#9c6000;stroke-width:0.20546581;stroke-miterlimit:4;stroke-dasharray:none;stroke-dashoffset:0;stroke-opacity:1;overflow:visible" id="path3853"/>
							<path id="path3855" style="fill:#ffdd3a;fill-opacity:1;stroke:#9c6000;stroke-width:0.20546581;stroke-miterlimit:4;stroke-dasharray:none;stroke-dashoffset:0;stroke-opacity:1;overflow:visible" d="M 168.91644,108.35369 L 168.9045,114.7533 L 166.19619,116.72582 L 167.22786,113.51778 L 164.51498,111.55156 L 167.88479,111.54141 L 168.91644,108.35369 z" sodipodi:nodetypes="ccccccc"/>
						</g>
						<g style="fill:#ffdd3a;fill-opacity:1;stroke:#9c6000;stroke-width:2.52796388;stroke-miterlimit:4;stroke-dasharray:none;stroke-opacity:1" transform="matrix(-8.85895e-4,0.1793933,-0.1782753,-8.8589496e-4,261.02354,23.843041)" inkscape:label="Calque 1" id="g35492">
							<g style="fill:#ffdd3a;fill-opacity:1;fill-rule:evenodd;stroke:#9c6000;stroke-width:1.75210464;stroke-miterlimit:4;stroke-dasharray:none;stroke-opacity:1;display:inline" id="g35494" transform="matrix(-1.654356e-2,-1.4427207,1.4427207,-1.654356e-2,-259.4273,1155.4437)">
								<path d="M 439.99763,678.95823 L 396.08763,678.70402 C 400.77127,684.4185 400.74305,689.68532 395.99636,694.49814 L 439.9,694.75897 C 436.0045,689.88986 436.03272,684.62304 439.99763,678.95823 z" style="fill:#ffdd3a;fill-opacity:1;stroke:#9c6000;stroke-width:1.75210464;stroke-miterlimit:4;stroke-dasharray:none;stroke-opacity:1" id="path35496"/>
								<path d="M 440.52778,674.79528 L 396.01523,674.53396 C 394.94622,674.52345 394.0686,675.31872 394.06259,676.29048 L 394.04318,678.8236 C 394.03716,679.79535 394.90853,680.59369 395.98389,680.59758 L 440.49643,680.8589 C 441.55884,680.86307 442.44306,680.07414 442.44909,679.10238 L 442.46215,676.57587 C 442.46816,675.60412 441.60313,674.79918 440.52778,674.79528 z" style="fill:#ffdd3a;fill-opacity:1;stroke:#9c6000;stroke-width:1.75210464;stroke-miterlimit:4;stroke-dasharray:none;stroke-opacity:1" id="path35498"/>
								<path d="M 439.60145,692.49678 L 395.08891,692.23546 C 394.0199,692.22496 393.13567,693.01388 393.13626,693.99198 L 393.11685,696.52509 C 393.11083,697.49685 393.98221,698.29518 395.05756,698.29909 L 439.5635,698.55406 C 440.63251,698.56457 441.51674,697.77564 441.52276,696.80389 L 441.53582,694.27738 C 441.54183,693.30562 440.6702,692.49434 439.60145,692.49678 z" style="fill:#ffdd3a;fill-opacity:1;stroke:#9c6000;stroke-width:1.75210464;stroke-miterlimit:4;stroke-dasharray:none;stroke-opacity:1" id="path35500"/>
							</g>
						</g>
						<path sodipodi:nodetypes="ccccccc" d="M 158.86027,45.241768 L 158.87221,51.641333 L 161.58052,53.613843 L 160.54885,50.405827 L 163.26173,48.439616 L 159.89192,48.429463 L 158.86027,45.241768 z" style="fill:#ffdd3a;fill-opacity:1;stroke:#9c6000;stroke-width:0.20546581;stroke-miterlimit:4;stroke-dasharray:none;stroke-dashoffset:0;stroke-opacity:1;overflow:visible" id="path2542"/>
						<g id="g3730" inkscape:label="Calque 1" transform="matrix(-8.85895e-4,0.1793933,-0.1782753,-8.8589496e-4,261.02354,-82.705195)" style="fill:#ffdd3a;fill-opacity:1;stroke:#9c6000;stroke-width:2.52796388;stroke-miterlimit:4;stroke-dasharray:none;stroke-opacity:1">
							<g transform="matrix(-1.654356e-2,-1.4427207,1.4427207,-1.654356e-2,-259.4273,1155.4437)" id="g3732" style="fill:#ffdd3a;fill-opacity:1;fill-rule:evenodd;stroke:#9c6000;stroke-width:1.75210464;stroke-miterlimit:4;stroke-dasharray:none;stroke-opacity:1;display:inline">
								<path id="path35505" style="fill:#ffdd3a;fill-opacity:1;stroke:#9c6000;stroke-width:1.75210464;stroke-miterlimit:4;stroke-dasharray:none;stroke-opacity:1" d="M 439.99763,678.95823 L 396.08763,678.70402 C 400.77127,684.4185 400.74305,689.68532 395.99636,694.49814 L 439.9,694.75897 C 436.0045,689.88986 436.03272,684.62304 439.99763,678.95823 z"/>
								<path id="path3736" style="fill:#ffdd3a;fill-opacity:1;stroke:#9c6000;stroke-width:1.75210464;stroke-miterlimit:4;stroke-dasharray:none;stroke-opacity:1" d="M 440.52778,674.79528 L 396.01523,674.53396 C 394.94622,674.52345 394.0686,675.31872 394.06259,676.29048 L 394.04318,678.8236 C 394.03716,679.79535 394.90853,680.59369 395.98389,680.59758 L 440.49643,680.8589 C 441.55884,680.86307 442.44306,680.07414 442.44909,679.10238 L 442.46215,676.57587 C 442.46816,675.60412 441.60313,674.79918 440.52778,674.79528 z"/>
								<path id="path3738" style="fill:#ffdd3a;fill-opacity:1;stroke:#9c6000;stroke-width:1.75210464;stroke-miterlimit:4;stroke-dasharray:none;stroke-opacity:1" d="M 439.60145,692.49678 L 395.08891,692.23546 C 394.0199,692.22496 393.13567,693.01388 393.13626,693.99198 L 393.11685,696.52509 C 393.11083,697.49685 393.98221,698.29518 395.05756,698.29909 L 439.5635,698.55406 C 440.63251,698.56457 441.51674,697.77564 441.52276,696.80389 L 441.53582,694.27738 C 441.54183,693.30562 440.6702,692.49434 439.60145,692.49678 z"/>
							</g>
						</g>
					</g>
				</g>
			</g>
			<g id="g36163" transform="matrix(0,1.6624301,-1.6624301,0,525.06342,82.896158)">
				<g transform="matrix(3.1504992,0,0,3.1406671,-348.35791,-182.70372)" id="g36165">
					<g id="g36167">
						<rect style="fill:#002395;stroke:#000050;stroke-width:0.45208997;stroke-miterlimit:4;stroke-dasharray:none;stroke-opacity:1" id="rect36169" y="50" x="158.875" height="100" width="10"/>
						<g id="g36171">
							<path sodipodi:nodetypes="ccccccc" d="M 168.91644,144.61735 L 168.9045,151.01691 L 166.19619,152.98942 L 167.22786,149.78141 L 164.51498,147.81519 L 167.88479,147.80504 L 168.91644,144.61735 z" style="fill:#ffdd3a;fill-opacity:1;stroke:#9c6000;stroke-width:0.20546581;stroke-miterlimit:4;stroke-dasharray:none;stroke-dashoffset:0;stroke-opacity:1;overflow:visible" id="path36173"/>
							<path id="path36175" style="fill:#ffdd3a;fill-opacity:1;stroke:#9c6000;stroke-width:0.20546581;stroke-miterlimit:4;stroke-dasharray:none;stroke-dashoffset:0;stroke-opacity:1;overflow:visible" d="M 168.91644,54.017996 L 168.9045,60.417561 L 166.19619,62.390071 L 167.22786,59.182055 L 164.51498,57.215844 L 167.88479,57.205691 L 168.91644,54.017996 z" sodipodi:nodetypes="ccccccc"/>
							<path sodipodi:nodetypes="ccccccc" d="M 168.91644,72.129876 L 168.9045,78.529441 L 166.19619,80.501951 L 167.22786,77.293935 L 164.51498,75.327724 L 167.88479,75.317571 L 168.91644,72.129876 z" style="fill:#ffdd3a;fill-opacity:1;stroke:#9c6000;stroke-width:0.20546581;stroke-miterlimit:4;stroke-dasharray:none;stroke-dashoffset:0;stroke-opacity:1;overflow:visible" id="path36177"/>
							<path id="path36179" style="fill:#ffdd3a;fill-opacity:1;stroke:#9c6000;stroke-width:0.20546581;stroke-miterlimit:4;stroke-dasharray:none;stroke-dashoffset:0;stroke-opacity:1;overflow:visible" d="M 168.91644,90.241756 L 168.9045,96.641321 L 166.19619,98.613831 L 167.22786,95.405815 L 164.51498,93.439604 L 167.88479,93.429451 L 168.91644,90.241756 z" sodipodi:nodetypes="ccccccc"/>
							<path sodipodi:nodetypes="ccccccc" d="M 168.91644,108.35369 L 168.9045,114.7533 L 166.19619,116.72582 L 167.22786,113.51778 L 164.51498,111.55156 L 167.88479,111.54141 L 168.91644,108.35369 z" style="fill:#ffdd3a;fill-opacity:1;stroke:#9c6000;stroke-width:0.20546581;stroke-miterlimit:4;stroke-dasharray:none;stroke-dashoffset:0;stroke-opacity:1;overflow:visible" id="path36181"/>
							<path id="path36183" style="fill:#ffdd3a;fill-opacity:1;stroke:#9c6000;stroke-width:0.20546581;stroke-miterlimit:4;stroke-dasharray:none;stroke-dashoffset:0;stroke-opacity:1;overflow:visible" d="M 168.91644,126.58771 L 168.9045,132.98732 L 166.19619,134.95984 L 167.22786,131.7518 L 164.51498,129.78558 L 167.88479,129.77543 L 168.91644,126.58771 z" sodipodi:nodetypes="ccccccc"/>
							<path sodipodi:nodetypes="ccccccc" d="M 158.86027,136.03258 L 158.87221,142.43215 L 161.58052,144.40466 L 160.54885,141.19664 L 163.26173,139.23043 L 159.89192,139.22028 L 158.86027,136.03258 z" style="fill:#ffdd3a;fill-opacity:1;stroke:#9c6000;stroke-width:0.20546581;stroke-miterlimit:4;stroke-dasharray:none;stroke-dashoffset:0;stroke-opacity:1;overflow:visible" id="path36185"/>
						</g>
						<g transform="matrix(-1,0,0,1,327.77671,9.5271156)" id="g36187">
							<path sodipodi:nodetypes="ccccccc" d="M 168.91644,54.017996 L 168.9045,60.417561 L 166.19619,62.390071 L 167.22786,59.182055 L 164.51498,57.215844 L 167.88479,57.205691 L 168.91644,54.017996 z" style="fill:#ffdd3a;fill-opacity:1;stroke:#9c6000;stroke-width:0.20546581;stroke-miterlimit:4;stroke-dasharray:none;stroke-dashoffset:0;stroke-opacity:1;overflow:visible" id="path36189"/>
							<path id="path36191" style="fill:#ffdd3a;fill-opacity:1;stroke:#9c6000;stroke-width:0.20546581;stroke-miterlimit:4;stroke-dasharray:none;stroke-dashoffset:0;stroke-opacity:1;overflow:visible" d="M 168.91644,72.129876 L 168.9045,78.529441 L 166.19619,80.501951 L 167.22786,77.293935 L 164.51498,75.327724 L 167.88479,75.317571 L 168.91644,72.129876 z" sodipodi:nodetypes="ccccccc"/>
							<path sodipodi:nodetypes="ccccccc" d="M 168.91644,90.241756 L 168.9045,96.641321 L 166.19619,98.613831 L 167.22786,95.405815 L 164.51498,93.439604 L 167.88479,93.429451 L 168.91644,90.241756 z" style="fill:#ffdd3a;fill-opacity:1;stroke:#9c6000;stroke-width:0.20546581;stroke-miterlimit:4;stroke-dasharray:none;stroke-dashoffset:0;stroke-opacity:1;overflow:visible" id="path36193"/>
							<path id="path36195" style="fill:#ffdd3a;fill-opacity:1;stroke:#9c6000;stroke-width:0.20546581;stroke-miterlimit:4;stroke-dasharray:none;stroke-dashoffset:0;stroke-opacity:1;overflow:visible" d="M 168.91644,108.35369 L 168.9045,114.7533 L 166.19619,116.72582 L 167.22786,113.51778 L 164.51498,111.55156 L 167.88479,111.54141 L 168.91644,108.35369 z" sodipodi:nodetypes="ccccccc"/>
						</g>
						<g style="fill:#ffdd3a;fill-opacity:1;stroke:#9c6000;stroke-width:2.52796388;stroke-miterlimit:4;stroke-dasharray:none;stroke-opacity:1" transform="matrix(-8.85895e-4,0.1793933,-0.1782753,-8.8589496e-4,261.02354,23.843041)" inkscape:label="Calque 1" id="g36197">
							<g style="fill:#ffdd3a;fill-opacity:1;fill-rule:evenodd;stroke:#9c6000;stroke-width:1.75210464;stroke-miterlimit:4;stroke-dasharray:none;stroke-opacity:1;display:inline" id="g36199" transform="matrix(-1.654356e-2,-1.4427207,1.4427207,-1.654356e-2,-259.4273,1155.4437)">
								<path d="M 439.99763,678.95823 L 396.08763,678.70402 C 400.77127,684.4185 400.74305,689.68532 395.99636,694.49814 L 439.9,694.75897 C 436.0045,689.88986 436.03272,684.62304 439.99763,678.95823 z" style="fill:#ffdd3a;fill-opacity:1;stroke:#9c6000;stroke-width:1.75210464;stroke-miterlimit:4;stroke-dasharray:none;stroke-opacity:1" id="path36201"/>
								<path d="M 440.52778,674.79528 L 396.01523,674.53396 C 394.94622,674.52345 394.0686,675.31872 394.06259,676.29048 L 394.04318,678.8236 C 394.03716,679.79535 394.90853,680.59369 395.98389,680.59758 L 440.49643,680.8589 C 441.55884,680.86307 442.44306,680.07414 442.44909,679.10238 L 442.46215,676.57587 C 442.46816,675.60412 441.60313,674.79918 440.52778,674.79528 z" style="fill:#ffdd3a;fill-opacity:1;stroke:#9c6000;stroke-width:1.75210464;stroke-miterlimit:4;stroke-dasharray:none;stroke-opacity:1" id="path36203"/>
								<path d="M 439.60145,692.49678 L 395.08891,692.23546 C 394.0199,692.22496 393.13567,693.01388 393.13626,693.99198 L 393.11685,696.52509 C 393.11083,697.49685 393.98221,698.29518 395.05756,698.29909 L 439.5635,698.55406 C 440.63251,698.56457 441.51674,697.77564 441.52276,696.80389 L 441.53582,694.27738 C 441.54183,693.30562 440.6702,692.49434 439.60145,692.49678 z" style="fill:#ffdd3a;fill-opacity:1;stroke:#9c6000;stroke-width:1.75210464;stroke-miterlimit:4;stroke-dasharray:none;stroke-opacity:1" id="path36205"/>
							</g>
						</g>
						<path sodipodi:nodetypes="ccccccc" d="M 158.86027,45.241768 L 158.87221,51.641333 L 161.58052,53.613843 L 160.54885,50.405827 L 163.26173,48.439616 L 159.89192,48.429463 L 158.86027,45.241768 z" style="fill:#ffdd3a;fill-opacity:1;stroke:#9c6000;stroke-width:0.20546581;stroke-miterlimit:4;stroke-dasharray:none;stroke-dashoffset:0;stroke-opacity:1;overflow:visible" id="path36207"/>
						<g id="g36209" inkscape:label="Calque 1" transform="matrix(-8.85895e-4,0.1793933,-0.1782753,-8.8589496e-4,261.02354,-82.705195)" style="fill:#ffdd3a;fill-opacity:1;stroke:#9c6000;stroke-width:2.52796388;stroke-miterlimit:4;stroke-dasharray:none;stroke-opacity:1">
							<g transform="matrix(-1.654356e-2,-1.4427207,1.4427207,-1.654356e-2,-259.4273,1155.4437)" id="g36211" style="fill:#ffdd3a;fill-opacity:1;fill-rule:evenodd;stroke:#9c6000;stroke-width:1.75210464;stroke-miterlimit:4;stroke-dasharray:none;stroke-opacity:1;display:inline">
								<path id="path36213" style="fill:#ffdd3a;fill-opacity:1;stroke:#9c6000;stroke-width:1.75210464;stroke-miterlimit:4;stroke-dasharray:none;stroke-opacity:1" d="M 439.99763,678.95823 L 396.08763,678.70402 C 400.77127,684.4185 400.74305,689.68532 395.99636,694.49814 L 439.9,694.75897 C 436.0045,689.88986 436.03272,684.62304 439.99763,678.95823 z"/>
								<path id="path36215" style="fill:#ffdd3a;fill-opacity:1;stroke:#9c6000;stroke-width:1.75210464;stroke-miterlimit:4;stroke-dasharray:none;stroke-opacity:1" d="M 440.52778,674.79528 L 396.01523,674.53396 C 394.94622,674.52345 394.0686,675.31872 394.06259,676.29048 L 394.04318,678.8236 C 394.03716,679.79535 394.90853,680.59369 395.98389,680.59758 L 440.49643,680.8589 C 441.55884,680.86307 442.44306,680.07414 442.44909,679.10238 L 442.46215,676.57587 C 442.46816,675.60412 441.60313,674.79918 440.52778,674.79528 z"/>
								<path id="path36217" style="fill:#ffdd3a;fill-opacity:1;stroke:#9c6000;stroke-width:1.75210464;stroke-miterlimit:4;stroke-dasharray:none;stroke-opacity:1" d="M 439.60145,692.49678 L 395.08891,692.23546 C 394.0199,692.22496 393.13567,693.01388 393.13626,693.99198 L 393.11685,696.52509 C 393.11083,697.49685 393.98221,698.29518 395.05756,698.29909 L 439.5635,698.55406 C 440.63251,698.56457 441.51674,697.77564 441.52276,696.80389 L 441.53582,694.27738 C 441.54183,693.30562 440.6702,692.49434 439.60145,692.49678 z"/>
							</g>
						</g>
					</g>
				</g>
			</g>
		</g>
	</g>
</svg>