<svg xmlns:dc="http://purl.org/dc/elements/1.1/" xmlns:cc="http://creativecommons.org/ns#" xmlns:rdf="http://www.w3.org/1999/02/22-rdf-syntax-ns#" xmlns:svg="http://www.w3.org/2000/svg" xmlns="http://www.w3.org/2000/svg" xmlns:xlink="http://www.w3.org/1999/xlink" xmlns:sodipodi="http://sodipodi.sourceforge.net/DTD/sodipodi-0.dtd" xmlns:inkscape="http://www.inkscape.org/namespaces/inkscape" sodipodi:docname="Heaumes.svg" height="172.9375" width="170" inkscape:version="0.48.1 " version="1.1" id="svg2816">
	<defs id="defs2820">
		<linearGradient id="linearGradient3878">
			<stop style="stop-color:#967700;stop-opacity:1;" offset="0" id="stop3880"/>
			<stop style="stop-color:#3f3f3f;stop-opacity:1;" offset="1" id="stop3882"/>
		</linearGradient>
		<linearGradient id="linearGradient4237">
			<stop id="stop4239" offset="0" style="stop-color:#d6a919;stop-opacity:1;"/>
			<stop id="stop4241" offset="1" style="stop-color:#ffd401;stop-opacity:1;"/>
		</linearGradient>
		<filter color-interpolation-filters="sRGB" inkscape:collect="always" id="filter8402-2-1-1">
			<feGaussianBlur inkscape:collect="always" stdDeviation="0.41421119" id="feGaussianBlur8404-0-3-6"/>
		</filter>
		<filter color-interpolation-filters="sRGB" inkscape:collect="always" id="filter8398-4-4-7">
			<feGaussianBlur inkscape:collect="always" stdDeviation="0.41421119" id="feGaussianBlur8400-8-7-6"/>
		</filter>
		<linearGradient inkscape:collect="always" xlink:href="#linearGradient4237" id="linearGradient5387" gradientUnits="userSpaceOnUse" x1="81.303963" y1="52.090797" x2="138.35309" y2="52.090797" gradientTransform="translate(-67.206319,11.875)"/>
		<linearGradient inkscape:collect="always" xlink:href="#linearGradient4237" id="linearGradient3825" x1="22.432398" y1="86.380539" x2="26.410675" y2="96.402473" gradientUnits="userSpaceOnUse"/>
		<linearGradient inkscape:collect="always" xlink:href="#linearGradient4237" id="linearGradient3829" gradientUnits="userSpaceOnUse" x1="22.432398" y1="86.380539" x2="26.410675" y2="96.402473" gradientTransform="matrix(-1,0,0,1,141.48528,0)"/>
		<linearGradient inkscape:collect="always" xlink:href="#linearGradient4237" id="linearGradient3854" gradientUnits="userSpaceOnUse" x1="41.716595" y1="30.806492" x2="70.774361" y2="30.806492" gradientTransform="matrix(0.81079286,0,0,-1,13.215948,100.85565)"/>
		<radialGradient inkscape:collect="always" xlink:href="#linearGradient3878" id="radialGradient3884" cx="81.775871" cy="50.113823" fx="81.775871" fy="50.113823" r="26.900013" gradientUnits="userSpaceOnUse" gradientTransform="matrix(1.8334994,0,0,1.7088764,-68.160143,-35.52451)"/>
		<linearGradient inkscape:collect="always" xlink:href="#linearGradient4237" id="linearGradient3892" gradientUnits="userSpaceOnUse" x1="41.716595" y1="30.806492" x2="70.774361" y2="30.806492" gradientTransform="matrix(-1,0,0,1,141.1827,0)"/>
		<linearGradient inkscape:collect="always" xlink:href="#linearGradient4237" id="linearGradient3896" gradientUnits="userSpaceOnUse" gradientTransform="matrix(-0.81079286,0,0,-1,127.81369,100.85565)" x1="41.716595" y1="30.806492" x2="70.774361" y2="30.806492"/>
		<linearGradient inkscape:collect="always" xlink:href="#linearGradient4237" id="linearGradient3902" gradientUnits="userSpaceOnUse" x1="41.716595" y1="30.806492" x2="70.774361" y2="30.806492" gradientTransform="translate(-0.14385033,0)"/>
		<linearGradient inkscape:collect="always" xlink:href="#linearGradient4237" id="linearGradient3906" gradientUnits="userSpaceOnUse" gradientTransform="matrix(-1,0,0,1,208.10777,11.875)" x1="81.303963" y1="52.090797" x2="138.35309" y2="52.090797"/>
		<linearGradient inkscape:collect="always" xlink:href="#linearGradient4237-7" id="linearGradient3829-1" gradientUnits="userSpaceOnUse" x1="22.432398" y1="86.380539" x2="26.410675" y2="96.402473" gradientTransform="matrix(-1,0,0,1,-21.290652,0.76219393)"/>
		<linearGradient id="linearGradient4237-7">
			<stop id="stop4239-4" offset="0" style="stop-color:#9d9d9d;stop-opacity:1;"/>
			<stop id="stop4241-0" offset="1" style="stop-color:#e0e0e0;stop-opacity:1;"/>
		</linearGradient>
		<filter color-interpolation-filters="sRGB" inkscape:collect="always" id="filter8398-4-4-7-9">
			<feGaussianBlur inkscape:collect="always" stdDeviation="0.41421119" id="feGaussianBlur8400-8-7-6-4"/>
		</filter>
		<filter color-interpolation-filters="sRGB" inkscape:collect="always" id="filter8402-2-1-1-8">
			<feGaussianBlur inkscape:collect="always" stdDeviation="0.41421119" id="feGaussianBlur8404-0-3-6-8"/>
		</filter>
		<linearGradient gradientTransform="translate(-162.77593,0.76219393)" inkscape:collect="always" xlink:href="#linearGradient4237-7" id="linearGradient3825-2" x1="22.432398" y1="86.380539" x2="26.410675" y2="96.402473" gradientUnits="userSpaceOnUse"/>
		<linearGradient inkscape:collect="always" xlink:href="#linearGradient4237-7" id="linearGradient5387-4" gradientUnits="userSpaceOnUse" x1="81.303963" y1="52.090797" x2="138.35309" y2="52.090797" gradientTransform="translate(-229.98225,12.637194)"/>
		<linearGradient inkscape:collect="always" xlink:href="#linearGradient4237-7" id="linearGradient3815-5" gradientUnits="userSpaceOnUse" gradientTransform="matrix(-1,0,0,1,45.331838,12.637194)" x1="81.303963" y1="52.090797" x2="138.35309" y2="52.090797"/>
		<linearGradient inkscape:collect="always" xlink:href="#linearGradient4237-2" id="linearGradient3829-9" gradientUnits="userSpaceOnUse" x1="22.432398" y1="86.380539" x2="26.410675" y2="96.402473" gradientTransform="matrix(-1,0,0,1,302.59071,-0.85288335)"/>
		<linearGradient id="linearGradient4237-2">
			<stop id="stop4239-7" offset="0" style="stop-color:#e5af01;stop-opacity:1;"/>
			<stop id="stop4241-9" offset="1" style="stop-color:#ffd401;stop-opacity:1;"/>
		</linearGradient>
		<filter color-interpolation-filters="sRGB" inkscape:collect="always" id="filter8398-4-4-7-5">
			<feGaussianBlur inkscape:collect="always" stdDeviation="0.41421119" id="feGaussianBlur8400-8-7-6-43"/>
		</filter>
		<filter color-interpolation-filters="sRGB" inkscape:collect="always" id="filter8402-2-1-1-1">
			<feGaussianBlur inkscape:collect="always" stdDeviation="0.41421119" id="feGaussianBlur8404-0-3-6-2"/>
		</filter>
		<linearGradient gradientTransform="translate(161.10543,-0.85288335)" inkscape:collect="always" xlink:href="#linearGradient4237-2" id="linearGradient3825-3" x1="22.432398" y1="86.380539" x2="26.410675" y2="96.402473" gradientUnits="userSpaceOnUse"/>
		<linearGradient inkscape:collect="always" xlink:href="#linearGradient4237-2" id="linearGradient5387-3" gradientUnits="userSpaceOnUse" x1="81.303963" y1="52.090797" x2="138.35309" y2="52.090797" gradientTransform="translate(93.899113,11.022117)"/>
		<linearGradient inkscape:collect="always" xlink:href="#linearGradient4237-2" id="linearGradient3815-1" gradientUnits="userSpaceOnUse" gradientTransform="matrix(-1,0,0,1,369.2132,11.022117)" x1="81.303963" y1="52.090797" x2="138.35309" y2="52.090797"/>
		<linearGradient inkscape:collect="always" xlink:href="#linearGradient4237-2" id="linearGradient4101" gradientUnits="userSpaceOnUse" gradientTransform="matrix(-1,0,0,1,369.2132,11.022117)" x1="81.303963" y1="52.090797" x2="138.35309" y2="52.090797"/>
		<linearGradient inkscape:collect="always" xlink:href="#linearGradient4237-2" id="linearGradient4103" gradientUnits="userSpaceOnUse" gradientTransform="translate(93.899113,11.022117)" x1="81.303963" y1="52.090797" x2="138.35309" y2="52.090797"/>
		<linearGradient inkscape:collect="always" xlink:href="#linearGradient4237-2" id="linearGradient4105" gradientUnits="userSpaceOnUse" gradientTransform="translate(161.10543,-0.85288335)" x1="22.432398" y1="86.380539" x2="26.410675" y2="96.402473"/>
		<linearGradient inkscape:collect="always" xlink:href="#linearGradient4237-2" id="linearGradient4107" gradientUnits="userSpaceOnUse" gradientTransform="matrix(-1,0,0,1,302.59071,-0.85288335)" x1="22.432398" y1="86.380539" x2="26.410675" y2="96.402473"/>
	</defs>
	<g transform="translate(14,4.5)">
		<path transform="matrix(1.0534759,0,0,1.0534759,-12.551134,-3.0352541)" d="m 105.58615,45.479221 c 0,14.856467 -12.043549,26.900013 -26.900016,26.900013 -14.856467,0 -26.900013,-12.043546 -26.900013,-26.900013 0,-14.856467 12.043546,-26.900013 26.900013,-26.900013 14.856467,0 26.900016,12.043546 26.900016,26.900013 z" sodipodi:ry="26.900013" sodipodi:rx="26.900013" sodipodi:cy="45.479221" sodipodi:cx="78.686134" id="path3018" style="color:#000000;fill:url(#radialGradient3884);fill-opacity:1;fill-rule:nonzero;stroke:none;stroke-width:0.5;marker:none;visibility:visible;display:inline;overflow:visible;enable-background:accumulate" sodipodi:type="arc"/>
		<path sodipodi:nodetypes="csccccccccccc" id="path3904" d="m 70.254681,23.829046 c 1.39848,0.37647 4.970128,2.930933 6.59104,3.546783 7.425626,2.821296 14.482752,5.920005 20.956088,16.036352 -0.3948,7.71639 -3.885878,11.434608 -9.554208,18.558698 -4.93764,2.65312 -11.29765,7.599502 -17.99292,7.883732 l 0,49.996209 c 6.85073,-3.58774 8.40516,-7.84471 10.77145,-11.99909 7.64598,8.46728 15.97798,-2.48442 24.180809,-9.777029 20.82714,8.814999 36.39878,-30.691876 7.91372,-19.77628 C 99.511,84.000851 87.368191,77.360561 89.599331,66.521531 102.31817,52.818881 102.6414,39.116211 99.05183,25.413541 93.888461,17.247509 87.489061,9.7470283 70.254681,8.0807711 z" style="fill:url(#linearGradient3906);fill-opacity:1;stroke:#000000;stroke-width:1;stroke-linecap:butt;stroke-linejoin:miter;stroke-miterlimit:4;stroke-opacity:0;stroke-dasharray:none" inkscape:connector-curvature="0"/>
		<path sodipodi:nodetypes="cccccc" inkscape:connector-curvature="0" id="path3894" d="m 98.882233,40.659373 c -1.502297,4.448813 -2.307623,10.409326 -5.01985,12.961719 l -23.310936,10.922058 0,15.90625 23.288862,-21.398365 c 5.157882,-5.169867 8.255291,-13.466046 5.041924,-18.391662 z" style="fill:url(#linearGradient3896);fill-opacity:1;stroke:#313131;stroke-width:0.40000001;stroke-linecap:butt;stroke-linejoin:round;stroke-miterlimit:4;stroke-opacity:1;stroke-dasharray:none"/>
		<path inkscape:connector-curvature="0" style="fill:url(#linearGradient5387);fill-opacity:1;stroke:#000000;stroke-width:1;stroke-linecap:butt;stroke-linejoin:miter;stroke-miterlimit:4;stroke-opacity:0;stroke-dasharray:none" d="m 70.646771,23.829046 c -1.39848,0.37647 -4.970128,2.930933 -6.59104,3.546783 -7.425626,2.821296 -14.482752,5.920005 -20.956088,16.036352 0.3948,7.71639 3.885878,11.434608 9.554208,18.558698 4.93764,2.65312 11.29765,7.599502 17.99292,7.883732 l 0,49.996209 c -6.85073,-3.58774 -8.40516,-7.84471 -10.77145,-11.99909 -7.64598,8.46728 -15.97798,-2.48442 -24.18081,-9.777029 -20.827143,8.814999 -36.39877924,-30.691876 -7.91372,-19.77628 13.60966,5.70243 25.75247,-0.93786 23.52133,-11.77689 -12.71884,-13.70265 -13.04207,-27.40532 -9.4525,-41.10799 5.16337,-8.166032 11.56277,-15.6665127 28.79715,-17.3327699 z" id="path6923-5" sodipodi:nodetypes="csccccccccccc"/>
		<path inkscape:connector-curvature="0" d="m 49.417191,78.879734 c -0.33459,0.228338 -0.76543,0.261043 -1.13024,0.0858 -0.3648,-0.175248 -0.60814,-0.531823 -0.63836,-0.935408 -0.0302,-0.403586 0.15729,-0.792866 0.49188,-1.021204 0.33459,-0.228338 0.76543,-0.261043 1.13024,-0.08579 0.3648,0.175247 0.60815,0.531823 0.63836,0.935408 0.0302,0.403585 -0.15729,0.792866 -0.49188,1.021203 0,0 0,0 0,0 m 1.29379,1.858748 c -0.32701,0.239048 -0.75657,0.285683 -1.12685,0.122339 -0.37028,-0.163344 -0.6286,-0.556298 -0.65882,-0.959883 -0.0302,-0.403585 0.15729,-0.792866 0.49188,-1.021204 0.33459,-0.228337 0.76544,-0.261042 1.13024,-0.0858 0.3648,0.175248 0.57885,0.505572 0.62211,0.907963 0.0433,0.402391 -0.13154,0.797533 -0.45856,1.03658 0,0 0,0 0,0 m 1.33661,1.828483 c -0.32702,0.239048 -0.75658,0.285683 -1.12686,0.122339 -0.37028,-0.163343 -0.62504,-0.51185 -0.6683,-0.914241 -0.0433,-0.402391 0.13154,-0.797533 0.45855,-1.036581 0.32702,-0.239047 0.75658,-0.285682 1.12686,-0.122339 0.37028,0.163344 0.62504,0.511851 0.6683,0.914242 0.0433,0.402391 -0.13154,0.797533 -0.45855,1.03658 0,0 0,0 0,0 m 1.38352,1.792805 c -0.31797,0.250949 -0.7455,0.313403 -1.12156,0.163837 -0.37605,-0.149566 -0.67726,-0.51767 -0.72052,-0.920061 -0.0433,-0.402391 0.13154,-0.797533 0.45856,-1.036581 0.32701,-0.239047 0.75657,-0.285682 1.12685,-0.122339 0.37028,0.163344 0.61857,0.46185 0.67666,0.862364 0.0581,0.400515 -0.10202,0.801832 -0.41999,1.05278 0,0 0,0 0,0 m 1.42187,1.762447 c -0.30708,0.264148 -0.73159,0.344602 -1.11362,0.211056 -0.38202,-0.133547 -0.67015,-0.520208 -0.72823,-0.920723 -0.0581,-0.400514 0.10201,-0.801831 0.41998,-1.05278 0.31797,-0.250948 0.74551,-0.313402 1.12156,-0.163836 0.37605,0.149566 0.6005,0.45903 0.67544,0.856725 0.075,0.397696 -0.068,0.805409 -0.37513,1.069558 0,0 0,0 0,0 m 1.47695,1.717002 c -0.30708,0.264149 -0.73159,0.344603 -1.11361,0.211056 -0.38203,-0.133547 -0.66354,-0.460806 -0.73848,-0.858501 -0.075,-0.397696 0.0681,-0.805409 0.37514,-1.069557 0.30708,-0.264149 0.73158,-0.344603 1.11361,-0.211057 0.38203,0.133547 0.66353,0.460806 0.73848,0.858502 0.0749,0.397695 -0.0681,0.805408 -0.37514,1.069557 0,0 0,0 0,0 m 1.55224,1.648919 c -0.2939,0.278728 -0.71399,0.379679 -1.10203,0.264826 -0.38805,-0.114852 -0.68509,-0.42806 -0.77924,-0.82164 -0.0942,-0.393581 0.022,-0.827956 0.32903,-1.092105 0.30708,-0.264149 0.70776,-0.374042 1.0958,-0.25919 0.38804,0.114853 0.68509,0.428061 0.77924,0.821641 0.0941,0.39358 -0.0289,0.80774 -0.3228,1.086468 0,0 0,0 0,0 m 1.62168,1.5798 c -0.27785,0.294704 -0.69163,0.418967 -1.08547,0.32598 -0.39384,-0.09299 -0.76486,-0.425732 -0.85901,-0.819313 -0.0942,-0.39358 0.0289,-0.807739 0.3228,-1.086467 0.29389,-0.278728 0.71399,-0.37968 1.10203,-0.264827 0.38805,0.114852 0.66524,0.354171 0.78122,0.741861 0.11599,0.38769 0.0163,0.808063 -0.26157,1.102766 0,0 0,0 0,0 m 1.70558,1.488086 c -0.25827,0.31198 -0.66317,0.462639 -1.06216,0.395226 -0.399,-0.06741 -0.789,-0.392855 -0.90499,-0.780546 -0.11599,-0.38769 -0.0163,-0.808062 0.26157,-1.102766 0.27785,-0.294703 0.69163,-0.418966 1.08547,-0.325979 0.39384,0.09299 0.66935,0.3174 0.81007,0.696792 0.14073,0.379392 0.0683,0.805294 -0.18996,1.117273 0,0 0,0 0,0 m 1.79547,1.378334 c -0.22766,0.335036 -0.64291,0.506843 -1.04506,0.461397 -0.40214,-0.04545 -0.79965,-0.343065 -0.94037,-0.722457 -0.14073,-0.379392 -0.0683,-0.805294 0.18996,-1.117274 0.25827,-0.311979 0.66316,-0.462638 1.06216,-0.395225 0.39899,0.06741 0.69442,0.284718 0.85575,0.655877 0.16133,0.371159 0.10522,0.782646 -0.12244,1.117682 0,0 0,0 0,0 m 1.92044,1.19829 c -0.19729,0.353764 -0.60592,0.569906 -1.01043,0.557723 -0.40452,-0.01218 -0.81757,-0.2612 -0.99354,-0.625641 -0.17597,-0.36444 -0.14413,-0.795336 0.0835,-1.130372 0.22766,-0.335036 0.61655,-0.523313 1.02018,-0.493909 0.40363,0.0294 0.73199,0.223506 0.92333,0.580116 0.19134,0.356609 0.17422,0.758319 -0.0231,1.112083 0,0 0,0 0,0 m 2.04319,0.972579 c -0.14063,0.379845 -0.5101,0.634822 -0.9121,0.681361 -0.40199,0.04654 -0.84508,-0.168414 -1.06902,-0.505491 -0.22395,-0.337077 -0.25936,-0.794685 -0.0621,-1.148449 0.19729,-0.353764 0.53046,-0.585096 0.93432,-0.610919 0.40387,-0.02582 0.7365,0.1379 0.97747,0.463021 0.24097,0.325121 0.27203,0.740633 0.1314,1.120477 0,0 0,0 0,0 m 2.16396,0.659484 c -0.0955,0.393604 -0.39355,0.706401 -0.78178,0.820565 -0.38823,0.114164 -0.93387,-0.05115 -1.19211,-0.362712 -0.25825,-0.311566 -0.3307,-0.737492 -0.19007,-1.117337 0.14063,-0.379844 0.47298,-0.6559 0.87185,-0.724179 0.39888,-0.06828 0.6808,0.01657 0.97349,0.296008 0.2927,0.27944 0.41415,0.694052 0.31862,1.087655 0,0 0,0 0,0 m 2.247,0.251801 c 0.006,0.404971 -0.25371,0.771482 -0.61353,0.956627 -0.35982,0.185145 -0.93941,0.119476 -1.24875,-0.141418 -0.30933,-0.260893 -0.48026,-0.673406 -0.38472,-1.06701 0.0955,-0.393603 0.3491,-0.728239 0.72957,-0.866079 0.38046,-0.137839 0.65986,-0.106124 0.99988,0.113271 0.34002,0.219394 0.51106,0.599638 0.51755,1.004609 0,0 0,0 0,0 m 2.24995,-0.214907 c 0.0835,0.396326 -0.0984,0.817068 -0.4158,1.068054 -0.31743,0.250987 -0.8988,0.316323 -1.25234,0.119449 -0.35354,-0.196874 -0.57532,-0.567625 -0.58181,-0.972596 -0.006,-0.404971 0.20331,-0.782636 0.55036,-0.990733 0.34705,-0.208097 0.62429,-0.248924 1.0002,-0.09913 0.37592,0.149794 0.61588,0.478631 0.69939,0.874957 0,0 0,0 0,0 m 2.16172,-0.661592 c 0.15138,0.375689 0.0547,0.830791 -0.21196,1.135154 -0.26669,0.304363 -0.74543,0.451458 -1.13696,0.34917 -0.39153,-0.102288 -0.72928,-0.426406 -0.8128,-0.822732 -0.0835,-0.396326 0.008,-0.78228 0.29174,-1.070505 0.28405,-0.288225 0.63016,-0.394636 1.02701,-0.315442 0.39685,0.07919 0.69158,0.348666 0.84297,0.724355 0,0 0,0 0,0 m 2.01462,-1.028967 c 0.2057,0.348942 0.20984,0.780986 0.0109,1.133386 -0.19898,0.3524 -0.68932,0.593894 -1.09244,0.558293 -0.40312,-0.0356 -0.78166,-0.287023 -0.93304,-0.662712 -0.15139,-0.375689 -0.12837,-0.785711 0.10367,-1.117261 0.23205,-0.33155 0.51987,-0.466557 0.92455,-0.470015 0.40468,-0.0035 0.7807,0.209368 0.9864,0.558309 0,0 0,0 0,0 m 1.84534,-1.309538 c 0.25199,0.317078 0.31588,0.744343 0.1676,1.120848 -0.14827,0.376504 -0.58615,0.658702 -0.98971,0.688009 -0.40356,0.02931 -0.81753,-0.150377 -1.02323,-0.499319 -0.2057,-0.348941 -0.25591,-0.760555 -0.0799,-1.124882 0.17602,-0.364327 0.47092,-0.5416 0.87118,-0.601026 0.40026,-0.05943 0.80207,0.09929 1.05405,0.41637 0,0 0,0 0,0 m 1.71289,-1.479856 c 0.27163,0.300454 0.36253,0.722823 0.23845,1.108006 -0.12407,0.385182 -0.49702,0.728794 -0.89729,0.788221 -0.40026,0.05943 -0.80206,-0.09929 -1.05405,-0.416371 -0.25198,-0.317078 -0.31587,-0.744342 -0.1676,-1.120847 0.14828,-0.376505 0.40636,-0.622897 0.80207,-0.707626 0.3957,-0.08473 0.8068,0.04816 1.07842,0.348617 0,0 0,0 0,0 m 1.58202,-1.619851 c 0.29964,0.272571 0.41868,0.719758 0.31531,1.111023 -0.10337,0.391266 -0.40769,0.697414 -0.79833,0.803121 -0.39064,0.105707 -0.82737,0.0062 -1.099,-0.294293 -0.27162,-0.300454 -0.39708,-0.698853 -0.29371,-1.090119 0.10337,-0.391265 0.40769,-0.697413 0.79833,-0.80312 0.39064,-0.105707 0.77776,8.17e-4 1.0774,0.273388 0,0 0,0 0,0 m 1.49192,-1.703614 c 0.30934,0.261527 0.45582,0.668021 0.38427,1.066358 -0.0716,0.398338 -0.38325,0.75623 -0.76884,0.87913 -0.38559,0.122899 -0.80771,0.0307 -1.10735,-0.241874 -0.29964,-0.272571 -0.43128,-0.684102 -0.34532,-1.079573 0.0859,-0.39547 0.34093,-0.688775 0.72182,-0.825586 0.38088,-0.13681 0.80608,-0.05998 1.11542,0.201545 0,0 0,0 0,0 m 1.4069,-1.774454 c 0.31972,0.2487 0.48263,0.648871 0.42737,1.049774 -0.0553,0.400904 -0.3203,0.741632 -0.69529,0.893836 -0.37498,0.152204 -0.82964,0.09237 -1.13898,-0.169156 -0.30934,-0.261527 -0.4663,-0.635654 -0.41104,-1.036557 0.0553,-0.400903 0.3203,-0.741631 0.69528,-0.893836 0.37499,-0.152204 0.80294,-0.09276 1.12266,0.155939 0,0 0,0 0,0 m 1.37632,-1.798405 c 0.3281,0.237576 0.49688,0.659605 0.44162,1.060509 -0.0553,0.400903 -0.3203,0.741631 -0.69529,0.893835 -0.37498,0.152204 -0.80293,0.09276 -1.12265,-0.155939 -0.31972,-0.248699 -0.48263,-0.648871 -0.42737,-1.049774 0.0553,-0.400903 0.3203,-0.741631 0.69528,-0.893835 0.37499,-0.152204 0.78031,-0.09237 1.10841,0.145204 0,0 0,0 0,0 m 1.32838,-1.834536 c 0.32811,0.237577 0.50469,0.631937 0.46324,1.034529 -0.0414,0.402592 -0.29464,0.752253 -0.66419,0.917268 -0.36955,0.165015 -0.79933,0.120315 -1.12743,-0.117261 -0.3281,-0.237577 -0.50468,-0.631937 -0.46323,-1.034529 0.0414,-0.402592 0.29464,-0.752253 0.66419,-0.917268 0.36955,-0.165015 0.79932,-0.120315 1.12742,0.117261 0,0 0,0 0,0 m 1.3156,-1.843686 c 0.33065,0.234013 0.51149,0.62644 0.4744,1.029456 -0.0371,0.403016 -0.29302,0.766476 -0.66257,0.931492 -0.36955,0.165015 -0.79932,0.120315 -1.12743,-0.117262 -0.3281,-0.237576 -0.50468,-0.631937 -0.46323,-1.034529 0.0414,-0.402592 0.28246,-0.745211 0.6502,-0.914214 0.36775,-0.169003 0.79798,-0.128956 1.12863,0.105057 0,0 0,0 0,0 m 1.30845,-1.848796 c 0.33065,0.234013 0.51149,0.626439 0.4744,1.029456 -0.0371,0.403016 -0.28648,0.755394 -0.65423,0.924398 -0.36774,0.169003 -0.79797,0.128955 -1.12862,-0.105058 -0.33065,-0.234013 -0.51149,-0.626439 -0.4744,-1.029455 0.0371,-0.403017 0.28648,-0.755395 0.65423,-0.924399 0.36774,-0.169003 0.79797,-0.128955 1.12862,0.105058 0,0 0,0 0,0 m 1.30846,-1.848796 c 0.33065,0.234013 0.51149,0.626439 0.47439,1.029455 -0.0371,0.403016 -0.28648,0.755395 -0.65422,0.924398 -0.36775,0.169004 -0.79798,0.128956 -1.12863,-0.105057 -0.33065,-0.234013 -0.51149,-0.626439 -0.4744,-1.029456 0.0371,-0.403016 0.28649,-0.755395 0.65423,-0.924398 0.36774,-0.169003 0.79797,-0.128956 1.12863,0.105058 0,0 0,0 0,0 m 1.30845,-1.848797 c 0.33065,0.234013 0.51149,0.626439 0.4744,1.029456 -0.0371,0.403016 -0.28648,0.755395 -0.65423,0.924398 -0.36774,0.169003 -0.79797,0.128956 -1.12862,-0.105057 -0.33066,-0.234014 -0.5115,-0.62644 -0.4744,-1.029456 0.0371,-0.403016 0.28648,-0.755395 0.65422,-0.924398 0.36775,-0.169004 0.79798,-0.128956 1.12863,0.105057 0,0 0,0 0,0" id="path4321" style="fill:#feda3e;fill-opacity:1;fill-rule:evenodd;stroke:#000000;stroke-width:0;stroke-linecap:square;stroke-linejoin:round;stroke-miterlimit:4;stroke-opacity:0;stroke-dasharray:none;stroke-dashoffset:0"/>
		<path inkscape:connector-curvature="0" style="fill:url(#linearGradient3825);fill-opacity:1;stroke:none" d="M 14.569692,80.497864 C 12.466769,96.056531 29.793552,100.03617 35.49844,97.285313 31.955322,90.220806 28.582936,82.247811 23.275695,79.128798 21.087727,77.842951 15.078243,76.735303 14.569692,80.497864 z" id="path7036-1" sodipodi:nodetypes="scss"/>
		<path inkscape:connector-curvature="0" style="fill:#f7d55d;fill-opacity:1;stroke:none" d="m 23.76361,77.542381 c 7.914861,5.92548 9.983151,11.85095 14.508481,17.77643 5.49045,7.222569 11.02038,18.281729 20.99334,12.221289 -2.21391,-0.78162 -1.08664,-4.33415 1.86852,-1.22213 2.00657,4.69014 4.79149,8.7366 10.00206,10.77696 l 0,-1.77764 c -5.07938,-2.73288 -6.45803,-6.14588 -8.46328,-9.44373 -3.23592,-6.064659 -7.99189,-0.30475 -6.48486,0.99993 -7.4614,2.298 -11.84921,-5.69782 -15.93735,-11.554679 -4.61132,-6.59167 -7.25494,-11.93161 -12.31023,-17.10982 -2.05792,-1.29879 -3.58184,-1.73399 -4.176681,-0.66661 z" id="path7038-5" sodipodi:nodetypes="ccccccccccc"/>
		<path inkscape:connector-curvature="0" style="fill:#f7d55d;fill-opacity:1;stroke:none" d="m 118.50842,77.509641 c -7.91495,5.92547 -9.98325,11.85095 -14.50849,17.77643 -5.490539,7.222569 -11.020469,18.281729 -20.993339,12.221299 2.21382,-0.78162 1.08656,-4.33415 -1.86852,-1.22213 -2.00665,4.69013 -4.79158,8.73659 -10.00206,10.77696 l 0,-1.77765 c 5.07929,-2.73288 6.45795,-6.14589 8.46329,-9.44372 3.23583,-6.064659 7.9918,-0.30475 6.48485,0.99992 7.46132,2.298 11.84912,-5.69782 15.937349,-11.554679 4.61124,-6.59168 7.25495,-11.93162 12.31023,-17.10981 2.05783,-1.29879 3.58175,-1.73399 4.17669,-0.66662 z" id="path7038-2-3" sodipodi:nodetypes="ccccccccccc"/>
		<path sodipodi:type="arc" style="fill:#000000;fill-opacity:0.29257645;fill-rule:evenodd;stroke:#000000;stroke-width:0;stroke-linecap:square;stroke-linejoin:round;stroke-miterlimit:4;stroke-opacity:0;stroke-dasharray:none;stroke-dashoffset:0;filter:url(#filter8402-2-1-1)" id="path7110-2" sodipodi:cx="-848.4375" sodipodi:cy="22.375" sodipodi:rx="6.5625" sodipodi:ry="6.5" d="m -841.875,22.375 c 0,3.589851 -2.93813,6.5 -6.5625,6.5 -3.62437,0 -6.5625,-2.910149 -6.5625,-6.5 0,-3.589851 2.93813,-6.5 6.5625,-6.5 3.62437,0 6.5625,2.910149 6.5625,6.5 z" transform="matrix(0.87930221,0,0,0.88882145,817.5048,77.089281)"/>
		<path sodipodi:type="arc" style="opacity:0.71042474;fill:#000000;fill-opacity:0.29257645;fill-rule:evenodd;stroke:#000000;stroke-width:0;stroke-linecap:square;stroke-linejoin:round;stroke-miterlimit:4;stroke-opacity:0;stroke-dasharray:none;stroke-dashoffset:0;filter:url(#filter8398-4-4-7)" id="path7110-0-3" sodipodi:cx="-848.4375" sodipodi:cy="22.375" sodipodi:rx="6.5625" sodipodi:ry="6.5" d="m -841.875,22.375 c 0,3.589851 -2.93813,6.5 -6.5625,6.5 -3.62437,0 -6.5625,-2.910149 -6.5625,-6.5 0,-3.589851 2.93813,-6.5 6.5625,-6.5 3.62437,0 6.5625,2.910149 6.5625,6.5 z" transform="matrix(0.87930221,0,0,0.88882145,817.5048,76.978171)"/>
		<path sodipodi:type="arc" style="fill:#fff185;fill-opacity:1;fill-rule:evenodd;stroke:#000000;stroke-width:0;stroke-linecap:square;stroke-linejoin:round;stroke-miterlimit:4;stroke-opacity:0;stroke-dasharray:none;stroke-dashoffset:0" id="path7110-7-7" sodipodi:cx="-848.4375" sodipodi:cy="22.375" sodipodi:rx="6.5625" sodipodi:ry="6.5" d="m -841.875,22.375 c 0,3.589851 -2.93813,6.5 -6.5625,6.5 -3.62437,0 -6.5625,-2.910149 -6.5625,-6.5 0,-3.589851 2.93813,-6.5 6.5625,-6.5 3.62437,0 6.5625,2.910149 6.5625,6.5 z" transform="matrix(0.87930221,0,0,0.88882145,817.53558,76.158011)"/>
		<path sodipodi:type="arc" style="fill:#fff185;fill-opacity:1;fill-rule:evenodd;stroke:#313131;stroke-width:2.38131356;stroke-linecap:square;stroke-linejoin:round;stroke-miterlimit:4;stroke-opacity:1;stroke-dasharray:none;stroke-dashoffset:0" id="path3807" sodipodi:cx="-848.4375" sodipodi:cy="22.375" sodipodi:rx="6.5625" sodipodi:ry="6.5" d="m -841.875,22.375 c 0,3.589851 -2.93813,6.5 -6.5625,6.5 -3.62437,0 -6.5625,-2.910149 -6.5625,-6.5 0,-3.589851 2.93813,-6.5 6.5625,-6.5 3.62437,0 6.5625,2.910149 6.5625,6.5 z" transform="matrix(-0.16704708,0,0,0.1689071,-106.80005,78.967736)"/>
		<path sodipodi:nodetypes="scss" id="path3827" d="m 126.91559,80.497864 c 2.10292,15.558667 -15.22386,19.538306 -20.92875,16.787449 3.54312,-7.064507 6.9155,-15.037502 12.22274,-18.156515 2.18797,-1.285847 8.19746,-2.393495 8.70601,1.369066 z" style="fill:url(#linearGradient3829);fill-opacity:1;stroke:none" inkscape:connector-curvature="0"/>
		<path transform="matrix(-0.16704708,0,0,0.1689071,-101.9176,87.308575)" d="m -841.875,22.375 c 0,3.589851 -2.93813,6.5 -6.5625,6.5 -3.62437,0 -6.5625,-2.910149 -6.5625,-6.5 0,-3.589851 2.93813,-6.5 6.5625,-6.5 3.62437,0 6.5625,2.910149 6.5625,6.5 z" sodipodi:ry="6.5" sodipodi:rx="6.5625" sodipodi:cy="22.375" sodipodi:cx="-848.4375" id="path3831" style="fill:#fff185;fill-opacity:1;fill-rule:evenodd;stroke:#313131;stroke-width:2.38131356;stroke-linecap:square;stroke-linejoin:round;stroke-miterlimit:4;stroke-opacity:1;stroke-dasharray:none;stroke-dashoffset:0" sodipodi:type="arc"/>
		<path sodipodi:type="arc" style="fill:#fff185;fill-opacity:1;fill-rule:evenodd;stroke:#313131;stroke-width:2.38131356;stroke-linecap:square;stroke-linejoin:round;stroke-miterlimit:4;stroke-opacity:1;stroke-dasharray:none;stroke-dashoffset:0" id="path3833" sodipodi:cx="-848.4375" sodipodi:cy="22.375" sodipodi:rx="6.5625" sodipodi:ry="6.5" d="m -841.875,22.375 c 0,3.589851 -2.93813,6.5 -6.5625,6.5 -3.62437,0 -6.5625,-2.910149 -6.5625,-6.5 0,-3.589851 2.93813,-6.5 6.5625,-6.5 3.62437,0 6.5625,2.910149 6.5625,6.5 z" transform="matrix(-0.16704708,0,0,0.1689071,-95.712835,96.056283)"/>
		<path transform="matrix(-0.16704708,0,0,0.1689071,-88.287454,101.3456)" d="m -841.875,22.375 c 0,3.589851 -2.93813,6.5 -6.5625,6.5 -3.62437,0 -6.5625,-2.910149 -6.5625,-6.5 0,-3.589851 2.93813,-6.5 6.5625,-6.5 3.62437,0 6.5625,2.910149 6.5625,6.5 z" sodipodi:ry="6.5" sodipodi:rx="6.5625" sodipodi:cy="22.375" sodipodi:cx="-848.4375" id="path3835" style="fill:#fff185;fill-opacity:1;fill-rule:evenodd;stroke:#313131;stroke-width:2.38131356;stroke-linecap:square;stroke-linejoin:round;stroke-miterlimit:4;stroke-opacity:1;stroke-dasharray:none;stroke-dashoffset:0" sodipodi:type="arc"/>
		<path sodipodi:type="arc" style="fill:#fff185;fill-opacity:1;fill-rule:evenodd;stroke:#313131;stroke-width:2.38131356;stroke-linecap:square;stroke-linejoin:round;stroke-miterlimit:4;stroke-opacity:1;stroke-dasharray:none;stroke-dashoffset:0" id="path3837" sodipodi:cx="-848.4375" sodipodi:cy="22.375" sodipodi:rx="6.5625" sodipodi:ry="6.5" d="m -841.875,22.375 c 0,3.589851 -2.93813,6.5 -6.5625,6.5 -3.62437,0 -6.5625,-2.910149 -6.5625,-6.5 0,-3.589851 2.93813,-6.5 6.5625,-6.5 3.62437,0 6.5625,2.910149 6.5625,6.5 z" transform="matrix(-0.16704708,0,0,0.1689071,-70.792038,108.87269)"/>
		<path transform="matrix(-0.16704708,0,0,0.1689071,-75.827055,103.88854)" d="m -841.875,22.375 c 0,3.589851 -2.93813,6.5 -6.5625,6.5 -3.62437,0 -6.5625,-2.910149 -6.5625,-6.5 0,-3.589851 2.93813,-6.5 6.5625,-6.5 3.62437,0 6.5625,2.910149 6.5625,6.5 z" sodipodi:ry="6.5" sodipodi:rx="6.5625" sodipodi:cy="22.375" sodipodi:cx="-848.4375" id="path3839" style="fill:#fff185;fill-opacity:1;fill-rule:evenodd;stroke:#313131;stroke-width:2.38131356;stroke-linecap:square;stroke-linejoin:round;stroke-miterlimit:4;stroke-opacity:1;stroke-dasharray:none;stroke-dashoffset:0" sodipodi:type="arc"/>
		<path transform="matrix(0.16704708,0,0,0.1689071,249.12236,78.967736)" d="m -841.875,22.375 c 0,3.589851 -2.93813,6.5 -6.5625,6.5 -3.62437,0 -6.5625,-2.910149 -6.5625,-6.5 0,-3.589851 2.93813,-6.5 6.5625,-6.5 3.62437,0 6.5625,2.910149 6.5625,6.5 z" sodipodi:ry="6.5" sodipodi:rx="6.5625" sodipodi:cy="22.375" sodipodi:cx="-848.4375" id="path3843" style="fill:#fff185;fill-opacity:1;fill-rule:evenodd;stroke:#313131;stroke-width:2.38131356;stroke-linecap:square;stroke-linejoin:round;stroke-miterlimit:4;stroke-opacity:1;stroke-dasharray:none;stroke-dashoffset:0" sodipodi:type="arc"/>
		<path sodipodi:type="arc" style="fill:#fff185;fill-opacity:1;fill-rule:evenodd;stroke:#313131;stroke-width:2.38131356;stroke-linecap:square;stroke-linejoin:round;stroke-miterlimit:4;stroke-opacity:1;stroke-dasharray:none;stroke-dashoffset:0" id="path3845" sodipodi:cx="-848.4375" sodipodi:cy="22.375" sodipodi:rx="6.5625" sodipodi:ry="6.5" d="m -841.875,22.375 c 0,3.589851 -2.93813,6.5 -6.5625,6.5 -3.62437,0 -6.5625,-2.910149 -6.5625,-6.5 0,-3.589851 2.93813,-6.5 6.5625,-6.5 3.62437,0 6.5625,2.910149 6.5625,6.5 z" transform="matrix(0.16704708,0,0,0.1689071,244.23991,87.308575)"/>
		<path transform="matrix(0.16704708,0,0,0.1689071,238.03514,96.056283)" d="m -841.875,22.375 c 0,3.589851 -2.93813,6.5 -6.5625,6.5 -3.62437,0 -6.5625,-2.910149 -6.5625,-6.5 0,-3.589851 2.93813,-6.5 6.5625,-6.5 3.62437,0 6.5625,2.910149 6.5625,6.5 z" sodipodi:ry="6.5" sodipodi:rx="6.5625" sodipodi:cy="22.375" sodipodi:cx="-848.4375" id="path3847" style="fill:#fff185;fill-opacity:1;fill-rule:evenodd;stroke:#313131;stroke-width:2.38131356;stroke-linecap:square;stroke-linejoin:round;stroke-miterlimit:4;stroke-opacity:1;stroke-dasharray:none;stroke-dashoffset:0" sodipodi:type="arc"/>
		<path sodipodi:type="arc" style="fill:#fff185;fill-opacity:1;fill-rule:evenodd;stroke:#313131;stroke-width:2.38131356;stroke-linecap:square;stroke-linejoin:round;stroke-miterlimit:4;stroke-opacity:1;stroke-dasharray:none;stroke-dashoffset:0" id="path3849" sodipodi:cx="-848.4375" sodipodi:cy="22.375" sodipodi:rx="6.5625" sodipodi:ry="6.5" d="m -841.875,22.375 c 0,3.589851 -2.93813,6.5 -6.5625,6.5 -3.62437,0 -6.5625,-2.910149 -6.5625,-6.5 0,-3.589851 2.93813,-6.5 6.5625,-6.5 3.62437,0 6.5625,2.910149 6.5625,6.5 z" transform="matrix(0.16704708,0,0,0.1689071,230.60976,101.3456)"/>
		<path sodipodi:type="arc" style="fill:#fff185;fill-opacity:1;fill-rule:evenodd;stroke:#313131;stroke-width:2.38131356;stroke-linecap:square;stroke-linejoin:round;stroke-miterlimit:4;stroke-opacity:1;stroke-dasharray:none;stroke-dashoffset:0" id="path3851" sodipodi:cx="-848.4375" sodipodi:cy="22.375" sodipodi:rx="6.5625" sodipodi:ry="6.5" d="m -841.875,22.375 c 0,3.589851 -2.93813,6.5 -6.5625,6.5 -3.62437,0 -6.5625,-2.910149 -6.5625,-6.5 0,-3.589851 2.93813,-6.5 6.5625,-6.5 3.62437,0 6.5625,2.910149 6.5625,6.5 z" transform="matrix(0.16704708,0,0,0.1689071,218.14936,103.88854)"/>
		<path style="fill:url(#linearGradient3854);fill-opacity:1;stroke:#313131;stroke-width:0.40000001;stroke-linecap:butt;stroke-linejoin:round;stroke-miterlimit:4;stroke-opacity:1;stroke-dasharray:none" d="m 42.147408,40.659373 c 1.502297,4.448813 2.307623,10.409326 5.01985,12.961719 l 23.310936,10.922058 0,15.90625 L 47.189332,59.051035 C 42.03145,53.881168 38.934037,45.584989 42.147408,40.659373 z" id="path3852" inkscape:connector-curvature="0" sodipodi:nodetypes="cccccc"/>
		<path sodipodi:nodetypes="ccccc" inkscape:connector-curvature="0" id="path3036" d="m 41.5749,41.011898 1.28125,3.4375 27.625,-14.136898 0,-13.90625 C 61.386594,23.097428 51.040503,33.97707 41.5749,41.011898 z" style="fill:url(#linearGradient3902);fill-opacity:1;stroke:#313131;stroke-width:0.40000001;stroke-linecap:butt;stroke-linejoin:round;stroke-miterlimit:4;stroke-opacity:1;stroke-dasharray:none"/>
		<path style="fill:url(#linearGradient3892);fill-opacity:1;stroke:#313131;stroke-width:0.40000001;stroke-linecap:butt;stroke-linejoin:round;stroke-miterlimit:4;stroke-opacity:1;stroke-dasharray:none" d="m 99.463958,41.011898 -1.281238,3.4375 -27.625,-14.136898 0,-13.90625 c 9.094556,6.691178 19.44065,17.57082 28.906238,24.605648 z" id="path3890" inkscape:connector-curvature="0" sodipodi:nodetypes="ccccc"/>
	</g>
</svg>